<?xml version="1.0" encoding="UTF-8"?>
<!DOCTYPE svg PUBLIC "-//W3C//DTD SVG 1.1//EN" "http://www.w3.org/Graphics/SVG/1.1/DTD/svg11.dtd">
<!-- Creator: CorelDRAW 2021 (64-Bit Оценочная версия) -->
<svg xmlns="http://www.w3.org/2000/svg" xml:space="preserve" width="100px" height="100px" version="1.1" style="shape-rendering:geometricPrecision; text-rendering:geometricPrecision; image-rendering:optimizeQuality; fill-rule:evenodd; clip-rule:evenodd"
viewBox="0 0 100 100"
 xmlns:xlink="http://www.w3.org/1999/xlink"
 xmlns:xodm="http://www.corel.com/coreldraw/odm/2003">
 <defs>
  <style type="text/css">
   <![CDATA[
    .fil0 {fill:#4699D3;fill-rule:nonzero}
   ]]>
  </style>
 </defs>
 <g id="Слой_x0020_1">
  <metadata id="CorelCorpID_0Corel-Layer"/>
  <path class="fil0" d="M62.19 55.54c0,-7.96 -6.2,-15 -11.8,-21.36l-0.34 -0.36 -0.23 0.29c-5.65,6.38 -11.88,13.4 -11.88,21.43 0,3.31 1.37,6.34 3.6,8.51l0 0.05c2.16,2.19 5.18,3.58 8.51,3.58 3.34,0 6.39,-1.39 8.54,-3.63l0.19 -0.12c2.12,-2.16 3.41,-5.13 3.41,-8.39l0 0zm-12.14 10.33l0 0c-1.15,0 -2.15,-0.98 -2.15,-2.15 0,-1.22 1,-2.18 2.15,-2.18 1.63,0 3.16,-0.69 4.26,-1.79l0 -0.05c1.08,-1.03 1.74,-2.53 1.74,-4.16 0,-1.18 0.99,-2.17 2.18,-2.17 1.23,0 2.17,0.99 2.17,2.17 0,2.79 -1.17,5.39 -3.04,7.25l-0.03 0c-1.84,1.9 -4.46,3.08 -7.28,3.08l0 0zm31.71 -2.68l0 0c0.48,-1.1 1.71,-1.63 2.84,-1.16 1.08,0.47 1.58,1.74 1.13,2.86 -4.89,11.64 -15.48,20.36 -27.84,22.84 -1.29,0.26 -2.61,0.44 -3.87,0.6l-0.1 0c-1.29,0.1 -2.58,0.19 -3.87,0.19 -10.66,0 -20.31,-4.37 -27.34,-11.33 -5.73,-5.78 -9.72,-13.37 -10.94,-21.81l-3.38 4.18c-0.76,0.98 -2.13,1.08 -3.02,0.34 -0.95,-0.81 -1.11,-2.15 -0.32,-3.07l6.72 -8.24c0.38,-0.58 1.03,-0.95 1.79,-0.95 0.55,0 1.08,0.23 1.45,0.63l8.28 6.72c0.91,0.74 1.07,2.11 0.36,3.02 -0.81,0.95 -2.18,1.05 -3.1,0.32l-4.55 -3.68c1.08,7.51 4.66,14.3 9.75,19.47l0 0c6.23,6.23 14.84,10.03 24.3,10.03 1.24,0 2.34,-0.02 3.45,-0.12l0.05 0c1.16,-0.12 2.34,-0.32 3.49,-0.56 1.08,-0.21 2.13,-0.5 3.26,-0.84 8.43,-2.6 15.68,-8.57 19.94,-16.29l0.11 -0.16c0.55,-1.02 0.99,-2.01 1.41,-2.99l0 0zm-63.37 -26.72l0 0c-0.46,1.03 -1.72,1.55 -2.8,1.08 -1.08,-0.42 -1.6,-1.71 -1.13,-2.79 0.49,-1.2 0.99,-2.33 1.54,-3.41l0.11 -0.13c5.46,-9.88 15.13,-17.08 26.22,-19.29 1.26,-0.29 2.52,-0.5 3.81,-0.6l0.11 0c1.28,-0.1 2.59,-0.21 3.8,-0.21 10.69,0 20.39,4.31 27.4,11.32 5.73,5.76 9.72,13.29 10.93,21.78l3.37 -4.18c0.81,-0.91 2.12,-1.02 3.07,-0.29 0.92,0.74 1.07,2.1 0.34,3.05l-6.78 8.23c-0.36,0.6 -1.02,0.97 -1.73,0.97 -0.61,0 -1.13,-0.24 -1.5,-0.58l-8.28 -6.78c-0.89,-0.73 -1.07,-2.12 -0.29,-3.02 0.74,-0.94 2.08,-1.08 3.03,-0.34l4.52 3.7c-1.08,-7.56 -4.6,-14.34 -9.77,-19.43 -6.18,-6.23 -14.8,-10.12 -24.31,-10.12 -1.15,0 -2.28,0.11 -3.41,0.21l-0.05 0c-1.16,0.11 -2.32,0.26 -3.42,0.5 -7.48,1.52 -14.89,5.8 -19.57,11.85 -0.76,0.79 -1.37,1.65 -1.92,2.49l-0.11 0.11c-0.6,0.94 -1.15,1.78 -1.62,2.7l-0.13 0.19c-0.48,0.97 -1,1.97 -1.43,2.99l0 0zm37.42 -7.07l0 0c6.43,7.34 13.63,15.46 13.63,26.14 0,10.59 -8.75,19.36 -19.39,19.36 -5.28,0 -10.11,-2.2 -13.6,-5.64l-0.06 0c-3.47,-3.58 -5.7,-8.46 -5.7,-13.72 0,-10.74 7.23,-18.83 13.74,-26.21 0.92,-1.03 1.82,-2 2.84,-3.23 0.16,-0.21 0.29,-0.38 0.5,-0.5 1.47,-1.29 3.78,-1.13 5.04,0.44 1.16,1.29 2.05,2.31 3,3.36l0 0z"/>
 </g>
</svg>
