<?xml version="1.0" encoding="UTF-8"?>
<!DOCTYPE svg PUBLIC "-//W3C//DTD SVG 1.1//EN" "http://www.w3.org/Graphics/SVG/1.1/DTD/svg11.dtd">
<!-- Creator: CorelDRAW 2021 (64-Bit Оценочная версия) -->
<svg xmlns="http://www.w3.org/2000/svg" xml:space="preserve" width="100px" height="100px" version="1.1" style="shape-rendering:geometricPrecision; text-rendering:geometricPrecision; image-rendering:optimizeQuality; fill-rule:evenodd; clip-rule:evenodd"
viewBox="0 0 100 100"
 xmlns:xlink="http://www.w3.org/1999/xlink"
 xmlns:xodm="http://www.corel.com/coreldraw/odm/2003">
 <defs>
  <style type="text/css">
   <![CDATA[
    .fil0 {fill:deeppink;fill-rule:nonzero}
   ]]>
  </style>
 </defs>
 <g id="Слой_x0020_1">
  <metadata id="CorelCorpID_0Corel-Layer"/>
  <path class="fil0" d="M21.19 48.3l2.29 0 0 -13.21 -2.66 0c-1.56,0 -2.82,-1.28 -2.82,-2.82 0,-0.79 0.29,-1.44 0.78,-1.93l15.03 -17.36c1.03,-1.18 2.82,-1.32 4.02,-0.28 0.08,0.07 0.2,0.19 0.28,0.28l15.1 17.4c1.07,1.17 0.93,2.96 -0.25,4 -0.53,0.44 -1.21,0.71 -1.85,0.71l-2.67 0 0 13.21 6.94 0 0 -3.83 -2.68 0c-1.55,0 -2.85,-1.3 -2.85,-2.85 0,-0.78 0.34,-1.51 0.91,-2.01l14.95 -17.23c0.99,-1.17 2.82,-1.29 3.95,-0.28 0.11,0.09 0.23,0.17 0.31,0.26l15.12 17.39c1.03,1.21 0.92,3.02 -0.23,4.02 -0.57,0.49 -1.23,0.7 -1.89,0.7l-2.66 0 0 3.83 2.84 0c1.57,0 2.82,1.27 2.82,2.81l0 34.01c0,1.61 -1.25,2.88 -2.82,2.88l-16.91 0c-1.54,0 -2.84,-1.27 -2.84,-2.88l0 -12.43c0,-3.14 -1.27,-6.01 -3.35,-8.07 -4.43,-4.43 -11.7,-4.43 -16.14,0 -2.05,2.06 -3.34,4.93 -3.34,8.07l0 12.43c0,1.61 -1.28,2.88 -2.85,2.88l-16.53 0c-1.57,0 -2.82,-1.27 -2.82,-2.88l0 -34.01c0,-1.54 1.25,-2.81 2.82,-2.81l0 0zm37.64 -9.39l17.98 0 -8.98 -10.36 -9 10.36 0 0zm15.82 3.38l-13.64 0 0 8.28 13.64 0 0 -8.28zm-47.67 -12.81l17.98 0 -8.99 -10.32 -8.99 10.32 0 0zm15.79 3.41l-13.61 0 0 17.68 13.61 0 0 -17.68zm-18.72 21.1l0 28.35 10.83 0 0 -9.65c0,-4.71 1.94,-8.99 5.05,-12.07 6.63,-6.63 17.5,-6.63 24.13,0 3.09,3.08 5.03,7.36 5.03,12.07l0 9.65 11.22 0 0 -28.35c-18.76,0 -37.54,0 -56.26,0l0 0z"/>
 </g>
</svg>
