<?xml version="1.0" encoding="UTF-8"?>
<!DOCTYPE svg PUBLIC "-//W3C//DTD SVG 1.1//EN" "http://www.w3.org/Graphics/SVG/1.1/DTD/svg11.dtd">
<!-- Creator: CorelDRAW 2021 (64-Bit Оценочная версия) -->
<svg xmlns="http://www.w3.org/2000/svg" xml:space="preserve" width="500px" height="250px" version="1.1" style="shape-rendering:geometricPrecision; text-rendering:geometricPrecision; image-rendering:optimizeQuality; fill-rule:evenodd; clip-rule:evenodd"
viewBox="0 0 500 249.83"
 xmlns:xlink="http://www.w3.org/1999/xlink"
 xmlns:xodm="http://www.corel.com/coreldraw/odm/2003">
 <defs>
  <style type="text/css">
   <![CDATA[
    .fil1 {fill:#4E342E;fill-rule:nonzero}
    .fil0 {fill:#B3E5FC;fill-rule:nonzero}
    .fil7 {fill:#CFD8DC;fill-rule:nonzero}
    .fil4 {fill:#DDB687;fill-rule:nonzero}
    .fil2 {fill:whitesmoke;fill-rule:nonzero}
    .fil6 {fill:#FFAB91;fill-rule:nonzero}
    .fil3 {fill:#FFE0B2;fill-rule:nonzero}
    .fil5 {fill:white;fill-rule:nonzero}
   ]]>
  </style>
 </defs>
 <g id="Слой_x0020_1">
  <metadata id="CorelCorpID_0Corel-Layer"/>
  <path class="fil0" d="M155.43 46.53c6.89,0 12.48,-5.59 12.48,-12.49 0,-6.89 -5.59,-12.48 -12.48,-12.48 -6.9,0 -12.49,5.59 -12.49,12.48 0,6.9 5.59,12.49 12.49,12.49z"/>
  <path class="fil0" d="M88.69 121.75c0.18,-1.27 0.28,-2.57 0.28,-3.89 0,-0.86 -0.05,-1.72 -0.12,-2.57 5.23,2.21 10.99,3.44 17.03,3.44 10.54,0 20.21,-3.73 27.77,-9.93 2.96,3.26 6.56,5.93 10.61,7.79 -11.75,0.33 -22.58,4.36 -31.36,10.96 -7.21,-3.71 -15.38,-5.8 -24.04,-5.8 -0.06,0 -0.11,0 -0.17,0zm108.85 68.17c2.06,-5.77 3.19,-11.99 3.19,-18.46 0,-24.42 -15.95,-45.12 -38,-52.24 15.79,-2.33 27.91,-15.93 27.91,-32.37 0,-18.07 -14.65,-32.72 -32.72,-32.72 -4.34,0 -8.49,0.85 -12.28,2.39 -6.95,-15 -22.14,-25.41 -39.76,-25.41 -14.51,0 -27.37,7.06 -35.34,17.93 -2.88,-1.02 -5.97,-1.58 -9.19,-1.58 -15.16,0 -27.45,12.29 -27.45,27.45 0,8.74 4.08,16.52 10.45,21.55 -6.27,5.03 -10.28,12.75 -10.28,21.4 0,10.12 5.48,18.96 13.63,23.72 -7.19,9 -11.49,20.4 -11.49,32.82 0,29.07 23.57,52.65 52.65,52.65 10.6,0 20.46,-3.14 28.72,-8.52 8.25,4.96 17.92,7.82 28.26,7.82 15.3,0 29.13,-6.26 39.09,-16.36 2.29,2.77 5.75,4.54 9.63,4.54 6.89,0 12.48,-5.6 12.48,-12.49 0,-5.87 -4.04,-10.79 -9.5,-12.12z"/>
  <path class="fil0" d="M132.16 31.05c3.8,0 6.88,-3.08 6.88,-6.88 0,-3.71 -2.93,-6.73 -6.61,-6.88l-0.54 0c-3.68,0.15 -6.61,3.17 -6.61,6.88 0,3.8 3.08,6.88 6.88,6.88z"/>
  <path class="fil0" d="M203.21 203.24c-2.4,0 -4.34,1.94 -4.34,4.33 0,2.4 1.94,4.34 4.34,4.34 2.39,0 4.33,-1.94 4.33,-4.34 0,-2.39 -1.94,-4.33 -4.33,-4.33z"/>
  <path class="fil1" d="M189.94 218.22c0,6.52 -32.15,11.81 -71.82,11.81 -39.67,0 -71.82,-5.29 -71.82,-11.81 0,-6.53 32.15,-11.82 71.82,-11.82 39.67,0 71.82,5.29 71.82,11.82z"/>
  <path class="fil2" d="M151.49 180.14c0.58,2.74 0.76,5.55 0.54,8.38 -0.08,0.55 -0.14,1.1 -0.19,1.65 -0.42,2.79 -1.37,5.39 -2.85,7.74 -5.22,8.36 -16.71,13.35 -30.73,13.35 -0.03,0 -0.05,0 -0.07,0 -0.02,0 -0.05,0 -0.07,0 -14.02,0 -25.51,-4.99 -30.74,-13.35 -1.47,-2.35 -2.42,-4.95 -2.84,-7.74 -0.06,-0.55 -0.12,-1.1 -0.19,-1.65 -0.22,-2.83 -0.04,-5.64 0.53,-8.38 0.06,-0.29 0.13,-0.59 0.21,-0.92 0.03,-0.12 0.06,-0.24 0.09,-0.35 0.57,-0.09 1.13,-0.17 1.7,-0.25 6.44,-0.85 12.91,-1.39 19.4,-1.63 3.97,-0.15 7.94,-0.18 11.91,-0.1 3.97,-0.08 7.94,-0.05 11.91,0.1 6.48,0.24 12.96,0.78 19.4,1.63 0.56,0.08 1.13,0.16 1.7,0.25 0.03,0.11 0.06,0.23 0.09,0.35 0.08,0.33 0.14,0.63 0.2,0.92z"/>
  <path class="fil3" d="M99.36 115.4c1.92,0 3.48,-1.56 3.48,-3.48 0,-6.78 -5.52,-12.3 -12.3,-12.3 -4.86,0 -9.07,2.84 -11.06,6.93 -0.8,1.63 -1.24,3.45 -1.24,5.37 0,1.32 0.73,2.47 1.82,3.06 0.49,0.27 1.05,0.42 1.66,0.42 1.92,0 3.47,-1.56 3.47,-3.48 0,-2.94 2.4,-5.34 5.35,-5.34 2.94,0 5.34,2.4 5.34,5.34 0,1.92 1.56,3.48 3.48,3.48zm31.13 5.96c0,-1.92 -1.56,-3.48 -3.48,-3.48 -1.92,0 -3.48,1.56 -3.48,3.48 0,2.95 -2.4,5.35 -5.34,5.35 -2.95,0 -5.34,-2.4 -5.34,-5.35 0,-1.92 -1.56,-3.48 -3.48,-3.48 -1.92,0 -3.48,1.56 -3.48,3.48 0,6.79 5.52,12.3 12.3,12.3 6.78,0 12.3,-5.51 12.3,-12.3zm27.51 -9.44c0,-1.92 -0.44,-3.74 -1.23,-5.37 -2,-4.09 -6.21,-6.93 -11.07,-6.93 -6.78,0 -12.29,5.52 -12.29,12.3 0,1.92 1.55,3.48 3.47,3.48 1.92,0 3.48,-1.56 3.48,-3.48 0,-2.94 2.4,-5.34 5.34,-5.34 2.95,0 5.35,2.4 5.35,5.34 0,1.92 1.56,3.48 3.48,3.48 0.6,0 1.16,-0.15 1.65,-0.42 1.09,-0.59 1.82,-1.74 1.82,-3.06zm9.94 -13.82c0,0.35 -0.01,0.7 -0.01,1.04 -0.01,1.35 -0.05,2.67 -0.1,3.95 -0.28,5.89 -1.04,11.12 -2.31,15.74 -0.35,1.28 -0.74,2.51 -1.17,3.7 -0.42,1.16 -0.88,2.27 -1.37,3.34 -1.32,2.87 -2.92,5.43 -4.79,7.7 -7.96,9.65 -21.07,14.34 -40.07,14.34 -19,0 -32.11,-4.69 -40.07,-14.34 -1.87,-2.27 -3.46,-4.83 -4.79,-7.7 -0.49,-1.07 -0.95,-2.19 -1.37,-3.34 -0.43,-1.19 -0.82,-2.42 -1.17,-3.7 -1.27,-4.62 -2.03,-9.85 -2.3,-15.74 -0.06,-1.28 -0.1,-2.6 -0.11,-3.95 0,-0.34 -0.01,-0.69 -0.01,-1.04 0,-0.9 0.02,-1.78 0.05,-2.64 1.17,-33.66 24.77,-46.4 47.62,-47.15 2.08,0.03 4.59,0.94 6.73,2.46 2.41,1.71 4.06,3.99 4.42,6.1 0.71,4.16 -2.38,5.28 -3.74,5.57 -1.8,0.37 -4.89,0.05 -5.51,-2.42 -0.47,-1.87 -2.36,-3 -4.22,-2.53 -1.86,0.46 -3,2.35 -2.53,4.21 0.74,2.98 2.73,5.36 5.6,6.69 1.61,0.76 3.43,1.14 5.29,1.14 0.93,0 1.87,-0.09 2.8,-0.29 2.9,-0.61 5.42,-2.13 7.1,-4.3 1.36,-1.76 2.83,-4.79 2.07,-9.24 -0.36,-2.08 -1.26,-4.14 -2.62,-6.03 18.83,4.08 35.55,17.59 36.53,45.79 0.03,0.86 0.05,1.74 0.05,2.64zm-106.54 3.6c-4.94,0.78 -8.73,5.07 -8.73,10.22 0,5.71 4.65,10.35 10.35,10.35 0.49,0 0.96,-0.03 1.43,-0.1 -1.8,-5.93 -2.81,-12.73 -3.05,-20.47zm110.39 20.47c0.47,0.07 0.94,0.1 1.43,0.1 5.71,0 10.35,-4.64 10.35,-10.35 0,-5.15 -3.79,-9.44 -8.73,-10.22 -0.24,7.74 -1.24,14.54 -3.05,20.47zm-11.2 44.84c-1.69,-3.88 -3.83,-7.55 -6.4,-10.93 0,-0.01 -0.01,-0.02 -0.02,-0.02 -1.53,-1.94 -3.19,-3.76 -4.99,-5.46 -0.36,-0.34 -0.62,-0.76 -0.79,-1.23 -0.84,0.38 -1.69,0.74 -2.57,1.08 -7.63,2.93 -16.94,4.42 -27.7,4.42 -10.76,0 -20.07,-1.49 -27.7,-4.42 -0.83,-0.32 -1.65,-0.66 -2.46,-1.02 -0.16,0.44 -0.42,0.84 -0.77,1.17 -1.79,1.7 -3.45,3.52 -4.99,5.46 0,0 -0.01,0.01 -0.02,0.02 -2.56,3.38 -4.7,7.05 -6.39,10.93 -0.24,0.58 -0.46,1.16 -0.68,1.74 0.22,0.2 0.44,0.41 0.65,0.62 1.08,1.09 2.05,2.27 2.93,3.52 0.25,0.36 0.49,0.72 0.72,1.09 0.15,-0.43 0.32,-0.86 0.49,-1.29 0.28,-0.71 0.58,-1.41 0.91,-2.1 3.04,-6.42 6.99,-10.06 7.16,-10.21 1.42,-1.29 3.62,-1.18 4.91,0.24 1.29,1.42 1.19,3.61 -0.23,4.91 -0.07,0.06 -2.33,2.19 -4.48,5.97 0.21,-0.03 0.42,-0.05 0.63,-0.08 6.59,-0.81 13.21,-1.3 19.84,-1.46 3.18,-0.08 6.37,-0.09 9.55,-0.02 3.18,-0.07 6.37,-0.06 9.55,0.02 6.63,0.16 13.25,0.65 19.83,1.46 0.22,0.03 0.43,0.05 0.64,0.08 -2.15,-3.78 -4.42,-5.91 -4.48,-5.97 -1.42,-1.3 -1.52,-3.49 -0.23,-4.91 1.29,-1.42 3.49,-1.53 4.91,-0.24 0.17,0.15 4.12,3.79 7.16,10.21 0.32,0.69 0.63,1.39 0.91,2.1 0.17,0.43 0.33,0.86 0.49,1.29 0.23,-0.37 0.47,-0.73 0.72,-1.09 0.87,-1.25 1.85,-2.43 2.93,-3.52 0.21,-0.21 0.42,-0.42 0.64,-0.62 -0.21,-0.58 -0.44,-1.16 -0.67,-1.74zm3.38 12.33c0.01,0.12 0.03,0.24 0.05,0.37 -0.02,-0.17 -0.04,-0.34 -0.07,-0.51 0.01,0.05 0.01,0.09 0.02,0.14zm23.47 1.2c0.17,1.49 0.16,2.99 0,4.47 -0.37,2.38 -1.08,4.69 -1.98,6.91 0,0.01 -0.01,0.02 -0.01,0.03 -1.22,2.77 -2.74,5.39 -4.44,7.9 -0.02,0.03 -0.04,0.06 -0.06,0.09 -0.23,0.32 -0.46,0.65 -0.69,0.96 -0.02,0.02 -0.04,0.04 -0.05,0.06 -1.36,1.71 -2.88,3.3 -4.58,4.68 -0.01,0 -0.02,0.01 -0.02,0.01 -1.08,0.8 -2.22,1.5 -3.44,2.06 -0.87,0.34 -1.77,0.59 -2.69,0.75 -0.77,0.07 -1.54,0.07 -2.3,0 -0.82,-0.14 -1.62,-0.37 -2.4,-0.66 -0.68,-0.32 -1.33,-0.68 -1.94,-1.11 -0.58,-0.48 -1.1,-1.02 -1.58,-1.59 -0.56,-0.79 -1.04,-1.63 -1.45,-2.51 -0.51,-1.33 -0.86,-2.71 -1.07,-4.11 0,-0.01 0,-0.01 0,-0.02 -0.26,-2.31 -0.25,-4.65 -0.06,-6.97 0.11,-0.71 0.2,-1.42 0.26,-2.14 0.02,-0.21 0.03,-0.42 0.05,-0.63 0.41,-2.62 1.07,-5.2 2.07,-7.66 0.68,-1.54 1.49,-3.01 2.45,-4.39 0.12,-0.18 0.25,-0.36 0.38,-0.53l0 -0.01c1.04,-1.28 2.2,-2.46 3.49,-3.49 0.65,-0.48 1.32,-0.91 2.02,-1.31 0.51,-0.29 1.04,-0.56 1.58,-0.8 1.14,-0.45 2.33,-0.77 3.54,-0.97 1.06,-0.11 2.13,-0.12 3.2,-0.02 0.01,0.01 0.01,0.01 0.01,0.01 0.9,0.15 1.78,0.38 2.63,0.71 0.79,0.36 1.53,0.8 2.24,1.3 0,0.01 0,0.01 0.01,0.01 0.75,0.63 1.44,1.32 2.06,2.09 0,0 0,0 0,0 0.66,0.91 1.22,1.9 1.69,2.93 0.5,1.27 0.86,2.6 1.08,3.95zm-115.03 -1.2c0.01,-0.05 0.01,-0.09 0.02,-0.14 -0.03,0.17 -0.05,0.34 -0.07,0.51 0.02,-0.13 0.03,-0.25 0.05,-0.37zm5.29 12.15c0.19,2.32 0.2,4.66 -0.06,6.97 0,0.01 0,0.01 0,0.02 -0.22,1.4 -0.56,2.78 -1.07,4.11 -0.41,0.88 -0.89,1.72 -1.45,2.51 -0.48,0.57 -1.01,1.11 -1.58,1.59 -0.61,0.43 -1.26,0.79 -1.94,1.11 -0.78,0.29 -1.58,0.52 -2.4,0.66 -0.77,0.07 -1.53,0.07 -2.3,0 -0.92,-0.16 -1.82,-0.41 -2.69,-0.75 -1.22,-0.56 -2.36,-1.26 -3.44,-2.06 -0.01,0 -0.01,-0.01 -0.02,-0.01 -1.71,-1.38 -3.22,-2.97 -4.58,-4.68 -0.02,-0.02 -0.03,-0.04 -0.05,-0.06 -0.23,-0.31 -0.47,-0.64 -0.69,-0.96 -0.02,-0.03 -0.04,-0.06 -0.07,-0.09 -1.7,-2.51 -3.22,-5.13 -4.43,-7.9 -0.01,-0.01 -0.01,-0.02 -0.01,-0.03 -0.9,-2.22 -1.61,-4.53 -1.98,-6.91 -0.17,-1.48 -0.17,-2.98 0,-4.47 0.22,-1.35 0.57,-2.68 1.07,-3.95 0.47,-1.03 1.04,-2.02 1.7,-2.93 0,0 0,0 0,0 0.62,-0.77 1.31,-1.46 2.06,-2.09 0.01,0 0.01,0 0.01,-0.01 0.7,-0.5 1.45,-0.94 2.24,-1.3 0.85,-0.33 1.73,-0.56 2.62,-0.71 0.01,0 0.01,0 0.01,-0.01 1.07,-0.1 2.14,-0.09 3.21,0.02 1.21,0.2 2.39,0.52 3.54,0.97 0.54,0.24 1.06,0.51 1.58,0.8 0.7,0.4 1.37,0.83 2.02,1.31 1.29,1.03 2.45,2.21 3.48,3.49l0.01 0.01c0.13,0.17 0.25,0.35 0.38,0.53 0.96,1.38 1.77,2.85 2.45,4.39 0.99,2.46 1.66,5.04 2.07,7.66 0.02,0.21 0.03,0.42 0.05,0.63 0.06,0.72 0.15,1.43 0.26,2.14z"/>
  <path class="fil4" d="M92.38 151.11c7.27,2.5 15.96,3.76 25.88,3.76 10.75,0 20.07,-1.49 27.69,-4.42 0.84,-0.32 1.66,-0.66 2.46,-1.02 0.17,0.44 0.43,0.84 0.77,1.17 0.45,0.42 0.89,0.86 1.32,1.3 0,0 -25.29,11.25 -58.12,-0.79z"/>
  <path class="fil4" d="M181.9 109.28c0,5.38 -4.13,9.82 -9.39,10.3 -0.22,0.88 -0.46,1.75 -0.72,2.59 0.47,0.07 0.94,0.1 1.43,0.1 5.71,0 10.35,-4.64 10.35,-10.35 0,-2.58 -0.96,-4.95 -2.53,-6.76 0.55,1.26 0.86,2.66 0.86,4.12z"/>
  <path class="fil4" d="M166.22 92.82c0.03,0.86 0.05,1.74 0.05,2.63 0,0.36 0,0.7 -0.01,1.05 -0.01,1.35 -0.04,2.67 -0.1,3.95 -0.27,5.89 -1.04,11.12 -2.31,15.74 -0.35,1.28 -0.74,2.51 -1.17,3.7 -0.42,1.15 -0.87,2.27 -1.37,3.34 -1.32,2.87 -2.92,5.43 -4.78,7.7 -7.96,9.65 -21.07,14.34 -40.08,14.34 -19,0 -32.11,-4.69 -40.07,-14.34 -0.57,-0.69 -1.11,-1.41 -1.62,-2.16 0.98,1.73 2.08,3.33 3.29,4.8 7.96,9.65 21.07,14.34 40.07,14.34 19,0 32.11,-4.69 40.07,-14.34 1.87,-2.27 3.47,-4.83 4.79,-7.7 0.49,-1.07 0.95,-2.18 1.37,-3.34 0.43,-1.19 0.82,-2.42 1.17,-3.7 1.27,-4.62 2.03,-9.85 2.31,-15.74 0.05,-1.28 0.09,-2.6 0.1,-3.95 0,-0.34 0.01,-0.69 0.01,-1.04 0,-0.9 -0.02,-1.78 -0.05,-2.64 -0.4,-11.62 -3.48,-20.73 -8.27,-27.73 3.83,6.6 6.25,14.88 6.6,25.09z"/>
  <path class="fil4" d="M70.76 176.56c-0.03,0.17 -0.05,0.34 -0.07,0.51 0.02,-0.13 0.04,-0.25 0.05,-0.37 0.01,-0.05 0.01,-0.1 0.02,-0.14z"/>
  <path class="fil4" d="M187.44 180.54c-0.22,-1.35 -0.58,-2.68 -1.08,-3.95 -0.47,-1.03 -1.03,-2.02 -1.69,-2.93 0,0 0,0 0,0 -0.08,-0.11 -0.17,-0.21 -0.26,-0.31 0.1,0.2 0.19,0.39 0.29,0.6 0.5,1.27 0.85,2.6 1.07,3.95 0.17,1.49 0.17,2.99 0.01,4.47 -0.38,2.37 -1.09,4.69 -1.99,6.91 0,0.01 0,0.02 -0.01,0.03 -1.21,2.77 -2.73,5.39 -4.43,7.89 -0.03,0.04 -0.05,0.07 -0.07,0.1 -0.22,0.32 -0.46,0.64 -0.69,0.96 -0.02,0.02 -0.03,0.04 -0.05,0.06 -1.36,1.71 -2.87,3.3 -4.58,4.68 -0.01,0 -0.01,0.01 -0.02,0.01 -1.08,0.8 -2.22,1.5 -3.44,2.06 -0.87,0.33 -1.77,0.59 -2.69,0.75 -0.77,0.07 -1.53,0.07 -2.3,0 -0.82,-0.15 -1.62,-0.37 -2.4,-0.67 -0.68,-0.31 -1.33,-0.67 -1.94,-1.1 -0.44,-0.37 -0.85,-0.78 -1.23,-1.2 0.38,0.78 0.81,1.54 1.32,2.25 0.48,0.57 1,1.11 1.58,1.59 0.61,0.43 1.26,0.79 1.94,1.11 0.78,0.29 1.58,0.52 2.4,0.66 0.76,0.07 1.53,0.07 2.3,0 0.92,-0.16 1.82,-0.41 2.69,-0.75 1.22,-0.56 2.36,-1.26 3.44,-2.06 0,0 0.01,-0.01 0.02,-0.01 1.7,-1.38 3.22,-2.97 4.58,-4.68 0.01,-0.02 0.03,-0.04 0.05,-0.06 0.23,-0.31 0.46,-0.64 0.69,-0.96 0.02,-0.03 0.04,-0.06 0.06,-0.09 1.7,-2.51 3.22,-5.13 4.44,-7.9 0,-0.01 0.01,-0.02 0.01,-0.03 0.9,-2.22 1.61,-4.53 1.98,-6.91 0.16,-1.48 0.17,-2.98 0,-4.47z"/>
  <path class="fil4" d="M77.44 189.35c-0.02,-0.21 -0.03,-0.42 -0.05,-0.63 -0.41,-2.62 -1.08,-5.2 -2.07,-7.66 -0.68,-1.54 -1.49,-3.01 -2.45,-4.39 -0.09,-0.12 -0.17,-0.24 -0.26,-0.36 0.38,0.69 0.72,1.39 1.04,2.11 1,2.46 1.66,5.04 2.07,7.66 0.02,0.21 0.03,0.42 0.05,0.63 0.06,0.72 0.15,1.43 0.26,2.14 0.19,2.32 0.2,4.66 -0.06,6.97 0,0 0,0.01 0,0.01 -0.21,1.41 -0.56,2.79 -1.07,4.11 -0.41,0.88 -0.89,1.73 -1.45,2.51 -0.48,0.58 -1,1.11 -1.58,1.6 -0.61,0.43 -1.26,0.79 -1.94,1.1 -0.78,0.3 -1.58,0.52 -2.4,0.67 -0.76,0.07 -1.53,0.07 -2.3,0 -0.92,-0.16 -1.82,-0.42 -2.69,-0.75 -1.22,-0.56 -2.36,-1.26 -3.44,-2.06 0,0 -0.01,-0.01 -0.02,-0.01 -1.7,-1.38 -3.22,-2.97 -4.58,-4.68 -0.02,-0.02 -0.03,-0.04 -0.05,-0.06 -0.23,-0.32 -0.46,-0.64 -0.69,-0.96 -0.02,-0.03 -0.04,-0.06 -0.06,-0.1 -0.09,-0.12 -0.17,-0.25 -0.26,-0.38 0.61,1.03 1.25,2.04 1.92,3.03 0.03,0.03 0.05,0.06 0.07,0.09 0.22,0.32 0.46,0.65 0.69,0.96 0.02,0.02 0.03,0.04 0.05,0.06 1.36,1.71 2.87,3.3 4.58,4.68 0.01,0 0.01,0.01 0.02,0.01 1.08,0.8 2.22,1.5 3.44,2.06 0.87,0.34 1.77,0.59 2.69,0.75 0.77,0.07 1.53,0.07 2.3,0 0.82,-0.14 1.62,-0.37 2.4,-0.66 0.68,-0.32 1.33,-0.68 1.94,-1.11 0.57,-0.48 1.1,-1.02 1.58,-1.59 0.56,-0.79 1.04,-1.63 1.45,-2.51 0.51,-1.33 0.85,-2.71 1.07,-4.11 0,-0.01 0,-0.01 0,-0.02 0.26,-2.31 0.25,-4.65 0.06,-6.97 -0.11,-0.71 -0.2,-1.42 -0.26,-2.14z"/>
  <path class="fil5" d="M166.42 182.54c0.01,0.04 0.01,0.09 0.02,0.13 0.01,0.13 0.03,0.25 0.05,0.37 -0.02,-0.17 -0.05,-0.34 -0.07,-0.5z"/>
  <path class="fil5" d="M74.88 182.67c0.01,-0.04 0.01,-0.09 0.02,-0.13 -0.03,0.16 -0.05,0.33 -0.07,0.5 0.02,-0.12 0.03,-0.24 0.05,-0.37z"/>
  <path class="fil5" d="M152.97 165.96c0.87,1.33 1.77,2.87 2.6,4.63 0.32,0.69 0.63,1.39 0.91,2.1 0.17,0.43 0.33,0.86 0.49,1.29 0.2,-0.32 0.41,-0.64 0.63,-0.95 -1.57,-3.1 -3.31,-5.49 -4.63,-7.07z"/>
  <path class="fil5" d="M164.02 179.71c-0.02,-0.13 -0.04,-0.25 -0.05,-0.37 -0.01,-0.05 -0.01,-0.09 -0.02,-0.14 0.03,0.17 0.05,0.34 0.07,0.51zm-1.74 26.21c-0.51,-1.32 -0.86,-2.71 -1.07,-4.11 0,-0.01 -0.01,-0.01 -0.01,-0.02 -0.25,-2.3 -0.24,-4.65 -0.05,-6.97 0.11,-0.7 0.2,-1.41 0.26,-2.14 0.02,-0.2 0.03,-0.41 0.05,-0.62 0.41,-2.63 1.07,-5.2 2.07,-7.67 0.68,-1.53 1.49,-3.01 2.45,-4.38 0.12,-0.18 0.25,-0.36 0.38,-0.54l0 0c1.04,-1.29 2.2,-2.46 3.49,-3.5 0.64,-0.47 1.32,-0.91 2.02,-1.31 0.51,-0.29 1.04,-0.56 1.58,-0.8 1.14,-0.44 2.32,-0.77 3.54,-0.97 1.06,-0.11 2.13,-0.12 3.2,-0.01 0.01,0 0.01,0 0.01,0 0.9,0.15 1.78,0.39 2.63,0.71 0.79,0.37 1.53,0.8 2.23,1.31 0.01,0 0.01,0 0.02,0.01 0.28,0.23 0.55,0.48 0.82,0.73 -0.37,-0.69 -0.77,-1.35 -1.23,-1.98 0,0 0,0 0,0 -0.62,-0.77 -1.31,-1.46 -2.06,-2.09 -0.01,0 -0.01,0 -0.01,-0.01 -0.71,-0.5 -1.45,-0.94 -2.24,-1.3 -0.85,-0.33 -1.73,-0.56 -2.63,-0.71 0,0 0,0 -0.01,-0.01 -1.07,-0.1 -2.14,-0.09 -3.2,0.02 -1.21,0.2 -2.4,0.52 -3.54,0.97 -0.54,0.24 -1.07,0.51 -1.58,0.8 -0.7,0.4 -1.37,0.83 -2.02,1.31 -1.29,1.03 -2.45,2.21 -3.49,3.49l0 0.01c-0.13,0.17 -0.26,0.35 -0.38,0.53 -0.96,1.38 -1.77,2.85 -2.45,4.39 -1,2.46 -1.66,5.04 -2.07,7.66 -0.02,0.21 -0.03,0.42 -0.05,0.63 -0.06,0.72 -0.15,1.43 -0.26,2.14 -0.19,2.32 -0.2,4.66 0.06,6.97 0,0.01 0,0.01 0,0.02 0.21,1.4 0.56,2.78 1.07,4.11 0.41,0.88 0.89,1.72 1.45,2.51 0.39,0.46 0.81,0.9 1.26,1.3 -0.09,-0.16 -0.17,-0.32 -0.24,-0.48z"/>
  <path class="fil5" d="M53.4 195.28c-0.01,-0.01 -0.01,-0.02 -0.01,-0.03 -0.91,-2.22 -1.61,-4.53 -1.99,-6.9 -0.16,-1.49 -0.16,-2.99 0.01,-4.48 0.22,-1.35 0.57,-2.67 1.07,-3.95 0.47,-1.03 1.04,-2.01 1.7,-2.93 0,0 0,0 0,0 0.62,-0.76 1.3,-1.46 2.06,-2.08 0,-0.01 0.01,-0.01 0.01,-0.01 0.7,-0.51 1.45,-0.94 2.23,-1.31 0.85,-0.32 1.73,-0.56 2.63,-0.71 0.01,0 0.01,0 0.01,0 1.07,-0.11 2.14,-0.1 3.21,0.01 1.21,0.2 2.39,0.53 3.54,0.97 0.54,0.24 1.06,0.51 1.58,0.8 0.7,0.4 1.37,0.84 2.02,1.31 0.84,0.68 1.63,1.42 2.37,2.21 -0.31,-0.51 -0.63,-1.02 -0.97,-1.51 -0.13,-0.18 -0.25,-0.36 -0.38,-0.53l-0.01 -0.01c-1.03,-1.28 -2.19,-2.46 -3.48,-3.49 -0.65,-0.48 -1.32,-0.91 -2.02,-1.31 -0.52,-0.29 -1.04,-0.56 -1.58,-0.8 -1.15,-0.45 -2.33,-0.77 -3.54,-0.97 -1.07,-0.11 -2.14,-0.12 -3.21,-0.02 0,0.01 0,0.01 -0.01,0.01 -0.89,0.15 -1.77,0.38 -2.62,0.71 -0.79,0.36 -1.54,0.8 -2.24,1.3 0,0.01 0,0.01 -0.01,0.01 -0.75,0.63 -1.44,1.32 -2.06,2.09 0,0 0,0 0,0 -0.66,0.91 -1.23,1.9 -1.7,2.93 -0.5,1.27 -0.85,2.6 -1.07,3.95 -0.17,1.49 -0.17,2.99 0,4.47 0.37,2.38 1.08,4.69 1.98,6.91 0,0.01 0,0.02 0.01,0.03 1.21,2.77 2.73,5.39 4.43,7.9 0.03,0.03 0.05,0.06 0.07,0.09 0.22,0.32 0.46,0.65 0.69,0.96 0.02,0.02 0.03,0.04 0.05,0.06 0.31,0.39 0.63,0.78 0.96,1.16 -1.42,-2.18 -2.69,-4.45 -3.73,-6.84z"/>
  <path class="fil5" d="M56.11 119.62c-0.62,-1.33 -0.97,-2.81 -0.97,-4.36 0,-4.33 2.68,-8.05 6.46,-9.59 -0.09,-1.3 -0.16,-2.62 -0.2,-3.97 -4.94,0.78 -8.73,5.07 -8.73,10.22 0,3.05 1.33,5.8 3.44,7.7z"/>
  <path class="fil1" d="M63.02 122.27c0.49,0 0.96,-0.03 1.43,-0.1 -1.8,-5.93 -2.81,-12.73 -3.05,-20.47 -4.94,0.78 -8.73,5.07 -8.73,10.22 0,5.71 4.65,10.35 10.35,10.35zm14.62 76.19c0.26,-2.31 0.25,-4.65 0.06,-6.97 -0.11,-0.71 -0.2,-1.42 -0.26,-2.14 -0.02,-0.21 -0.03,-0.42 -0.05,-0.63 -0.41,-2.62 -1.08,-5.2 -2.07,-7.66 -0.68,-1.54 -1.49,-3.01 -2.45,-4.39 -0.13,-0.18 -0.25,-0.36 -0.38,-0.53l-0.01 -0.01c-1.03,-1.28 -2.19,-2.46 -3.48,-3.49 -0.65,-0.48 -1.32,-0.91 -2.02,-1.31 -0.52,-0.29 -1.04,-0.56 -1.58,-0.8 -1.15,-0.45 -2.33,-0.77 -3.54,-0.97 -1.07,-0.11 -2.14,-0.12 -3.21,-0.02 0,0.01 0,0.01 -0.01,0.01 -0.89,0.15 -1.77,0.38 -2.62,0.71 -0.79,0.36 -1.54,0.8 -2.24,1.3 0,0.01 0,0.01 -0.01,0.01 -0.75,0.63 -1.44,1.32 -2.06,2.09 0,0 0,0 0,0 -0.66,0.91 -1.23,1.9 -1.7,2.93 -0.5,1.27 -0.85,2.6 -1.07,3.95 -0.17,1.49 -0.17,2.99 0,4.47 0.37,2.38 1.08,4.69 1.98,6.91 0,0.01 0,0.02 0.01,0.03 1.21,2.77 2.73,5.39 4.43,7.9 0.03,0.03 0.05,0.06 0.07,0.09 0.22,0.32 0.46,0.65 0.69,0.96 0.02,0.02 0.03,0.04 0.05,0.06 1.36,1.71 2.87,3.3 4.58,4.68 0.01,0 0.01,0.01 0.02,0.01 1.08,0.8 2.22,1.5 3.44,2.06 0.87,0.34 1.77,0.59 2.69,0.75 0.77,0.07 1.53,0.07 2.3,0 0.82,-0.14 1.62,-0.37 2.4,-0.66 0.68,-0.32 1.33,-0.68 1.94,-1.11 0.57,-0.48 1.1,-1.02 1.58,-1.59 0.56,-0.79 1.04,-1.63 1.45,-2.51 0.51,-1.33 0.85,-2.71 1.07,-4.11 0,-0.01 0,-0.01 0,-0.02zm74.39 -9.94c0.22,-2.83 0.04,-5.64 -0.54,-8.38 -0.06,-0.29 -0.12,-0.59 -0.2,-0.92 -0.03,-0.12 -0.06,-0.24 -0.09,-0.35 -0.57,-0.09 -1.14,-0.17 -1.7,-0.25 -6.44,-0.85 -12.92,-1.39 -19.4,-1.63 -3.97,-0.15 -7.94,-0.18 -11.91,-0.1 -3.97,-0.08 -7.94,-0.05 -11.91,0.1 -6.49,0.24 -12.96,0.78 -19.4,1.63 -0.57,0.08 -1.13,0.16 -1.7,0.25 -0.03,0.11 -0.06,0.23 -0.09,0.35 -0.08,0.33 -0.15,0.63 -0.21,0.92 -0.57,2.74 -0.75,5.55 -0.53,8.38 0.07,0.55 0.13,1.1 0.19,1.65 0.42,2.79 1.37,5.39 2.84,7.74 5.23,8.36 16.72,13.35 30.74,13.35 0.02,0 0.05,0 0.07,0 0.02,0 0.04,0 0.07,0 14.02,0 25.51,-4.99 30.73,-13.35 1.48,-2.35 2.43,-4.95 2.85,-7.74 0.05,-0.55 0.11,-1.1 0.19,-1.65zm8.59 -19.15c0.21,-0.21 0.42,-0.42 0.64,-0.62 -0.21,-0.58 -0.44,-1.16 -0.67,-1.74 -1.69,-3.88 -3.83,-7.55 -6.4,-10.93 0,-0.01 -0.01,-0.02 -0.02,-0.02 -1.53,-1.94 -3.19,-3.76 -4.99,-5.46 -0.36,-0.34 -0.62,-0.76 -0.79,-1.23 -0.84,0.38 -1.69,0.74 -2.57,1.08 -7.63,2.93 -16.94,4.42 -27.7,4.42 -10.76,0 -20.07,-1.49 -27.7,-4.42 -0.83,-0.32 -1.65,-0.66 -2.46,-1.02 -0.16,0.44 -0.42,0.84 -0.77,1.17 -1.79,1.7 -3.45,3.52 -4.99,5.46 0,0 -0.01,0.01 -0.02,0.02 -2.56,3.38 -4.7,7.05 -6.39,10.93 -0.24,0.58 -0.46,1.16 -0.68,1.74 0.22,0.2 0.44,0.41 0.65,0.62 1.08,1.09 2.05,2.27 2.93,3.52 0.25,0.36 0.49,0.72 0.72,1.09 0.15,-0.43 0.32,-0.86 0.49,-1.29 0.28,-0.71 0.58,-1.41 0.91,-2.1 3.04,-6.42 6.99,-10.06 7.16,-10.21 1.42,-1.29 3.62,-1.18 4.91,0.24 1.29,1.42 1.19,3.61 -0.23,4.91 -0.07,0.06 -2.33,2.19 -4.48,5.97 0.21,-0.03 0.42,-0.05 0.63,-0.08 6.59,-0.81 13.21,-1.3 19.84,-1.46 3.18,-0.08 6.37,-0.09 9.55,-0.02 3.18,-0.07 6.37,-0.06 9.55,0.02 6.63,0.16 13.25,0.65 19.83,1.46 0.22,0.03 0.43,0.05 0.64,0.08 -2.15,-3.78 -4.42,-5.91 -4.48,-5.97 -1.42,-1.3 -1.52,-3.49 -0.23,-4.91 1.29,-1.42 3.49,-1.53 4.91,-0.24 0.17,0.15 4.12,3.79 7.16,10.21 0.32,0.69 0.63,1.39 0.91,2.1 0.17,0.43 0.33,0.86 0.49,1.29 0.23,-0.37 0.47,-0.73 0.72,-1.09 0.87,-1.25 1.85,-2.43 2.93,-3.52zm7.31 -70.23c0,-0.34 0.01,-0.69 0.01,-1.04 0,-0.9 -0.02,-1.78 -0.05,-2.64 -0.98,-28.2 -17.7,-41.71 -36.53,-45.79 1.36,1.89 2.26,3.95 2.62,6.03 0.76,4.45 -0.71,7.48 -2.07,9.24 -1.68,2.17 -4.2,3.69 -7.1,4.3 -0.93,0.2 -1.87,0.29 -2.8,0.29 -1.86,0 -3.68,-0.38 -5.29,-1.14 -2.87,-1.33 -4.86,-3.71 -5.6,-6.69 -0.47,-1.86 0.67,-3.75 2.53,-4.21 1.86,-0.47 3.75,0.66 4.22,2.53 0.62,2.47 3.71,2.79 5.51,2.42 1.36,-0.29 4.45,-1.41 3.74,-5.57 -0.36,-2.11 -2.01,-4.39 -4.42,-6.1 -4.29,-3.05 -9.33,-2.52 -14.25,-1.77 -4.01,0.62 -7.97,1.64 -11.76,3.12 -3.79,1.48 -7.39,3.42 -10.66,5.84 -3.36,2.49 -6.33,5.49 -8.78,8.87 -2.69,3.71 -4.73,7.85 -6.15,12.19 -1.67,5.11 -2.49,10.46 -2.73,15.82 0,0.2 -0.01,0.41 -0.02,0.62 -0.03,0.86 -0.05,1.74 -0.05,2.64 0,0.35 0.01,0.7 0.01,1.04 0.01,1.35 0.05,2.67 0.11,3.95 0.27,5.89 1.03,11.12 2.3,15.74 0.35,1.28 0.74,2.51 1.17,3.7 0.42,1.15 0.88,2.27 1.37,3.34 1.33,2.87 2.92,5.43 4.79,7.7 7.96,9.65 21.07,14.34 40.07,14.34 19,0 32.11,-4.69 40.07,-14.34 1.87,-2.27 3.47,-4.83 4.79,-7.7 0.49,-1.07 0.95,-2.18 1.37,-3.34 0.43,-1.19 0.82,-2.42 1.17,-3.7 1.27,-4.62 2.03,-9.85 2.31,-15.74 0.05,-1.28 0.09,-2.6 0.1,-3.95zm15.64 12.78c0,-5.15 -3.79,-9.44 -8.73,-10.22 -0.24,7.74 -1.24,14.54 -3.05,20.47 0.47,0.07 0.94,0.1 1.43,0.1 5.71,0 10.35,-4.64 10.35,-10.35zm3.87 73.09c0.16,-1.48 0.17,-2.98 0,-4.47 -0.22,-1.35 -0.58,-2.68 -1.08,-3.95 -0.47,-1.03 -1.03,-2.02 -1.69,-2.93 0,0 0,0 0,0 -0.62,-0.77 -1.31,-1.46 -2.06,-2.09 -0.01,0 -0.01,0 -0.01,-0.01 -0.71,-0.5 -1.45,-0.94 -2.24,-1.3 -0.85,-0.33 -1.73,-0.56 -2.63,-0.71 0,0 0,0 -0.01,-0.01 -1.07,-0.1 -2.14,-0.09 -3.2,0.02 -1.21,0.2 -2.4,0.52 -3.54,0.97 -0.54,0.24 -1.07,0.51 -1.58,0.8 -0.7,0.4 -1.37,0.83 -2.02,1.31 -1.29,1.03 -2.45,2.21 -3.49,3.49l0 0.01c-0.13,0.17 -0.26,0.35 -0.38,0.53 -0.96,1.38 -1.77,2.85 -2.45,4.39 -1,2.46 -1.66,5.04 -2.07,7.66 -0.02,0.21 -0.03,0.42 -0.05,0.63 -0.06,0.72 -0.15,1.43 -0.26,2.14 -0.19,2.32 -0.2,4.66 0.06,6.97 0,0.01 0,0.01 0,0.02 0.21,1.4 0.56,2.78 1.07,4.11 0.41,0.88 0.89,1.72 1.45,2.51 0.48,0.57 1,1.11 1.58,1.59 0.61,0.43 1.26,0.79 1.94,1.11 0.78,0.29 1.58,0.52 2.4,0.66 0.76,0.07 1.53,0.07 2.3,0 0.92,-0.16 1.82,-0.41 2.69,-0.75 1.22,-0.56 2.36,-1.26 3.44,-2.06 0,0 0.01,-0.01 0.02,-0.01 1.7,-1.38 3.22,-2.97 4.58,-4.68 0.01,-0.02 0.03,-0.04 0.05,-0.06 0.23,-0.31 0.46,-0.64 0.69,-0.96 0.02,-0.03 0.04,-0.06 0.06,-0.09 1.7,-2.51 3.22,-5.13 4.44,-7.9 0,-0.01 0.01,-0.02 0.01,-0.03 0.9,-2.22 1.61,-4.53 1.98,-6.91zm6.19 -8.63c1.29,4.44 1.06,9.11 -0.15,13.53 -1.11,4.06 -2.98,7.87 -5.19,11.44 -2.15,3.45 -4.58,6.69 -7.75,9.28 -1.22,0.99 -2.53,1.88 -3.92,2.62 -2.37,1.27 -4.91,2.05 -7.59,2.21 -2.05,0.11 -4.07,-0.24 -5.99,-0.92 -0.01,-0.01 -0.06,-0.03 -0.15,-0.06 -0.04,-0.01 -0.07,-0.03 -0.12,-0.04 -0.04,-0.01 -0.08,-0.03 -0.11,-0.05 -0.11,-0.04 -0.22,-0.08 -0.33,-0.12 -0.02,-0.01 -0.03,-0.01 -0.05,-0.02 -2.03,-0.79 -7.77,-3.19 -12.47,-6.59 -7.38,6.71 -18.61,10.56 -31.55,10.56 -0.03,0 -0.05,0 -0.07,-0.01 -0.02,0.01 -0.05,0.01 -0.07,0.01 -12.94,0 -24.18,-3.85 -31.55,-10.56 -4.71,3.4 -10.44,5.8 -12.48,6.59 -0.01,0.01 -0.03,0.01 -0.04,0.02 -0.11,0.04 -0.22,0.08 -0.33,0.12 -0.04,0.02 -0.07,0.04 -0.11,0.05 -0.05,0.01 -0.09,0.03 -0.12,0.04 -0.09,0.03 -0.14,0.05 -0.16,0.06 -1.91,0.68 -3.94,1.03 -5.98,0.92 -2.68,-0.16 -5.22,-0.94 -7.59,-2.21 -2.18,-1.16 -4.18,-2.75 -5.94,-4.49 -0.16,-0.16 -0.32,-0.32 -0.47,-0.48 -0.55,-0.31 -0.94,-0.76 -1.36,-1.3 -0.74,-0.96 -1.46,-1.93 -2.15,-2.93 -0.08,-0.1 -0.15,-0.21 -0.22,-0.31 -0.04,-0.06 -0.08,-0.12 -0.12,-0.17 -0.14,-0.2 -0.28,-0.4 -0.41,-0.6 -0.03,-0.05 -0.06,-0.09 -0.09,-0.14 0,0 0,-0.01 -0.01,-0.01 -2.63,-3.97 -4.84,-8.3 -6.1,-12.91 -1.21,-4.42 -1.43,-9.09 -0.15,-13.53 0.57,-1.97 1.42,-3.93 2.55,-5.65 1.27,-1.93 2.79,-3.51 4.62,-4.91 3.37,-2.56 7.86,-3.67 12.05,-3.21 1.35,0.15 2.69,0.36 3.99,0.76 1.13,0.34 2.24,0.79 3.31,1.3 1.05,-2.55 2.3,-5.03 3.72,-7.38 2.44,-4.08 5.44,-7.87 8.85,-11.18 -3.5,-2.27 -6.56,-4.98 -9.15,-8.12 -2.25,-2.73 -4.16,-5.79 -5.74,-9.21 -1.26,0.29 -2.57,0.45 -3.92,0.45 -9.54,0 -17.3,-7.76 -17.3,-17.31 0,-9 6.91,-16.42 15.7,-17.23 0.7,-16.15 6.43,-29.59 16.67,-39.05 5.1,-4.7 11.21,-8.33 18.15,-10.76 5.76,-2.02 11.98,-3.18 18.54,-3.48 0.38,-0.03 0.76,-0.03 1.14,-0.03 0.01,0 0.02,0 0.02,0 0.72,0 1.45,-0.04 2.18,-0.04 7.79,0 15.16,1.19 21.88,3.55 6.94,2.43 13.05,6.05 18.15,10.76 10.24,9.45 15.97,22.9 16.67,39.05 8.79,0.81 15.7,8.23 15.7,17.23 0,9.55 -7.76,17.31 -17.3,17.31 -1.35,0 -2.66,-0.16 -3.92,-0.45 -1.58,3.42 -3.49,6.48 -5.74,9.21 -2.56,3.11 -5.6,5.81 -9.07,8.07 3.44,3.32 6.45,7.13 8.91,11.23 1.42,2.35 2.66,4.83 3.72,7.38 1.07,-0.51 2.18,-0.96 3.31,-1.3 1.3,-0.4 2.64,-0.61 3.99,-0.76 4.18,-0.46 8.68,0.65 12.04,3.21 1.83,1.4 3.35,2.98 4.62,4.91 1.14,1.72 1.98,3.68 2.55,5.65z"/>
  <path class="fil1" d="M164.02 179.71c-0.02,-0.13 -0.04,-0.25 -0.05,-0.37 -0.01,-0.05 -0.01,-0.09 -0.02,-0.14 0.03,0.17 0.05,0.34 0.07,0.51z"/>
  <path class="fil1" d="M156.77 106.55c0.79,1.63 1.23,3.45 1.23,5.37 0,1.32 -0.73,2.47 -1.82,3.06 -0.49,0.27 -1.05,0.42 -1.65,0.42 -1.92,0 -3.48,-1.56 -3.48,-3.48 0,-2.94 -2.4,-5.34 -5.35,-5.34 -2.94,0 -5.34,2.4 -5.34,5.34 0,1.92 -1.56,3.48 -3.48,3.48 -1.92,0 -3.47,-1.56 -3.47,-3.48 0,-6.78 5.51,-12.3 12.29,-12.3 4.86,0 9.07,2.84 11.07,6.93z"/>
  <path class="fil1" d="M127.01 117.88c1.92,0 3.48,1.56 3.48,3.48 0,6.79 -5.52,12.3 -12.3,12.3 -6.78,0 -12.3,-5.51 -12.3,-12.3 0,-1.92 1.56,-3.48 3.48,-3.48 1.92,0 3.48,1.56 3.48,3.48 0,2.95 2.39,5.35 5.34,5.35 2.94,0 5.34,-2.4 5.34,-5.35 0,-1.92 1.56,-3.48 3.48,-3.48z"/>
  <path class="fil1" d="M102.84 111.92c0,1.92 -1.56,3.48 -3.48,3.48 -1.92,0 -3.48,-1.56 -3.48,-3.48 0,-2.94 -2.4,-5.34 -5.34,-5.34 -2.95,0 -5.35,2.4 -5.35,5.34 0,1.92 -1.55,3.48 -3.47,3.48 -0.61,0 -1.17,-0.15 -1.66,-0.42 -1.09,-0.59 -1.82,-1.74 -1.82,-3.06 0,-1.92 0.44,-3.74 1.24,-5.37 1.99,-4.09 6.2,-6.93 11.06,-6.93 6.78,0 12.3,5.52 12.3,12.3z"/>
  <path class="fil1" d="M72.43 179.2c-0.01,0.05 -0.01,0.09 -0.02,0.14 -0.02,0.12 -0.03,0.24 -0.05,0.37 0.02,-0.17 0.04,-0.34 0.07,-0.51z"/>
  <path class="fil5" d="M105.53 53.43l0 -0.01c0,0 3.67,-1.09 9.54,-1.57 1.13,-0.1 2.25,-0.17 3.37,-0.2 0.04,0 0.09,0 0.13,0 1.66,-0.04 3.44,-0.03 5.32,0.06 -0.38,-0.33 -0.77,-0.64 -1.19,-0.94 -2.14,-1.52 -4.65,-2.43 -6.73,-2.46 -22.85,0.75 -46.45,13.49 -47.62,47.15 -0.03,0.86 -0.05,1.74 -0.05,2.64 0,0.35 0.01,0.7 0.01,1.04 0.01,1.35 0.05,2.67 0.11,3.95 0.27,5.89 1.03,11.12 2.3,15.74 0.35,1.28 0.74,2.51 1.17,3.7 0.42,1.15 0.88,2.27 1.37,3.34 1.33,2.87 2.92,5.43 4.79,7.7 0.08,0.09 0.16,0.18 0.24,0.28 -0.94,-1.45 -1.8,-3 -2.56,-4.65 -0.49,-1.07 -0.95,-2.18 -1.37,-3.34 -0.43,-1.18 -0.82,-2.42 -1.17,-3.7 -1.27,-4.61 -2.03,-9.85 -2.3,-15.73 -0.06,-1.29 -0.1,-2.6 -0.11,-3.95 0,-0.35 -0.01,-0.7 -0.01,-1.05 0,-0.89 0.02,-1.77 0.05,-2.64 0.95,-27.28 16.63,-40.82 34.71,-45.36z"/>
  <path class="fil5" d="M131.36 49.67c0.73,1.01 1.32,2.07 1.78,3.16l0.69 0.17c9.96,2.16 19.33,6.96 26.1,15.17 -6.84,-10.27 -17.33,-16.07 -28.57,-18.5z"/>
  <path class="fil4" d="M92.08 159.84c-0.07,0 -0.14,0.01 -0.22,0.01 0,0 -0.19,-0.11 -0.55,-0.26 -3.15,-1.32 -6.78,-0.23 -8.76,2.55 -1.11,1.55 -2.32,3.5 -3.41,5.8 -0.32,0.7 -0.63,1.4 -0.91,2.11 -0.16,0.4 -0.31,0.8 -0.46,1.2l0 0.09 -0.08 0.2c0.34,0.44 0.68,0.89 1,1.35 0.25,0.36 0.49,0.72 0.72,1.09 0.15,-0.43 0.32,-0.86 0.49,-1.29 0.28,-0.71 0.58,-1.41 0.91,-2.1 3.04,-6.42 6.99,-10.06 7.16,-10.21 1.16,-1.05 2.85,-1.17 4.13,-0.4 -0.01,-0.05 -0.02,-0.1 -0.02,-0.14z"/>
  <path class="fil4" d="M143.73 165.53c-0.27,-0.25 -0.5,-0.53 -0.67,-0.83 0.49,1.35 1.28,3.97 0.93,6.31l0.1 0.02c1.16,0.12 2.32,0.25 3.48,0.39 0.22,0.03 0.43,0.05 0.64,0.08 -2.15,-3.78 -4.42,-5.91 -4.48,-5.97z"/>
  <path class="fil6" d="M96.84 122.81c0,1.8 -2.83,3.26 -6.32,3.26 -3.49,0 -6.32,-1.46 -6.32,-3.26 0,-1.8 2.83,-3.26 6.32,-3.26 3.49,0 6.32,1.46 6.32,3.26z"/>
  <path class="fil6" d="M139.53 122.81c0,1.8 2.84,3.26 6.33,3.26 3.49,0 6.32,-1.46 6.32,-3.26 0,-1.8 -2.83,-3.26 -6.32,-3.26 -3.49,0 -6.33,1.46 -6.33,3.26z"/>
  <path class="fil7" d="M148.99 197.91c1.48,-2.35 2.43,-4.95 2.85,-7.74 0.05,-0.55 0.11,-1.1 0.19,-1.65 0.22,-2.83 0.04,-5.64 -0.54,-8.38 -0.06,-0.29 -0.12,-0.59 -0.2,-0.92 -0.03,-0.12 -0.06,-0.24 -0.09,-0.35 -0.57,-0.09 -1.14,-0.17 -1.7,-0.25 -0.65,-0.08 -1.3,-0.16 -1.94,-0.24 0.03,0.15 8.53,23.73 -24.17,32.65 11.67,-1.07 21.04,-5.8 25.6,-13.12z"/>
  <path class="fil5" d="M121.35 177.07c-0.08,-0.08 -0.17,-0.15 -0.26,-0.22 -0.97,0.01 -1.94,0.02 -2.9,0.04 -3.97,-0.08 -7.94,-0.05 -11.91,0.1 -6.49,0.24 -12.96,0.78 -19.4,1.63 -0.57,0.08 -1.13,0.16 -1.7,0.25 -0.03,0.11 -0.06,0.23 -0.09,0.35 -0.08,0.33 -0.15,0.63 -0.21,0.92 -0.57,2.74 -0.75,5.55 -0.53,8.38 0.07,0.55 0.13,1.1 0.19,1.65 0.42,2.79 1.37,5.39 2.84,7.74 2.59,4.15 6.72,7.46 11.93,9.75 -17.91,-10.55 -12.09,-27.47 -12.09,-27.47 10.81,-1.81 34.13,-3.12 34.13,-3.12z"/>
  <path class="fil1" d="M215.78 150.77c2.39,0 5.04,-1.83 6.5,-4.8 0.6,0.88 1.23,1.8 1.81,2.91 0.16,0.29 0.34,0.38 0.59,0.38 0.38,0 0.68,-0.32 0.68,-0.77 0,-0.15 -0.05,-0.32 -0.1,-0.43 -0.83,-1.49 -1.62,-2.71 -2.33,-3.69 0.43,-1.38 0.68,-3.03 0.68,-4.86 0,-3.37 -0.68,-6 -2.1,-10.31l2.53 -3.69c0.44,-0.66 0.64,-1.37 0.64,-2.14 0,-1.94 -1.47,-3.6 -3.14,-3.6 -0.82,0 -1.65,0.4 -2.24,1.06 -0.5,-2.83 -0.68,-5.29 -0.68,-7.4 0,-2.86 0.33,-5 0.73,-6.55 1.42,0.32 2.98,0.72 4.59,0.72l9.89 18.02c1.57,2.81 3.86,4.03 6.69,4.18 1.37,0 2.79,-0.43 4.11,-1.31 2.41,-1.66 3.67,-4.52 3.67,-7.49 0,-1.55 -0.33,-3.2 -1.16,-4.65l-6.42 -11.69c9.1,-4.51 15.32,-12.72 16.05,-23.09l0.1 -2.14c0,-7.34 -2.94,-14.57 -8.21,-20.02 -6.13,-6.4 -14.68,-9.92 -23.45,-9.92 -2.93,0 -5.76,0.32 -8.54,1.03 -1.19,-3.4 -3.78,-5.34 -7.35,-5.55 -3.96,0 -7.33,3.46 -7.73,8.04l-4.74 63.45c0,4.97 3.32,8.45 7.88,8.71 3.95,0 7.38,-3.46 7.73,-8.05l0.92 -12.29c1.47,0.66 2.98,1.22 4.55,1.66 -0.4,1.65 -0.73,3.97 -0.73,7 0,1.99 0.15,4.36 0.58,6.94l-0.58 -0.06c-0.94,0 -1.87,0.46 -2.51,1.34 -0.43,0.66 -0.63,1.43 -0.63,2.2 0,1.04 0.4,2.03 1.14,2.75l4.94 4.42 0.33 -0.45c1.27,3.54 1.81,6.51 1.81,9 0,1.26 -0.14,2.42 -0.44,3.46 -2.05,-2.26 -3.81,-2.75 -5.09,-2.75 -2.69,0.17 -4.69,3.09 -4.69,6.17 0,2.49 1.42,4.26 3.72,4.26zm-12.09 -49.91l-0.23 0c-1.47,-0.11 -2.51,-1.49 -2.51,-3.09 0.05,-1.71 1.22,-2.97 2.69,-2.97 1.57,0.06 2.69,1.26 2.69,3.03 -0.05,1.71 -1.07,3.03 -2.64,3.03zm0.69 -9.48l-0.24 0c-1.33,-0.12 -2.35,-1.38 -2.35,-2.86l2.44 -32.58c0.1,-1.56 1.28,-2.71 2.6,-2.71 1.55,0.06 2.59,1.43 2.59,2.98l-2.46 32.53c-0.08,1.49 -1.26,2.64 -2.58,2.64zm11.4 57.79c-1.62,0 -2.35,-1.06 -2.35,-2.6 0,-2.32 1.42,-4.52 3.37,-4.63 1.42,0 2.89,0.83 4.51,2.8 -1.22,2.94 -3.68,4.43 -5.53,4.43zm11.25 -59.05l-1.92 -0.12c-3.9,-0.37 -7.58,-1.92 -10.26,-4.29l1.21 -16.27c2.51,-1.55 5.58,-2.38 8.87,-2.38l1.9 0.12c8.02,0.77 14.38,6.28 14.38,12.29 -0.18,6.13 -6.36,10.65 -14.18,10.65zm62.95 -39.75c-17.42,1.21 -30.67,18.69 -29.6,38.97 1.13,20.23 16.24,35.72 33.66,34.52 17.41,-1.23 30.67,-18.69 29.55,-38.92 -1.14,-20.3 -16.2,-35.79 -33.61,-34.57zm-21.32 51.6c-1.42,0.11 -2.71,-1.17 -2.79,-2.77 -0.1,-1.65 1.02,-3.02 2.44,-3.14 1.47,-0.11 2.69,1.17 2.79,2.77 0.1,1.65 -0.99,3.03 -2.44,3.14zm0.38 -12.51c0.1,1.54 -0.93,2.91 -2.35,3.03 -0.05,0 -0.09,0 -0.19,0 -1.28,0 -2.4,-1.17 -2.5,-2.66 -1.22,-19.12 9.55,-27.88 9.98,-28.28 1.12,-0.88 2.74,-0.6 3.53,0.72 0.78,1.28 0.53,3.04 -0.59,3.91 -0.4,0.34 -8.91,7.45 -7.88,23.28zm24.06 17.37c-9.1,0.6 -16.96,-7.74 -17.55,-18.6 -0.63,-10.85 6.31,-20.17 15.36,-20.83 9.1,-0.6 16.97,7.72 17.55,18.58 0.59,10.85 -6.31,20.17 -15.36,20.85zm114.81 -43.12c-3.83,-5.19 -8.9,-8.11 -14.68,-8.44 -5.83,-0.32 -11.15,1.93 -15.41,6.62 -1.37,1.43 -2.59,3.14 -3.71,5.06 -0.93,-2.09 -2.02,-3.91 -3.24,-5.51 -3.8,-5.18 -8.9,-8.04 -14.67,-8.43 -5.81,-0.32 -11.16,1.94 -15.41,6.62 -6.22,6.72 -10.32,18.69 -12.28,35.45 -1.36,11.69 -1.21,21.61 -1.21,22 0.1,4.72 3.57,8.43 7.73,8.38 4.2,-0.12 7.53,-4.03 7.43,-8.72 0,-0.11 -0.15,-9.2 1.06,-19.62 2.02,-16.77 5.73,-23 7.78,-25.2 1.27,-1.37 2.51,-1.92 4.06,-1.86 1.62,0.09 2.74,0.81 3.93,2.35 1.8,2.43 4.94,9.11 5.37,25.97 0.25,10.53 -0.73,19.57 -0.73,19.68 -0.54,4.69 2.4,8.94 6.56,9.54 0.18,0 0.38,0.06 0.53,0.06 0.1,0 0.15,0 0.2,0 0.29,0 0.59,0.05 0.82,0 4.21,-0.06 7.55,-3.97 7.45,-8.66 0,-0.11 -0.15,-9.26 1.07,-19.68 2,-16.71 5.72,-22.94 7.78,-25.2 1.27,-1.37 2.49,-1.92 4.05,-1.81 1.62,0.1 2.74,0.83 3.93,2.32 1.8,2.48 4.92,9.14 5.37,26.01 0.24,10.53 -0.73,19.58 -0.73,19.68 -0.53,4.63 2.39,8.94 6.54,9.54 0.21,0 0.41,0 0.56,0.06 3.95,0.22 7.43,-2.98 7.91,-7.49 0.05,-0.4 1.14,-10.2 0.88,-22 -0.38,-16.94 -3.42,-29.28 -8.94,-36.72zm-72.15 36.55c-0.1,1.65 -1.32,2.86 -2.79,2.8 -1.42,-0.09 -2.55,-1.48 -2.45,-3.14 0.05,-1.6 1.32,-2.86 2.74,-2.75 1.47,0.06 2.55,1.49 2.5,3.09zm15.21 -38.54c-0.53,0.28 -11.74,6.51 -14.63,29.83 -0.2,1.37 -1.26,2.42 -2.5,2.42 -0.13,0 -0.23,0 -0.38,0 -1.37,-0.22 -2.36,-1.71 -2.16,-3.25 3.38,-26.63 16.98,-33.91 17.57,-34.17 1.27,-0.66 2.74,0 3.32,1.43 0.58,1.37 0,3.08 -1.22,3.74zm57.95 54.74c-0.08,1.6 -1.32,2.88 -2.73,2.77 -1.47,-0.06 -2.59,-1.49 -2.49,-3.09 0.1,-1.66 1.32,-2.88 2.74,-2.82 1.47,0.11 2.58,1.48 2.48,3.14zm0.35 -9.37c-0.1,1.49 -1.21,2.65 -2.53,2.65 -0.05,0 -0.1,0 -0.15,0 -1.42,-0.11 -2.46,-1.48 -2.36,-3.03 1.04,-16.48 -2.25,-27.96 -2.3,-28.05 -0.39,-1.51 0.3,-3.11 1.62,-3.6 1.32,-0.49 2.79,0.34 3.24,1.83 0.13,0.49 3.6,12.57 2.48,30.2zm56.64 -46.69c-5.71,-5.96 -13.11,-8.28 -21.47,-6.68 -8.42,1.66 -14.96,6.63 -18.99,14.4 -4.79,9.31 -5.91,22.49 -3.42,39.14 1.77,11.63 4.76,20.89 4.89,21.28 1.24,3.8 4.66,6 8.13,5.52 0.54,-0.12 1.07,-0.23 1.56,-0.46 3.97,-1.63 5.97,-6.54 4.55,-10.97 -1.16,-3.52 -2.93,-10.35 -4.1,-17.97l26.26 -4.02c0.59,9.82 -0.1,17.98 -0.1,18.08 -0.38,4.68 2.64,8.82 6.85,9.28 4.15,0.49 7.83,-3 8.23,-7.68 0.03,-0.43 0.87,-10.63 0,-22.71 -1.29,-17.47 -5.45,-29.98 -12.39,-37.21zm-39.04 37.43c-1.42,0.23 -2.74,-0.94 -2.92,-2.54 -0.2,-1.6 0.82,-3.09 2.24,-3.29 1.42,-0.23 2.75,0.86 2.94,2.52 0.2,1.6 -0.79,3.09 -2.26,3.31zm2.16 -11.2c-0.09,1.49 -1.22,2.66 -2.49,2.66 -0.1,0 -0.15,0 -0.2,0 -1.42,-0.17 -2.44,-1.55 -2.34,-3.09 1.75,-25.31 15.75,-27.68 16.33,-27.74 1.42,-0.2 2.64,0.89 2.84,2.43 0.2,1.6 -0.79,2.98 -2.16,3.2 -0.48,0.11 -10.56,2.15 -11.98,22.54zm6.99 0.95c0.25,-4.14 1.04,-7.95 2.56,-10.92 1.75,-3.37 4.44,-5.34 8.41,-6.06 4.79,-0.94 7.08,0.72 8.6,2.26 2.15,2.26 3.92,6 5.24,10.91l-24.81 3.81z"/>
  <path class="fil1" d="M248.97 224.92c0.26,0 0.5,-0.17 0.58,-0.37 1.46,-4.07 2.13,-8.18 2.37,-12.05l3.79 -2.95c0.62,-0.54 0.95,-1.29 0.95,-2.07 0,-1.42 -1.25,-2.71 -2.74,-2.71 -0.54,0 -1.12,0.17 -1.57,0.54 -0.13,-0.16 -0.3,-0.33 -0.51,-0.46 -0.12,-1.57 -0.29,-3.03 -0.5,-4.36 12.64,-2.12 21.98,-13.75 21.98,-27.42 0,-15.24 -11.67,-28.33 -26.55,-28.33 -4.44,0.15 -7.1,0.73 -10.92,2.56 -1.2,-1.74 -3.16,-2.86 -5.36,-2.86 -3.87,0.17 -6.74,2.79 -6.74,6.61l3.37 45.86c0.25,3.5 3.16,6.2 6.56,6.2 2.71,-0.13 4.74,-1.33 5.9,-3.49 2.46,0.79 5.04,1.21 7.65,1.21 1.87,-0.09 1,0 2.95,-0.17 0.17,1.12 0.34,2.41 0.46,3.74l-0.34 0c-1.49,0 -2.69,1.21 -2.69,2.65 0,0.54 0.15,1.08 0.54,1.59l2.61 3.36c-0.2,3.9 -0.87,8.01 -2.33,12.13l-0.04 0.21c0,0.33 0.34,0.58 0.58,0.58zm-17.53 -45.58l-0.17 0c-1.12,0 -2.11,-0.87 -2.2,-2.03l-1.78 -24.56c0,-1.16 0.95,-2.16 2.19,-2.2 1.17,0 2.13,0.87 2.22,2.07l1.81 24.52c0,1.12 -0.86,2.11 -2.07,2.2zm0.54 7.15l-0.17 0c-1.36,0 -2.24,-1 -2.28,-2.33 0,-1.37 1,-2.2 2.32,-2.24 1.25,0 2.21,0.95 2.24,2.28 0,1.17 -0.9,2.2 -2.11,2.29zm15.2 1.03c-2.73,0 -5.4,-1.03 -7.64,-2.86l-1.66 -22.52c2.45,-2.74 5.28,-3.99 8.89,-4.12 6.78,0 12.68,5.99 13.22,13.8l0.04 1.21c0,7.64 -5.16,14 -11.92,14.45l-0.93 0.04zm54.28 -45.07c-14.79,0.91 -26.05,14.08 -25.15,29.37 0.97,15.25 13.8,26.92 28.59,26.01 14.8,-0.92 26.06,-14.08 25.11,-29.33 -0.97,-15.3 -13.76,-26.97 -28.55,-26.05zm-18.11 38.89c-1.21,0.08 -2.3,-0.88 -2.37,-2.09 -0.09,-1.24 0.86,-2.28 2.07,-2.36 1.25,-0.09 2.28,0.88 2.37,2.08 0.08,1.25 -0.84,2.28 -2.07,2.37zm0.32 -9.43c0.09,1.16 -0.79,2.2 -2,2.28 -0.04,0 -0.07,0 -0.15,0 -1.09,0 -2.04,-0.88 -2.13,-2 -1.03,-14.41 8.11,-21.02 8.48,-21.31 0.95,-0.67 2.33,-0.46 2.99,0.54 0.67,0.96 0.46,2.29 -0.49,2.95 -0.34,0.25 -7.58,5.61 -6.7,17.54zm20.44 13.09c-7.73,0.45 -14.41,-5.83 -14.9,-14.01 -0.54,-8.19 5.36,-15.21 13.04,-15.7 7.73,-0.46 14.41,5.81 14.91,13.99 0.49,8.19 -5.36,15.21 -13.05,15.72zm97.52 -32.49c-3.25,-3.92 -7.56,-6.12 -12.47,-6.37 -4.95,-0.24 -9.47,1.46 -13.09,4.99 -1.16,1.08 -2.2,2.37 -3.15,3.82 -0.79,-1.58 -1.71,-2.95 -2.75,-4.16 -3.23,-3.9 -7.56,-6.05 -12.47,-6.35 -4.93,-0.24 -9.47,1.46 -13.09,4.99 -5.27,5.06 -8.76,14.08 -10.42,26.72 -1.16,8.81 -1.03,16.28 -1.03,16.58 0.08,3.56 3.03,6.35 6.56,6.31 3.58,-0.09 6.4,-3.04 6.31,-6.57 0,-0.08 -0.12,-6.93 0.91,-14.79 1.72,-12.64 4.87,-17.33 6.61,-18.99 1.08,-1.03 2.13,-1.45 3.45,-1.4 1.37,0.07 2.32,0.61 3.33,1.77 1.53,1.83 4.2,6.86 4.57,19.57 0.21,7.94 -0.63,14.75 -0.63,14.84 -0.45,3.53 2.04,6.73 5.57,7.19 0.16,0 0.33,0.04 0.46,0.04 0.08,0 0.13,0 0.17,0 0.24,0 0.5,0.04 0.69,0 3.58,-0.04 6.41,-2.99 6.33,-6.53 0,-0.08 -0.13,-6.97 0.91,-14.83 1.7,-12.59 4.86,-17.29 6.61,-18.99 1.07,-1.04 2.11,-1.45 3.44,-1.36 1.38,0.07 2.33,0.62 3.33,1.74 1.54,1.87 4.19,6.9 4.57,19.6 0.2,7.94 -0.62,14.77 -0.62,14.84 -0.46,3.49 2.03,6.73 5.56,7.19 0.17,0 0.34,0 0.46,0.04 3.37,0.17 6.32,-2.24 6.73,-5.64 0.04,-0.3 0.96,-7.69 0.75,-16.58 -0.33,-12.77 -2.91,-22.07 -7.6,-27.67zm-61.28 27.54c-0.09,1.25 -1.12,2.15 -2.37,2.11 -1.21,-0.07 -2.17,-1.12 -2.09,-2.37 0.05,-1.2 1.12,-2.15 2.33,-2.07 1.25,0.05 2.17,1.12 2.13,2.33zm12.92 -29.05c-0.46,0.22 -9.97,4.91 -12.43,22.48 -0.17,1.04 -1.08,1.83 -2.12,1.83 -0.12,0 -0.2,0 -0.33,0 -1.16,-0.17 -2,-1.29 -1.83,-2.45 2.86,-20.07 14.42,-25.56 14.92,-25.76 1.08,-0.49 2.32,0 2.82,1.08 0.5,1.04 0,2.33 -1.03,2.82zm49.22 41.26c-0.07,1.21 -1.12,2.17 -2.32,2.08 -1.25,-0.04 -2.2,-1.12 -2.12,-2.32 0.09,-1.25 1.12,-2.17 2.33,-2.13 1.25,0.09 2.2,1.12 2.11,2.37zm0.3 -7.06c-0.09,1.12 -1.04,2 -2.16,2 -0.04,0 -0.08,0 -0.12,0 -1.21,-0.09 -2.09,-1.12 -2,-2.29 0.88,-12.42 -1.92,-21.07 -1.96,-21.14 -0.33,-1.14 0.26,-2.34 1.38,-2.71 1.12,-0.37 2.36,0.25 2.75,1.37 0.11,0.37 3.06,9.48 2.11,22.77zm48.11 -35.19c-4.85,-4.49 -11.14,-6.24 -18.24,-5.03 -7.15,1.24 -12.71,4.99 -16.13,10.85 -4.07,7.02 -5.02,16.94 -2.9,29.49 1.5,8.77 4.04,15.75 4.15,16.04 1.05,2.87 3.96,4.53 6.91,4.16 0.45,-0.08 0.9,-0.17 1.32,-0.34 3.37,-1.23 5.07,-4.94 3.87,-8.27 -0.99,-2.65 -2.5,-7.8 -3.49,-13.54l22.31 -3.04c0.49,7.41 -0.09,13.56 -0.09,13.63 -0.32,3.53 2.24,6.65 5.82,6.99 3.53,0.37 6.65,-2.25 6.99,-5.78 0.03,-0.33 0.74,-8.02 0,-17.12 -1.09,-13.16 -4.62,-22.59 -10.52,-28.04zm-33.16 28.21c-1.21,0.17 -2.33,-0.71 -2.48,-1.92 -0.17,-1.2 0.69,-2.32 1.9,-2.48 1.2,-0.17 2.34,0.66 2.49,1.9 0.17,1.21 -0.66,2.33 -1.91,2.5zm1.83 -8.44c-0.07,1.12 -1.04,2 -2.12,2 -0.08,0 -0.12,0 -0.17,0 -1.2,-0.13 -2.07,-1.16 -1.98,-2.33 1.49,-19.07 13.37,-20.86 13.87,-20.9 1.2,-0.16 2.24,0.67 2.41,1.83 0.17,1.21 -0.67,2.24 -1.83,2.41 -0.41,0.09 -8.98,1.62 -10.18,16.99zm5.94 0.71c0.21,-3.12 0.88,-5.98 2.17,-8.23 1.49,-2.53 3.77,-4.02 7.15,-4.56 4.07,-0.71 6.01,0.54 7.3,1.7 1.83,1.7 3.33,4.52 4.45,8.23l-21.07 2.86z"/>
 </g>
</svg>
