<?xml version="1.0" encoding="UTF-8"?>
<!DOCTYPE svg PUBLIC "-//W3C//DTD SVG 1.1//EN" "http://www.w3.org/Graphics/SVG/1.1/DTD/svg11.dtd">
<!-- Creator: CorelDRAW Standard 2021 (64-Bit Оценочная версия) -->
<svg xmlns="http://www.w3.org/2000/svg" xml:space="preserve" width="2980px" height="938px" version="1.1" style="shape-rendering:geometricPrecision; text-rendering:geometricPrecision; image-rendering:optimizeQuality; fill-rule:evenodd; clip-rule:evenodd"
viewBox="0 0 2980 937.556"
 xmlns:xlink="http://www.w3.org/1999/xlink"
 xmlns:xodm="http://www.corel.com/coreldraw/odm/2003">
 <defs>
  <style type="text/css">
   <![CDATA[
    .fil3 {fill:#FEFEFE;fill-rule:nonzero}
    .fil0 {fill:#F6F5F6;fill-rule:nonzero}
    .fil1 {fill:#E9E5DE;fill-rule:nonzero}
    .fil8 {fill:#DBD2C3;fill-rule:nonzero}
    .fil5 {fill:#CCC7BE;fill-rule:nonzero}
    .fil7 {fill:#CAC0B5;fill-rule:nonzero}
    .fil2 {fill:#C4BBB0;fill-rule:nonzero}
    .fil4 {fill:#AEAAA8;fill-rule:nonzero}
    .fil6 {fill:#9E9790;fill-rule:nonzero}
   ]]>
  </style>
 </defs>
 <g id="Слой_x0020_1">
  <metadata id="CorelCorpID_0Corel-Layer"/>
  <polygon class="fil0" points="1427.882,935.466 2990.476,935.466 2990.476,-2.091 1427.882,-2.091 "/>
  <path class="fil1" d="M2822.612 514.899c-64.998,0.625 -84.754,-187.465 -157.208,-185.361 -98.083,2.85 -98.897,229.458 -178.081,237.79 -79.185,8.331 -60.968,-147.087 -141.699,-148.062 -58.051,-0.7 -50.053,75.628 -97.122,75.757 -53.918,0.146 -51.574,-195.381 -181.144,-195.381 -132.988,0 -128.3,230.208 -201.088,231.933 -64.745,1.536 -47.55,-186.759 -131.21,-184.827 -69.691,1.61 -55.432,106.968 -111.694,108.154 -81.2,1.712 -67.748,-224.122 -195.484,-227.462l0 712.16 1562.594 0 0 -712.153c-105.855,0.785 -95.129,286.752 -167.864,287.452z"/>
  <polygon class="fil1" points="1764.523,327.313 1703.505,327.313 1734.027,219.971 "/>
  <polygon class="fil1" points="1736.459,373.691 1731.569,373.691 1734.027,219.971 "/>
  <polygon class="fil1" points="1745.318,259.759 1734.027,254.6 1734,252.708 1744.859,258.138 "/>
  <polygon class="fil1" points="1750.585,278.262 1734.027,270.724 1734,268.807 1750.207,276.937 "/>
  <polygon class="fil1" points="1756.312,298.411 1734.027,288.281 1734,286.365 1756.014,297.384 "/>
  <polygon class="fil1" points="1722.71,259.732 1734,254.6 1734,252.708 1723.168,258.138 "/>
  <polygon class="fil1" points="1717.443,278.262 1734,270.724 1734,268.807 1717.847,276.91 "/>
  <polygon class="fil1" points="1711.716,298.411 1734,288.281 1734,286.365 1712.013,297.357 "/>
  <polygon class="fil1" points="2334.593,429.071 2338.758,429.071 2338.758,329.984 2334.593,329.984 "/>
  <polygon class="fil1" points="2336.041,332.132 2320.808,376.328 2352.542,376.328 "/>
  <polygon class="fil1" points="2336.197,312.504 2324.713,345.82 2348.635,345.82 "/>
  <polygon class="fil1" points="2369.753,453.454 2373.476,453.454 2373.476,377.107 2369.753,377.107 "/>
  <path class="fil1" d="M2388.344 409.086c-0.027,-3.839 -8.297,-14.173 -12.384,-19.136l-0.003 -0.01c0,0 10.647,7.132 9.639,3.237 -0.903,-3.49 -5.482,-10.435 -9.001,-16.513 0.192,-0.394 6.99,6.967 6.178,3.567 -1.107,-4.64 -9.078,-20.731 -10.445,-21.389 -1.669,-0.804 -2.781,1.206 -2.781,1.206 -1.669,1.609 -12.747,22.108 -9.642,20.718 1.37,-0.612 4.464,-2.746 5.996,-3.825 -4.563,7.298 -11.599,20.229 -8.703,19.037 2.304,-0.951 9.055,-4.653 9.055,-4.653 0,0 -14.39,18.276 -10.79,18.308 5.054,0.043 10.981,-5.009 15.161,-5.009 4.642,0 17.74,7.184 17.72,4.462z"/>
  <polygon class="fil1" points="2659.112,340.943 2663.277,340.943 2663.277,277.681 2659.112,277.681 "/>
  <polygon class="fil1" points="2660.529,235.695 2644.532,310.652 2677.855,310.652 "/>
  <polygon class="fil1" points="2079.583,313.235 2083.748,313.235 2083.748,249.973 2079.583,249.973 "/>
  <polygon class="fil1" points="2080.998,207.987 2065.003,282.942 2098.326,282.942 "/>
  <polygon class="fil1" points="2114.321,248.887 2098.326,323.842 2131.649,323.842 "/>
  <path class="fil1" d="M2497.796 573.376c-0.029,-3.828 -8.274,-14.132 -12.346,-19.081l-0.004 -0.01c0,0 10.615,7.111 9.61,3.229 -0.9,-3.479 -5.467,-10.405 -8.975,-16.465 0.191,-0.394 6.969,6.946 6.161,3.556 -1.102,-4.625 -9.053,-20.67 -10.415,-21.326 -1.663,-0.802 -2.771,1.202 -2.771,1.202 -1.665,1.604 -12.712,22.043 -9.616,20.659 1.367,-0.612 4.45,-2.739 5.978,-3.814 -4.549,7.275 -11.564,20.17 -8.678,18.98 2.3,-0.948 9.03,-4.64 9.03,-4.64 0,0 -14.349,18.224 -10.759,18.256 5.04,0.043 10.95,-4.997 15.115,-4.997 4.632,0 17.691,7.165 17.67,4.451z"/>
  <path class="fil1" d="M3007.156 232.824c-0.029,-3.829 -8.274,-14.132 -12.349,-19.081l-0.002 -0.01c0,0 10.616,7.111 9.611,3.23 -0.9,-3.482 -5.467,-10.407 -8.975,-16.466 0.191,-0.396 6.969,6.946 6.16,3.554 -1.102,-4.625 -9.052,-20.67 -10.415,-21.326 -1.662,-0.802 -2.771,1.204 -2.771,1.204 -1.665,1.604 -12.709,22.041 -9.615,20.658 1.367,-0.611 4.451,-2.738 5.977,-3.815 -4.548,7.278 -11.563,20.17 -8.677,18.981 2.3,-0.949 9.03,-4.641 9.03,-4.641 0,0 -14.349,18.225 -10.759,18.256 5.04,0.044 10.95,-4.994 15.115,-4.994 4.63,0 17.691,7.163 17.67,4.45z"/>
  <path class="fil2" d="M1957.624 621.972c-0.202,0 -0.202,0.313 0,0.313 0.202,0 0.202,-0.313 0,-0.313z"/>
  <path class="fil3" d="M1563.84 99.132c-10.8,-11.136 21.205,-33.508 50.045,-14.706 0,0 7.943,-43.716 33.764,-34.694 17.976,6.279 14.251,36.298 14.251,36.298 0,0 12.903,-17.897 26.435,-14.676 7.683,1.829 8.834,20.282 8.834,20.282 0,0 26.137,3.795 47.342,7.496 8.563,1.496 -164.555,16.621 -180.671,0z"/>
  <path class="fil0" d="M1574.378 90.742c-3.017,0 -3.017,4.682 0,4.682 3.019,0 3.019,-4.682 0,-4.682z"/>
  <path class="fil0" d="M1583.752 95.718c-3.32,0 -3.32,5.146 0,5.146 3.319,0 3.319,-5.146 0,-5.146z"/>
  <path class="fil0" d="M1585.092 85.946c-0.165,-0.031 -0.33,-0.064 -0.494,-0.098 -2.007,-0.397 -4.029,0.888 -4.029,3.07 0,2.183 2.022,3.468 4.029,3.068 0.164,-0.031 0.329,-0.064 0.494,-0.098 2.951,-0.587 2.951,-5.354 0,-5.942z"/>
  <path class="fil0" d="M1598.331 97.039c-2.957,0 -2.957,4.586 0,4.586 2.958,0 2.958,-4.586 0,-4.586z"/>
  <path class="fil0" d="M1669.149 95.764c-3.259,0 -3.259,5.054 0,5.054 3.26,0 3.26,-5.054 0,-5.054z"/>
  <path class="fil0" d="M1676.438 89.515c-3.258,0 -3.258,5.055 0,5.055 3.259,0 3.259,-5.055 0,-5.055z"/>
  <path class="fil0" d="M1679.564 97.087c-2.898,0 -2.898,4.492 0,4.492 2.896,0 2.896,-4.492 0,-4.492z"/>
  <path class="fil0" d="M1691.019 91.363c-1.63,0 -3.361,1.8 -2.663,3.496 0.497,1.209 1.181,2.368 2.663,2.368 1.481,0 2.164,-1.159 2.662,-2.368 0.698,-1.696 -1.034,-3.496 -2.662,-3.496z"/>
  <path class="fil3" d="M2169.733 216.289c-10.801,-11.136 21.205,-33.508 50.044,-14.706 0,0 7.943,-43.716 33.765,-34.696 17.976,6.281 14.251,36.3 14.251,36.3 0,0 12.903,-17.897 26.435,-14.676 7.683,1.829 8.833,20.282 8.833,20.282 0,0 26.137,3.795 47.343,7.496 8.563,1.496 -164.556,16.621 -180.671,0z"/>
  <path class="fil0" d="M2185.696 201.803c-3.5,0 -3.5,5.428 0,5.428 3.503,0 3.503,-5.428 0,-5.428z"/>
  <path class="fil0" d="M2183.615 211.304c-1.992,0 -1.992,3.088 0,3.088 1.992,0 1.992,-3.088 0,-3.088z"/>
  <path class="fil0" d="M2195.07 211.175c-3.501,0 -3.501,5.429 0,5.429 3.5,0 3.5,-5.429 0,-5.429z"/>
  <path class="fil0" d="M2203.402 202.247c-5.613,0 -5.613,8.705 0,8.705 5.612,0 5.612,-8.705 0,-8.705z"/>
  <path class="fil0" d="M2213.817 214.721c-2.959,0 -2.959,4.586 0,4.586 2.956,0 2.956,-4.586 0,-4.586z"/>
  <path class="fil0" d="M2271.093 210.508c-3.017,0 -3.017,4.679 0,4.679 3.019,0 3.019,-4.679 0,-4.679z"/>
  <path class="fil0" d="M2281.508 204.774c-2.354,0 -2.354,3.651 0,3.651 2.354,0 2.354,-3.651 0,-3.651z"/>
  <path class="fil0" d="M2283.11 210.816c-0.56,-0.104 -1.033,-0.177 -1.602,-0.121 -2.771,0.267 -2.771,4.038 0,4.305 0.569,0.056 1.042,-0.016 1.602,-0.121 2.017,-0.383 2.017,-3.679 0,-4.063z"/>
  <path class="fil0" d="M2294.088 206.249c-0.163,0.036 -0.327,0.071 -0.49,0.107 -3.344,0.731 -3.344,6.004 0,6.735 0.163,0.036 0.327,0.071 0.49,0.107 2.271,0.498 4.563,-1.038 4.563,-3.475 0,-2.436 -2.292,-3.971 -4.563,-3.474z"/>
  <path class="fil3" d="M2351.971 115.281c-6.343,-6.539 12.45,-19.674 29.383,-8.635 0,0 4.665,-25.667 19.826,-20.37 10.555,3.685 8.367,21.314 8.367,21.314 0,0 7.575,-10.512 15.52,-8.62 4.513,1.075 5.188,11.909 5.188,11.909 0,0 15.344,2.227 27.795,4.402 5.03,0.877 -96.616,9.757 -106.079,0z"/>
  <path class="fil0" d="M2363.782 106.027c-2.113,0 -2.113,3.275 0,3.275 2.112,0 2.112,-3.275 0,-3.275z"/>
  <path class="fil0" d="M2369.603 112.861c-0.571,-0.355 -0.99,-0.427 -1.656,-0.492 -1.99,-0.2 -1.99,3.286 0,3.088 0.666,-0.067 1.085,-0.138 1.656,-0.495 0.786,-0.489 0.786,-1.61 0,-2.101z"/>
  <path class="fil0" d="M2390.858 103.954c-2.158,0 -3.143,2.233 -2.304,4.015 0.308,0.652 0.696,1.031 1.287,1.433 0.559,0.375 1.476,0.375 2.032,0 0.594,-0.402 0.982,-0.781 1.288,-1.433 0.841,-1.782 -0.146,-4.015 -2.303,-4.015z"/>
  <path class="fil0" d="M2393.984 112.754c-2.838,0 -2.838,4.398 0,4.398 2.835,0 2.835,-4.398 0,-4.398z"/>
  <path class="fil0" d="M2403.355 105.477c-4.165,0 -4.165,6.459 0,6.459 4.165,0 4.165,-6.459 0,-6.459z"/>
  <path class="fil3" d="M2778.047 164.701c-6.343,-6.538 12.45,-19.674 29.382,-8.634 0,0 4.665,-25.668 19.825,-20.372 10.554,3.688 8.369,21.314 8.369,21.314 0,0 7.575,-10.509 15.519,-8.617 4.513,1.072 5.188,11.909 5.188,11.909 0,0 15.345,2.227 27.795,4.4 5.03,0.879 -96.616,9.759 -106.078,0z"/>
  <path class="fil0" d="M2789.779 157.657c-0.168,-0.029 -0.332,-0.058 -0.499,-0.087 -3.625,-0.649 -3.625,4.977 0,4.331 0.167,-0.029 0.331,-0.058 0.499,-0.087 2.064,-0.369 2.064,-3.788 0,-4.157z"/>
  <path class="fil0" d="M2794.933 161.607c-2.959,0 -2.959,4.586 0,4.586 2.958,0 2.958,-4.586 0,-4.586z"/>
  <path class="fil0" d="M2803.265 158.403c-4.407,0 -4.407,6.831 0,6.831 4.404,0 4.404,-6.831 0,-6.831z"/>
  <path class="fil0" d="M2828.258 160.239c-3.38,0 -3.38,5.242 0,5.242 3.381,0 3.381,-5.242 0,-5.242z"/>
  <polygon class="fil4" points="1625.246,589.591 1630.097,589.591 1630.097,454.136 1625.246,454.136 "/>
  <polygon class="fil4" points="1626.932,450.823 1609.192,511.241 1646.151,511.241 "/>
  <polygon class="fil4" points="1626.788,487.281 1602.454,572.003 1652.889,572.003 "/>
  <polygon class="fil4" points="1627.114,423.99 1613.74,469.536 1641.603,469.536 "/>
  <polygon class="fil5" points="3025.765,394.94 2955.186,394.94 2990.492,270.782 "/>
  <polygon class="fil4" points="2993.303,448.585 2987.649,448.585 2990.492,270.782 "/>
  <polygon class="fil4" points="3003.551,316.802 2990.492,310.835 2990.459,308.647 3003.02,314.929 "/>
  <polygon class="fil4" points="3009.643,338.203 2990.492,329.488 2990.459,327.269 3009.206,336.674 "/>
  <polygon class="fil4" points="3016.267,361.511 2990.492,349.796 2990.459,347.577 3015.923,360.323 "/>
  <polygon class="fil4" points="2977.4,316.771 2990.459,310.835 2990.459,308.647 2977.931,314.929 "/>
  <polygon class="fil4" points="2971.308,338.203 2990.459,329.488 2990.459,327.269 2971.777,336.643 "/>
  <polygon class="fil4" points="2964.684,361.511 2990.459,349.796 2990.459,347.577 2965.029,360.292 "/>
  <polygon class="fil4" points="2952.482,462.517 2956.646,462.517 2956.646,363.43 2952.482,363.43 "/>
  <polygon class="fil6" points="2954.086,345.952 2942.604,379.268 2966.526,379.268 "/>
  <polygon class="fil6" points="2953.93,365.58 2938.698,409.774 2970.431,409.774 "/>
  <polygon class="fil5" points="2288.125,546.455 2230.17,546.455 2259.161,444.499 "/>
  <polygon class="fil4" points="2261.469,590.506 2256.825,590.506 2259.161,444.499 "/>
  <polygon class="fil4" points="2269.884,482.291 2259.161,477.391 2259.134,475.595 2269.449,480.751 "/>
  <polygon class="fil4" points="2274.887,499.865 2259.161,492.708 2259.134,490.886 2274.528,498.609 "/>
  <polygon class="fil4" points="2280.327,519.003 2259.161,509.385 2259.134,507.561 2280.043,518.028 "/>
  <polygon class="fil4" points="2248.41,482.266 2259.134,477.391 2259.134,475.595 2248.846,480.751 "/>
  <polygon class="fil4" points="2243.408,499.865 2259.134,492.708 2259.134,490.886 2243.794,498.582 "/>
  <polygon class="fil4" points="2237.968,519.003 2259.134,509.385 2259.134,507.561 2238.251,518.004 "/>
  <polygon class="fil4" points="1461.396,464.336 1465.562,464.336 1465.562,365.248 1461.396,365.248 "/>
  <polygon class="fil4" points="1462.844,367.399 1447.612,411.593 1479.345,411.593 "/>
  <polygon class="fil0" points="1463,347.771 1451.517,381.087 1475.44,381.087 "/>
  <polygon class="fil0" points="2699.312,492.871 2628.733,492.871 2664.037,368.713 "/>
  <polygon class="fil4" points="2666.85,546.516 2661.194,546.516 2664.037,368.713 "/>
  <polygon class="fil4" points="2693.593,472.814 2664.037,486.248 2664.006,488.467 2693.812,473.564 "/>
  <polygon class="fil4" points="2688.501,454.818 2664.037,465.971 2664.006,468.19 2688.783,455.785 "/>
  <polygon class="fil4" points="2634.45,472.814 2664.006,486.248 2664.006,488.467 2634.232,473.564 "/>
  <polygon class="fil4" points="2639.544,454.818 2664.006,465.971 2664.006,468.19 2639.263,455.785 "/>
  <polygon class="fil5" points="2065.003,406.053 1979.684,406.053 2022.363,255.958 "/>
  <polygon class="fil4" points="2025.761,470.903 2018.926,470.903 2022.363,255.958 "/>
  <polygon class="fil4" points="2058.092,381.806 2022.363,398.047 2022.326,400.728 2058.357,382.712 "/>
  <polygon class="fil4" points="2051.936,360.051 2022.363,373.534 2022.326,376.216 2052.276,361.221 "/>
  <polygon class="fil4" points="1986.597,381.806 2022.326,398.047 2022.326,400.728 1986.332,382.712 "/>
  <polygon class="fil4" points="1992.751,360.051 2022.326,373.534 2022.326,376.216 1992.412,361.221 "/>
  <polygon class="fil5" points="2924.024,495.986 2927.747,495.986 2927.747,419.639 2924.024,419.639 "/>
  <path class="fil7" d="M2942.616 451.618c-0.028,-3.839 -8.298,-14.173 -12.385,-19.136l-0.003 -0.011c0,0 10.647,7.132 9.639,3.238 -0.903,-3.49 -5.482,-10.434 -9.001,-16.514 0.191,-0.393 6.99,6.968 6.177,3.568 -1.106,-4.641 -9.077,-20.731 -10.444,-21.389 -1.669,-0.804 -2.782,1.206 -2.782,1.206 -1.669,1.609 -12.746,22.107 -9.641,20.72 1.37,-0.615 4.464,-2.748 5.996,-3.825 -4.563,7.296 -11.599,20.228 -8.703,19.034 2.304,-0.95 9.055,-4.652 9.055,-4.652 0,0 -14.391,18.276 -10.791,18.307 5.055,0.044 10.982,-5.008 15.162,-5.008 4.642,0 17.74,7.184 17.721,4.462z"/>
  <polygon class="fil4" points="2691.729,546.866 2695.895,546.866 2695.895,483.604 2691.729,483.604 "/>
  <polygon class="fil5" points="2693.146,441.618 2677.151,516.572 2710.473,516.572 "/>
  <polygon class="fil5" points="2512.376,764.933 2516.541,764.933 2516.541,701.671 2512.376,701.671 "/>
  <polygon class="fil4" points="2513.791,659.685 2497.796,734.64 2531.119,734.64 "/>
  <polygon class="fil5" points="1860.971,597.634 1866.093,597.634 1866.093,519.828 1860.971,519.828 "/>
  <polygon class="fil4" points="1862.712,468.19 1843.04,560.377 1884.024,560.377 "/>
  <polygon class="fil4" points="2055.401,480.437 2060.516,480.437 2060.516,368.149 2055.401,368.149 "/>
  <polygon class="fil0" points="2057.178,370.786 2038.477,425.052 2077.439,425.052 "/>
  <polygon class="fil0" points="2057.37,346.687 2043.271,387.594 2072.643,387.594 "/>
  <path class="fil8" d="M2989.295 441.625c-0.065,0 -0.126,-0.008 -0.19,-0.006 -115.084,3.425 -117.168,253.636 -171.348,254.156 -73.45,0.707 -55.434,-165.334 -135.66,-165.334 -80.225,0 -100.187,220.426 -164.785,226.673 -64.598,6.249 -53.136,-111.431 -98.979,-111.431 -45.844,0 -44.759,92.675 -83.353,89.562 -43.901,-3.54 -7.954,-148.82 -72.933,-149.27 -46.811,-0.324 -35.048,112.924 -91.685,112.82 -82.472,-0.152 -49.626,-236.596 -134.404,-236.404 -73.073,0.164 -60.573,180.271 -113.567,176.002 -28.808,-2.323 -20.457,-61.341 -59.533,-62.122 -48.469,-0.969 -51.569,148.144 -103.004,149.6 -60.379,1.713 -55.07,-178.5 -119.576,-174.91 -47.792,2.658 -61.02,79.513 -82.272,79.252 -17.207,-0.212 -26.343,-24.474 -39.041,-73.788 -22.614,-87.821 -59.039,-115.079 -92.265,-114.806l0 498.571 1562.595 0 0 -498.565z"/>
  <path class="fil2" d="M2013.08 482.723c-2.836,0 -2.836,4.398 0,4.398 2.837,0 2.837,-4.398 0,-4.398z"/>
  <path class="fil2" d="M2020.89 472.665c-2.422,0 -4.446,2.021 -4.446,4.445 0,2.425 2.024,4.446 4.446,4.446 2.423,0 4.447,-2.021 4.447,-4.446 0,-2.424 -2.024,-4.445 -4.447,-4.445z"/>
  <path class="fil2" d="M2037.685 470.442c-2.054,0 -2.054,3.182 0,3.182 2.05,0 2.05,-3.182 0,-3.182z"/>
  <path class="fil2" d="M2045.886 472.93c-4.89,0 -4.89,7.58 0,7.58 4.887,0 4.887,-7.58 0,-7.58z"/>
  <path class="fil2" d="M2007.223 479.408c-1.569,0 -1.569,2.435 0,2.435 1.569,0 1.569,-2.435 0,-2.435z"/>
  <path class="fil2" d="M2051.744 491.891c-4.104,0 -4.104,6.366 0,6.366 4.105,0 4.105,-6.366 0,-6.366z"/>
  <path class="fil2" d="M2061.507 486.985c-1.871,0 -1.871,2.903 0,2.903 1.871,0 1.871,-2.903 0,-2.903z"/>
  <path class="fil2" d="M2063.849 496.659c-5.008,0 -5.008,7.769 0,7.769 5.011,0 5.011,-7.769 0,-7.769z"/>
  <path class="fil2" d="M2070.097 492.156c-1.75,0 -1.75,2.713 0,2.713 1.753,0 1.753,-2.713 0,-2.713z"/>
  <path class="fil2" d="M2102.122 662.775c-3.319,0 -3.319,5.148 0,5.148 3.32,0 3.32,-5.148 0,-5.148z"/>
  <path class="fil2" d="M2107.589 645.857c-3.983,0 -3.983,6.178 0,6.178 3.984,0 3.984,-6.178 0,-6.178z"/>
  <path class="fil2" d="M2113.058 660.856c-2.45,0 -4.493,2.044 -4.493,4.492 0,2.45 2.043,4.494 4.493,4.494 2.448,0 4.492,-2.044 4.492,-4.494 0,-2.448 -2.044,-4.492 -4.492,-4.492z"/>
  <path class="fil2" d="M2118.525 650.793c-2.656,0 -2.656,4.117 0,4.117 2.657,0 2.657,-4.117 0,-4.117z"/>
  <path class="fil2" d="M2128.678 681.988c-2.715,0 -2.715,4.211 0,4.211 2.717,0 2.717,-4.211 0,-4.211z"/>
  <path class="fil2" d="M2116.963 698.812c-2.173,0 -2.173,3.37 0,3.37 2.173,0 2.173,-3.37 0,-3.37z"/>
  <path class="fil2" d="M2140.395 697.8c-5.494,0 -5.494,8.517 0,8.517 5.492,0 5.492,-8.517 0,-8.517z"/>
  <path class="fil2" d="M2255.213 597.586c-2.777,0 -2.777,4.306 0,4.306 2.775,0 2.775,-4.306 0,-4.306z"/>
  <path class="fil2" d="M2266.147 592.51c-4.286,0 -4.286,6.647 0,6.647 4.286,0 4.286,-6.647 0,-6.647z"/>
  <path class="fil2" d="M2272.395 602.506c-2.473,0 -2.473,3.838 0,3.838 2.475,0 2.475,-3.838 0,-3.838z"/>
  <path class="fil2" d="M2277.083 594.806c-4.346,0 -4.346,6.74 0,6.74 4.346,0 4.346,-6.74 0,-6.74z"/>
  <path class="fil2" d="M2283.331 604.255c-2.233,0 -2.233,3.465 0,3.465 2.234,0 2.234,-3.465 0,-3.465z"/>
  <path class="fil2" d="M2286.454 618.768c-2.654,0 -2.654,4.119 0,4.119 2.656,0 2.656,-4.119 0,-4.119z"/>
  <path class="fil2" d="M2152.892 700.139c-2.475,0 -2.475,3.839 0,3.839 2.475,0 2.475,-3.839 0,-3.839z"/>
  <path class="fil2" d="M2407.751 659.952c-0.027,-0.121 -0.054,-0.244 -0.081,-0.367 -0.534,-2.475 -4.451,-2.475 -4.984,0 -0.027,0.123 -0.054,0.246 -0.081,0.367 -0.362,1.681 0.764,3.377 2.573,3.377 1.808,0 2.936,-1.696 2.573,-3.377z"/>
  <path class="fil2" d="M2416.112 653.055c-1.75,0 -1.75,2.715 0,2.715 1.752,0 1.752,-2.715 0,-2.715z"/>
  <path class="fil2" d="M2415.333 665.323c-5.071,0 -5.071,7.863 0,7.863 5.069,0 5.069,-7.863 0,-7.863z"/>
  <path class="fil2" d="M2425.486 657.381c-0.203,0 -0.203,0.312 0,0.312 0.202,0 0.202,-0.312 0,-0.312z"/>
  <path class="fil2" d="M2423.143 659.619c-2.354,0 -2.354,3.649 0,3.649 2.353,0 2.353,-3.649 0,-3.649z"/>
  <path class="fil2" d="M2434.859 660.212c-2.596,0 -2.596,4.026 0,4.026 2.596,0 2.596,-4.026 0,-4.026z"/>
  <path class="fil2" d="M2441.107 674.723c-3.016,0 -3.016,4.682 0,4.682 3.017,0 3.017,-4.682 0,-4.682z"/>
  <path class="fil2" d="M1852.962 590.883c-2.354,0 -2.354,3.65 0,3.65 2.354,0 2.354,-3.65 0,-3.65z"/>
  <path class="fil2" d="M1860.773 581.809c-3.986,0 -3.986,6.178 0,6.178 3.983,0 3.983,-6.178 0,-6.178z"/>
  <path class="fil2" d="M1866.239 595.542c-4.406,0 -4.406,6.831 0,6.831 4.407,0 4.407,-6.831 0,-6.831z"/>
  <path class="fil2" d="M1872.488 583.62c-2.657,0 -2.657,4.119 0,4.119 2.656,0 2.656,-4.119 0,-4.119z"/>
  <path class="fil2" d="M1876.392 589.462c-2.173,0 -2.173,3.369 0,3.369 2.173,0 2.173,-3.369 0,-3.369z"/>
  <path class="fil2" d="M1885.766 597.492c-2.897,0 -2.897,4.494 0,4.494 2.898,0 2.898,-4.494 0,-4.494z"/>
  <path class="fil2" d="M1825.491 644.432l-0.12 -0.358c-0.693,-2.065 -3.488,-2.065 -4.182,0l-0.121 0.358c-1.235,3.681 5.659,3.681 4.423,0z"/>
  <path class="fil2" d="M1828.748 628.923c-2.657,0 -2.657,4.117 0,4.117 2.656,0 2.656,-4.117 0,-4.117z"/>
  <path class="fil2" d="M1832.652 636.517c-4.948,0 -4.948,7.675 0,7.675 4.95,0 4.95,-7.675 0,-7.675z"/>
  <path class="fil2" d="M1604.58 582.151c-2.535,0 -2.535,3.932 0,3.932 2.536,0 2.536,-3.932 0,-3.932z"/>
  <path class="fil2" d="M1611.61 573.578c-4.527,0 -4.527,7.019 0,7.019 4.527,0 4.527,-7.019 0,-7.019z"/>
  <path class="fil2" d="M1617.078 585.964c-2.657,0 -2.657,4.117 0,4.117 2.656,0 2.656,-4.117 0,-4.117z"/>
  <path class="fil2" d="M1624.107 578.48c-2.233,0 -2.233,3.463 0,3.463 2.233,0 2.233,-3.463 0,-3.463z"/>
  <path class="fil2" d="M1660.035 565.533c-4.827,0 -4.827,7.487 0,7.487 4.83,0 4.83,-7.487 0,-7.487z"/>
  <path class="fil2" d="M1656.131 578.434c-2.294,0 -2.294,3.557 0,3.557 2.294,0 2.294,-3.557 0,-3.557z"/>
  <path class="fil2" d="M1667.846 577.138c-2.956,0 -2.956,4.586 0,4.586 2.959,0 2.959,-4.586 0,-4.586z"/>
  <path class="fil2" d="M1437.431 464.382c-3.319,0 -3.319,5.148 0,5.148 3.319,0 3.319,-5.148 0,-5.148z"/>
  <path class="fil2" d="M1443.68 452.262c-5.855,0 -5.855,9.08 0,9.08 5.854,0 5.854,-9.08 0,-9.08z"/>
  <path class="fil2" d="M1457.302 465.05c-0.059,-0.07 -0.118,-0.141 -0.178,-0.212 -0.411,-0.496 -1.245,-0.669 -1.84,-0.487 -0.121,0.037 -0.241,0.072 -0.361,0.11 -1.696,0.519 -1.696,2.91 0,3.429 0.12,0.038 0.24,0.073 0.361,0.11 0.595,0.182 1.429,0.009 1.84,-0.487 0.06,-0.071 0.119,-0.142 0.178,-0.212 0.595,-0.715 0.595,-1.536 0,-2.251z"/>
  <path class="fil2" d="M1466.33 467.288c-2.595,0 -2.595,4.023 0,4.023 2.597,0 2.597,-4.023 0,-4.023z"/>
  <path class="fil2" d="M1471.798 485.391c-2.414,0 -2.414,3.744 0,3.744 2.414,0 2.414,-3.744 0,-3.744z"/>
  <path class="fil2" d="M1444.461 477.38c-3.682,0 -3.682,5.709 0,5.709 3.682,0 3.682,-5.709 0,-5.709z"/>
  <path class="fil2" d="M1687.375 666.367c-2.718,0 -2.718,4.212 0,4.212 2.714,0 2.714,-4.212 0,-4.212z"/>
  <path class="fil2" d="M1692.842 656.166c-1.673,0 -2.628,1.817 -1.859,3.24 0.892,1.652 2.825,1.652 3.717,0 0.769,-1.423 -0.186,-3.24 -1.858,-3.24z"/>
  <path class="fil2" d="M1697.082 674.182c-3.855,1.904 -0.886,7.754 2.81,5.59 3.298,-1.934 0.569,-7.259 -2.81,-5.59z"/>
  <path class="fil2" d="M1702.994 664.258c-2.413,0 -2.413,3.744 0,3.744 2.415,0 2.415,-3.744 0,-3.744z"/>
  <path class="fil2" d="M1713.213 695.866c-0.306,-0.095 -0.61,-0.189 -0.916,-0.285 -1.917,-0.594 -3.876,1.367 -3.281,3.281 0.093,0.306 0.189,0.613 0.282,0.919 0.705,2.265 3.584,3.138 5.32,1.404 1.736,-1.735 0.862,-4.616 -1.405,-5.319z"/>
  <path class="fil2" d="M1510.568 594.662c-0.311,-2.65 -3.808,-2.65 -4.12,0 -0.015,0.13 -0.03,0.261 -0.045,0.39 -0.319,2.713 4.53,2.713 4.211,0 -0.015,-0.129 -0.03,-0.26 -0.046,-0.39z"/>
  <path class="fil2" d="M1513.976 583.214c-1.362,0 -2.375,1.91 -1.192,2.875 0.144,0.117 0.288,0.235 0.431,0.352 0.491,0.4 1.031,0.4 1.523,0 0.143,-0.117 0.286,-0.235 0.429,-0.352 1.184,-0.965 0.172,-2.875 -1.191,-2.875z"/>
  <path class="fil2" d="M1521.787 603.74c-1.361,0 -2.687,1.454 -2.166,2.844 0.044,0.119 0.087,0.236 0.132,0.354 0.751,2.002 3.316,2.002 4.068,0 0.043,-0.118 0.088,-0.235 0.132,-0.354 0.521,-1.39 -0.806,-2.844 -2.166,-2.844z"/>
  <path class="fil2" d="M1520.224 620.083c-3.983,0 -3.983,6.177 0,6.177 3.985,0 3.985,-6.177 0,-6.177z"/>
  <path class="fil2" d="M1523.349 594.133c-2.044,0 -3.446,2.782 -1.754,4.236 0.07,0.058 0.14,0.119 0.21,0.179 0.957,0.821 2.131,0.821 3.088,0 0.07,-0.06 0.14,-0.121 0.21,-0.179 1.691,-1.454 0.29,-4.236 -1.754,-4.236z"/>
  <path class="fil2" d="M1510.071 608.894c-2.294,0 -2.294,3.557 0,3.557 2.293,0 2.293,-3.557 0,-3.557z"/>
  <path class="fil2" d="M2670.742 552.283c-2.777,0 -2.777,4.306 0,4.306 2.777,0 2.777,-4.306 0,-4.306z"/>
  <path class="fil2" d="M2676.209 543.097c-2.536,0 -2.536,3.932 0,3.932 2.536,0 2.536,-3.932 0,-3.932z"/>
  <path class="fil2" d="M2690.66 554.745c-4.64,0 -4.64,7.195 0,7.195 4.638,0 4.638,-7.195 0,-7.195z"/>
  <path class="fil2" d="M2658.245 545.489c-2.475,0 -2.475,3.838 0,3.838 2.476,0 2.476,-3.838 0,-3.838z"/>
  <path class="fil2" d="M2707.453 545.347c-2.657,0 -2.657,4.119 0,4.119 2.656,0 2.656,-4.119 0,-4.119z"/>
  <path class="fil2" d="M2711.305 555.337c-1.625,-0.446 -3.304,0.817 -3.294,2.511 0,0.081 0.002,0.162 0.002,0.243 0.015,2.709 3.269,3.17 4.696,1.271 0.05,-0.066 0.1,-0.135 0.15,-0.202 1.031,-1.371 -0.073,-3.414 -1.554,-3.823z"/>
  <path class="fil2" d="M2498.126 762.439c-2.718,0 -2.718,4.211 0,4.211 2.716,0 2.716,-4.211 0,-4.211z"/>
  <path class="fil2" d="M2509.351 773.542c-0.044,-0.119 -0.088,-0.235 -0.131,-0.354 -1.5,-4.003 -6.628,-4.003 -8.13,0 -0.043,0.119 -0.088,0.235 -0.131,0.354 -1.011,2.692 1.561,5.509 4.196,5.509 2.636,0 5.206,-2.817 4.196,-5.509z"/>
  <path class="fil2" d="M2517.652 767.625c-3.078,0 -3.078,4.773 0,4.773 3.079,0 3.079,-4.773 0,-4.773z"/>
  <path class="fil2" d="M2533.273 758.271c-3.069,0 -4.777,3.314 -3.394,5.914 0.053,0.1 0.106,0.198 0.159,0.298 1.297,2.439 5.173,2.439 6.471,0 0.054,-0.1 0.106,-0.198 0.158,-0.298 1.383,-2.6 -0.323,-5.914 -3.394,-5.914z"/>
  <path class="fil2" d="M2531.71 773.935c-1.991,0 -1.991,3.088 0,3.088 1.993,0 1.993,-3.088 0,-3.088z"/>
  <path class="fil2" d="M2933.389 488.321c-0.025,-0.03 -0.05,-0.059 -0.075,-0.088 -0.54,-0.65 -1.512,-0.775 -2.281,-0.604 -0.167,0.037 -0.3,0.119 -0.449,0.183 -0.979,0.131 -1.858,0.863 -2.127,1.842 -0.401,1.458 0.496,2.573 1.765,3.108 1.154,0.488 2.304,-0.033 3.167,-0.81 1.109,-0.998 0.856,-2.602 0,-3.631z"/>
  <path class="fil2" d="M2943.335 475.005c-2.714,0 -2.714,4.211 0,4.211 2.717,0 2.717,-4.211 0,-4.211z"/>
  <path class="fil2" d="M2948.802 489.987c-5.552,0 -5.552,8.613 0,8.613 5.555,0 5.555,-8.613 0,-8.613z"/>
  <path class="fil2" d="M2958.176 464.475c-3.198,0 -3.198,4.961 0,4.961 3.2,0 3.2,-4.961 0,-4.961z"/>
  <path class="fil2" d="M2958.957 475.333c-2.293,0 -2.293,3.556 0,3.556 2.294,0 2.294,-3.556 0,-3.556z"/>
  <path class="fil2" d="M2948.023 462.694c-2.475,0 -2.475,3.838 0,3.838 2.473,0 2.473,-3.838 0,-3.838z"/>
  <path class="fil2" d="M2975.36 450.308c-4.346,0 -4.346,6.74 0,6.74 4.346,0 4.346,-6.74 0,-6.74z"/>
  <path class="fil2" d="M2980.046 462.507c-1.715,0 -2.465,1.76 -1.819,3.168 0.096,0.207 0.19,0.411 0.284,0.617 0.535,1.163 2.535,1.163 3.071,0 0.093,-0.206 0.189,-0.41 0.283,-0.617 0.646,-1.408 -0.104,-3.168 -1.819,-3.168z"/>
  <path class="fil2" d="M1959.708 617.905c-4.105,0 -4.105,6.365 0,6.365 4.104,0 4.104,-6.365 0,-6.365z"/>
  <path class="fil2" d="M1965.956 602.296c-5.432,0 -5.432,8.424 0,8.424 5.431,0 5.431,-8.424 0,-8.424z"/>
  <path class="fil2" d="M1971.162 615.566c-1.75,0 -1.75,2.712 0,2.712 1.751,0 1.751,-2.712 0,-2.712z"/>
  <path class="fil2" d="M1977.096 597.136c0.031,0.649 0.108,1.016 0.427,1.583 0.394,0.7 1.465,0.7 1.858,0 0.322,-0.567 0.398,-0.934 0.43,-1.583 0.083,-1.751 -2.798,-1.751 -2.715,0z"/>
  <path class="fil2" d="M1971.162 584.954c-2.823,0 -3.794,3.798 -1.417,5.233 0.15,0.09 0.3,0.181 0.449,0.273 0.571,0.352 1.366,0.352 1.937,0 0.15,-0.092 0.298,-0.183 0.448,-0.273 2.379,-1.435 1.406,-5.233 -1.417,-5.233z"/>
  <path class="fil2" d="M1947.211 634.838c-2.415,0 -2.415,3.744 0,3.744 2.412,0 2.412,-3.744 0,-3.744z"/>
  <path class="fil2" d="M2221.009 668.419c-0.142,-0.106 -0.284,-0.21 -0.426,-0.315 -0.264,-0.195 -0.774,-0.195 -1.039,0 -0.142,0.105 -0.283,0.209 -0.425,0.315 -1.419,1.048 -1.06,3.487 0.946,3.487 2.004,0 2.365,-2.439 0.944,-3.487z"/>
  <path class="fil2" d="M2224.744 650.776c-1.769,-2.242 -5.352,1.34 -3.11,3.111 0.97,0.767 1.739,1.293 3.019,1.019 0.51,-0.109 1.002,-0.603 1.112,-1.111 0.273,-1.279 -0.254,-2.048 -1.021,-3.019z"/>
  <path class="fil2" d="M2228.396 664.196c-3.502,0 -3.502,5.429 0,5.429 3.501,0 3.501,-5.429 0,-5.429z"/>
  <path class="fil2" d="M2237.768 646.609c-6.036,0 -6.036,9.359 0,9.359 6.036,0 6.036,-9.359 0,-9.359z"/>
  <path class="fil2" d="M2350.739 739.111c-0.127,-0.08 -0.254,-0.161 -0.381,-0.24 -1.49,-0.927 -3.45,0.279 -3.45,1.982 0,1.699 1.96,2.906 3.45,1.979 0.127,-0.079 0.254,-0.159 0.381,-0.238 1.304,-0.812 1.304,-2.673 0,-3.483z"/>
  <path class="fil2" d="M2359.615 729.654c-2.354,0 -2.354,3.65 0,3.65 2.354,0 2.354,-3.65 0,-3.65z"/>
  <path class="fil2" d="M2367.73 741.825c-1.856,-1.087 -5.094,-0.206 -5.432,2.209 -0.189,1.362 -0.083,2.563 0.952,3.598 1.688,1.688 4.601,1.309 5.807,-0.748 1.019,-1.74 0.409,-4.042 -1.327,-5.059z"/>
  <path class="fil2" d="M2591.854 674.798c-0.173,0.009 -0.348,0.017 -0.521,0.025 -3.225,0.154 -3.225,4.851 0,5.005 0.173,0.008 0.348,0.016 0.521,0.025 3.258,0.154 3.258,-5.211 0,-5.055z"/>
  <path class="fil2" d="M2599.144 661.352c-3.14,0 -3.14,4.867 0,4.867 3.137,0 3.137,-4.867 0,-4.867z"/>
  <path class="fil2" d="M2609.559 670.492c-3.442,0 -3.442,5.336 0,5.336 3.44,0 3.44,-5.336 0,-5.336z"/>
  <path class="fil2" d="M2607.476 643.321c-0.348,-0.004 -0.694,-0.008 -1.042,-0.012 -0.936,-0.01 -1.742,0.796 -1.731,1.732 0.004,0.347 0.008,0.693 0.012,1.041 0.027,2.396 2.994,3.671 4.713,1.952 1.719,-1.718 0.444,-4.685 -1.952,-4.713z"/>
  <path class="fil2" d="M2821.218 704.152c-0.332,-0.364 -0.659,-0.6 -1.105,-0.81 -1.625,-0.767 -3.662,0.133 -3.662,2.102 0,1.967 2.037,2.867 3.662,2.1 0.446,-0.208 0.773,-0.446 1.105,-0.81 0.693,-0.763 0.693,-1.819 0,-2.582z"/>
  <path class="fil2" d="M2829.676 700.935c-1.323,-0.773 -3.07,-0.31 -3.842,1.009 -1.004,1.711 0.032,3.448 1.678,4.123 2.944,1.208 4.875,-3.542 2.164,-5.132z"/>
  <path class="fil2" d="M2828.258 714.759c-4.105,0 -4.105,6.363 0,6.363 4.104,0 4.104,-6.363 0,-6.363z"/>
  <path class="fil2" d="M2837.631 704.813c-3.5,0 -3.5,5.427 0,5.427 3.5,0 3.5,-5.427 0,-5.427z"/>
  <path class="fil2" d="M2791.955 703.881c0.011,0.173 0.019,0.348 0.029,0.521 0.201,3.798 5.697,3.798 5.897,0 0.008,-0.173 0.019,-0.348 0.027,-0.521 0.204,-3.837 -6.155,-3.837 -5.953,0z"/>
  <path class="fil2" d="M2782.436 690.747c-2.837,0 -2.837,4.398 0,4.398 2.836,0 2.836,-4.398 0,-4.398z"/>
  <path class="fil2" d="M2853.253 675.98c-3.079,0 -3.079,4.773 0,4.773 3.077,0 3.077,-4.773 0,-4.773z"/>
  <path class="fil2" d="M2855.54 686.147c-0.162,-0.039 -0.324,-0.079 -0.487,-0.119 -1.796,-0.441 -3.612,0.859 -3.612,2.753 0,1.894 1.816,3.193 3.612,2.752 0.163,-0.04 0.325,-0.079 0.487,-0.119 2.611,-0.644 2.611,-4.623 0,-5.267z"/>
  <path class="fil2" d="M2874.881 643.972c-1.833,-1.075 -5.029,-0.205 -5.363,2.181 -0.187,1.344 -0.083,2.529 0.94,3.552 1.667,1.665 4.544,1.292 5.734,-0.739 1.006,-1.717 0.404,-3.99 -1.311,-4.994z"/>
  <path class="fil2" d="M2600.185 648.001c-2.898,0 -2.898,4.494 0,4.494 2.898,0 2.898,-4.494 0,-4.494z"/>
  <path class="fil2" d="M2601.227 678.753c-6.217,0 -6.217,9.64 0,9.64 6.216,0 6.216,-9.64 0,-9.64z"/>
  <path class="fil2" d="M2727.885 601.696c-0.196,-0.15 -0.383,-0.308 -0.563,-0.479 -0.668,-0.605 -1.581,-0.605 -2.25,0 -0.177,0.171 -0.364,0.329 -0.56,0.479 -1.694,1.359 -0.231,4.075 1.685,4.075 1.919,0 3.382,-2.716 1.688,-4.075z"/>
  <path class="fil2" d="M2735.571 593.379c-3.5,0 -3.5,5.429 0,5.429 3.5,0 3.5,-5.429 0,-5.429z"/>
  <path class="fil2" d="M2739.736 608.826c-3.665,0 -4.886,4.175 -2.78,6.711 0.08,0.094 0.159,0.189 0.238,0.283 1.173,1.413 3.913,1.413 5.085,0 0.08,-0.094 0.159,-0.189 0.238,-0.283 2.106,-2.536 0.886,-6.711 -2.781,-6.711z"/>
  <path class="fil0" d="M1677.805 564.373c-0.046,-6.113 -13.209,-22.564 -19.716,-30.466l-0.004 -0.015c0,0 16.947,11.353 15.345,5.155 -1.438,-5.557 -8.728,-16.614 -14.33,-26.29 0.306,-0.629 11.128,11.093 9.836,5.678 -1.761,-7.386 -14.453,-33.002 -16.628,-34.05 -2.656,-1.282 -4.428,1.921 -4.428,1.921 -2.656,2.56 -20.292,35.194 -15.349,32.983 2.182,-0.975 7.105,-4.371 9.543,-6.09 -7.263,11.615 -18.463,32.204 -13.854,30.304 3.671,-1.513 14.417,-7.407 14.417,-7.407 0,0 -22.909,29.096 -17.178,29.146 8.047,0.071 17.482,-7.973 24.134,-7.973 7.392,0 28.245,11.438 28.212,7.104z"/>
  <polygon class="fil0" points="-134.217,935.375 1428.378,935.375 1428.378,-2.181 -134.217,-2.181 "/>
  <path class="fil1" d="M1261.352 514.899c-64.998,0.625 -84.753,-187.465 -157.208,-185.361 -98.083,2.85 -98.897,229.458 -178.081,237.79 -79.184,8.331 -60.968,-147.087 -141.698,-148.062 -58.051,-0.7 -50.053,75.628 -97.123,75.757 -53.918,0.146 -51.573,-195.381 -181.144,-195.381 -132.987,0 -128.299,230.208 -201.087,231.933 -64.746,1.536 -47.551,-186.759 -131.21,-184.827 -69.692,1.61 -55.433,106.968 -111.695,108.154 -81.2,1.712 -67.747,-224.122 -195.484,-227.462l0 712.16 1562.594 0 0 -712.153c-105.854,0.785 -95.129,286.752 -167.864,287.452z"/>
  <path class="fil8" d="M1429.216 441.034c-0.065,0 -0.125,-0.008 -0.189,-0.006 -115.084,3.425 -117.168,253.636 -171.348,254.157 -73.451,0.706 -55.435,-165.335 -135.661,-165.335 -80.225,0 -100.187,220.426 -164.784,226.674 -64.598,6.249 -53.137,-111.431 -98.979,-111.431 -45.845,0 -44.759,92.674 -83.353,89.561 -43.901,-3.54 -7.955,-148.819 -72.934,-149.269 -46.811,-0.325 -35.047,112.923 -91.685,112.819 -82.471,-0.152 -49.625,-236.596 -134.404,-236.404 -73.072,0.165 -60.572,180.272 -113.566,176.002 -28.809,-2.322 -20.458,-61.341 -59.533,-62.122 -48.47,-0.969 -51.57,148.144 -103.005,149.601 -60.378,1.712 -55.069,-178.5 -119.575,-174.911 -47.792,2.659 -61.02,79.513 -82.272,79.253 -17.207,-0.213 -26.343,-24.475 -39.042,-73.788 -22.614,-87.822 -59.038,-115.08 -92.264,-114.807l0 498.572 1562.594 0 0 -498.566z"/>
  <path class="fil3" d="M642.587 205.108c-10.801,-11.136 21.205,-33.508 50.044,-14.707 0,0 7.942,-43.715 33.765,-34.696 17.976,6.282 14.25,36.3 14.25,36.3 0,0 12.904,-17.897 26.436,-14.675 7.683,1.829 8.833,20.281 8.833,20.281 0,0 26.137,3.795 47.343,7.497 8.563,1.496 -164.556,16.62 -180.671,0z"/>
  <path class="fil0" d="M658.55 190.622c-3.5,0 -3.5,5.427 0,5.427 3.502,0 3.502,-5.427 0,-5.427z"/>
  <path class="fil0" d="M656.468 200.122c-1.991,0 -1.991,3.088 0,3.088 1.992,0 1.992,-3.088 0,-3.088z"/>
  <path class="fil0" d="M667.923 199.993c-3.5,0 -3.5,5.43 0,5.43 3.501,0 3.501,-5.43 0,-5.43z"/>
  <path class="fil0" d="M676.255 191.065c-5.613,0 -5.613,8.705 0,8.705 5.613,0 5.613,-8.705 0,-8.705z"/>
  <path class="fil0" d="M686.67 203.539c-2.958,0 -2.958,4.586 0,4.586 2.957,0 2.957,-4.586 0,-4.586z"/>
  <path class="fil0" d="M743.947 199.327c-3.017,0 -3.017,4.679 0,4.679 3.019,0 3.019,-4.679 0,-4.679z"/>
  <path class="fil0" d="M754.362 193.593c-2.354,0 -2.354,3.65 0,3.65 2.354,0 2.354,-3.65 0,-3.65z"/>
  <path class="fil0" d="M755.964 199.635c-0.561,-0.104 -1.033,-0.177 -1.602,-0.121 -2.771,0.267 -2.771,4.038 0,4.305 0.569,0.056 1.041,-0.017 1.602,-0.122 2.017,-0.383 2.017,-3.679 0,-4.062z"/>
  <path class="fil0" d="M766.942 195.068c-0.163,0.035 -0.327,0.071 -0.49,0.106 -3.344,0.731 -3.344,6.005 0,6.736 0.163,0.035 0.327,0.071 0.49,0.106 2.271,0.498 4.563,-1.038 4.563,-3.475 0,-2.436 -2.292,-3.971 -4.563,-3.473z"/>
  <path class="fil3" d="M824.825 104.1c-6.343,-6.54 12.45,-19.674 29.382,-8.636 0,0 4.665,-25.666 19.827,-20.37 10.554,3.686 8.367,21.314 8.367,21.314 0,0 7.575,-10.511 15.52,-8.62 4.513,1.076 5.188,11.91 5.188,11.91 0,0 15.344,2.227 27.795,4.402 5.029,0.877 -96.616,9.757 -106.079,0z"/>
  <path class="fil0" d="M836.636 94.845c-2.113,0 -2.113,3.276 0,3.276 2.112,0 2.112,-3.276 0,-3.276z"/>
  <path class="fil0" d="M842.457 101.679c-0.571,-0.354 -0.99,-0.427 -1.656,-0.492 -1.99,-0.2 -1.99,3.286 0,3.088 0.666,-0.067 1.085,-0.137 1.656,-0.494 0.786,-0.49 0.786,-1.61 0,-2.102z"/>
  <path class="fil0" d="M863.712 92.772c-2.158,0 -3.143,2.233 -2.304,4.015 0.308,0.652 0.696,1.031 1.287,1.433 0.559,0.375 1.476,0.375 2.032,0 0.594,-0.402 0.982,-0.781 1.287,-1.433 0.842,-1.782 -0.145,-4.015 -2.302,-4.015z"/>
  <path class="fil0" d="M866.838 101.573c-2.838,0 -2.838,4.398 0,4.398 2.835,0 2.835,-4.398 0,-4.398z"/>
  <path class="fil0" d="M876.209 94.295c-4.165,0 -4.165,6.459 0,6.459 4.165,0 4.165,-6.459 0,-6.459z"/>
  <path class="fil3" d="M111.812 143.303c-6.343,-6.54 12.45,-19.674 29.383,-8.636 0,0 4.665,-25.666 19.826,-20.37 10.554,3.686 8.367,21.314 8.367,21.314 0,0 7.575,-10.511 15.52,-8.62 4.513,1.076 5.188,11.91 5.188,11.91 0,0 15.344,2.227 27.795,4.402 5.029,0.877 -96.616,9.757 -106.079,0z"/>
  <path class="fil0" d="M123.623 134.048c-2.113,0 -2.113,3.276 0,3.276 2.112,0 2.112,-3.276 0,-3.276z"/>
  <path class="fil0" d="M129.444 140.882c-0.571,-0.354 -0.99,-0.427 -1.656,-0.492 -1.99,-0.199 -1.99,3.286 0,3.088 0.666,-0.066 1.085,-0.137 1.656,-0.494 0.786,-0.49 0.786,-1.61 0,-2.102z"/>
  <path class="fil0" d="M150.699 131.975c-2.158,0 -3.143,2.233 -2.304,4.015 0.308,0.652 0.696,1.031 1.287,1.434 0.559,0.375 1.476,0.375 2.032,0 0.594,-0.403 0.982,-0.782 1.288,-1.434 0.841,-1.782 -0.146,-4.015 -2.303,-4.015z"/>
  <path class="fil0" d="M153.825 140.776c-2.838,0 -2.838,4.398 0,4.398 2.835,0 2.835,-4.398 0,-4.398z"/>
  <path class="fil0" d="M163.196 133.499c-4.165,0 -4.165,6.458 0,6.458 4.165,0 4.165,-6.458 0,-6.458z"/>
  <polygon class="fil1" points="206.16,324.4 145.141,324.4 175.664,217.058 "/>
  <polygon class="fil1" points="178.096,370.777 173.205,370.777 175.664,217.058 "/>
  <polygon class="fil1" points="186.954,256.846 175.664,251.687 175.637,249.795 186.496,255.224 "/>
  <polygon class="fil1" points="192.221,275.349 175.664,267.811 175.637,265.894 191.844,274.024 "/>
  <polygon class="fil1" points="197.949,295.498 175.664,285.368 175.637,283.451 197.65,294.471 "/>
  <polygon class="fil1" points="164.347,256.818 175.637,251.687 175.637,249.795 164.805,255.224 "/>
  <polygon class="fil1" points="159.08,275.349 175.637,267.811 175.637,265.894 159.484,273.997 "/>
  <polygon class="fil1" points="153.352,295.498 175.637,285.368 175.637,283.451 153.65,294.443 "/>
  <polygon class="fil1" points="776.229,426.158 780.395,426.158 780.395,327.07 776.229,327.07 "/>
  <polygon class="fil1" points="777.677,329.218 762.445,373.415 794.178,373.415 "/>
  <polygon class="fil1" points="777.833,309.59 766.349,342.907 790.272,342.907 "/>
  <polygon class="fil1" points="811.39,450.54 815.113,450.54 815.113,374.194 811.39,374.194 "/>
  <path class="fil1" d="M829.98 406.173c-0.027,-3.839 -8.296,-14.173 -12.384,-19.136l-0.002 -0.011c0,0 10.647,7.132 9.638,3.238 -0.902,-3.49 -5.481,-10.436 -9,-16.514 0.191,-0.394 6.989,6.968 6.177,3.568 -1.106,-4.641 -9.078,-20.731 -10.444,-21.389 -1.669,-0.805 -2.782,1.206 -2.782,1.206 -1.668,1.609 -12.746,22.107 -9.642,20.718 1.371,-0.613 4.465,-2.746 5.997,-3.826 -4.563,7.299 -11.599,20.229 -8.703,19.037 2.304,-0.95 9.055,-4.652 9.055,-4.652 0,0 -14.391,18.276 -10.791,18.307 5.055,0.044 10.982,-5.008 15.161,-5.008 4.642,0 17.741,7.183 17.72,4.462z"/>
  <polygon class="fil1" points="1100.748,338.029 1104.913,338.029 1104.913,274.768 1100.748,274.768 "/>
  <polygon class="fil1" points="1102.165,232.782 1086.169,307.738 1119.491,307.738 "/>
  <polygon class="fil1" points="521.22,310.321 525.385,310.321 525.385,247.06 521.22,247.06 "/>
  <polygon class="fil1" points="522.635,205.074 506.64,280.028 539.963,280.028 "/>
  <polygon class="fil1" points="555.958,245.974 539.963,320.928 573.286,320.928 "/>
  <path class="fil1" d="M939.433 570.462c-0.029,-3.827 -8.274,-14.132 -12.347,-19.08l-0.004 -0.01c0,0 10.616,7.11 9.611,3.229 -0.9,-3.48 -5.467,-10.405 -8.976,-16.466 0.192,-0.393 6.97,6.946 6.161,3.557 -1.102,-4.625 -9.052,-20.67 -10.415,-21.327 -1.662,-0.802 -2.771,1.203 -2.771,1.203 -1.665,1.604 -12.711,22.043 -9.615,20.659 1.366,-0.612 4.45,-2.74 5.977,-3.815 -4.548,7.276 -11.563,20.17 -8.677,18.981 2.3,-0.948 9.03,-4.64 9.03,-4.64 0,0 -14.349,18.224 -10.76,18.255 5.04,0.044 10.951,-4.996 15.116,-4.996 4.631,0 17.69,7.165 17.67,4.45z"/>
  <path class="fil2" d="M399.261 619.059c-0.202,0 -0.202,0.312 0,0.312 0.202,0 0.202,-0.312 0,-0.312z"/>
  <path class="fil0" d="M627.333 198.89c-3.5,0 -3.5,5.428 0,5.428 3.502,0 3.502,-5.428 0,-5.428z"/>
  <path class="fil0" d="M625.251 208.39c-1.991,0 -1.991,3.088 0,3.088 1.992,0 1.992,-3.088 0,-3.088z"/>
  <path class="fil0" d="M636.706 208.262c-3.5,0 -3.5,5.429 0,5.429 3.501,0 3.501,-5.429 0,-5.429z"/>
  <path class="fil0" d="M645.038 199.334c-5.613,0 -5.613,8.704 0,8.704 5.613,0 5.613,-8.704 0,-8.704z"/>
  <path class="fil0" d="M655.453 211.807c-2.958,0 -2.958,4.586 0,4.586 2.957,0 2.957,-4.586 0,-4.586z"/>
  <path class="fil0" d="M712.729 207.595c-3.016,0 -3.016,4.679 0,4.679 3.02,0 3.02,-4.679 0,-4.679z"/>
  <path class="fil0" d="M723.145 201.861c-2.355,0 -2.355,3.65 0,3.65 2.354,0 2.354,-3.65 0,-3.65z"/>
  <path class="fil0" d="M724.747 207.903c-0.561,-0.104 -1.033,-0.177 -1.602,-0.121 -2.771,0.267 -2.771,4.038 0,4.305 0.569,0.056 1.041,-0.017 1.602,-0.121 2.017,-0.384 2.017,-3.68 0,-4.063z"/>
  <path class="fil0" d="M735.725 203.336c-0.163,0.035 -0.328,0.071 -0.49,0.106 -3.344,0.731 -3.344,6.005 0,6.736 0.162,0.035 0.327,0.071 0.49,0.106 2.271,0.498 4.562,-1.037 4.562,-3.475 0,-2.435 -2.291,-3.971 -4.562,-3.473z"/>
  <polygon class="fil4" points="66.882,586.678 71.734,586.678 71.734,451.222 66.882,451.222 "/>
  <polygon class="fil4" points="68.568,447.909 50.828,508.327 87.788,508.327 "/>
  <polygon class="fil4" points="68.424,484.367 44.09,569.089 94.526,569.089 "/>
  <polygon class="fil4" points="68.751,421.076 55.377,466.623 83.24,466.623 "/>
  <polygon class="fil5" points="1467.402,392.027 1396.823,392.027 1432.129,267.869 "/>
  <polygon class="fil4" points="1434.94,445.671 1429.285,445.671 1432.129,267.869 "/>
  <polygon class="fil4" points="1445.188,313.889 1432.129,307.921 1432.096,305.734 1444.657,312.016 "/>
  <polygon class="fil4" points="1451.28,335.29 1432.129,326.575 1432.096,324.356 1450.843,333.761 "/>
  <polygon class="fil4" points="1457.903,358.598 1432.129,346.882 1432.096,344.663 1457.56,357.41 "/>
  <polygon class="fil4" points="1419.037,313.857 1432.096,307.921 1432.096,305.734 1419.568,312.016 "/>
  <polygon class="fil4" points="1412.944,335.29 1432.096,326.575 1432.096,324.356 1413.413,333.729 "/>
  <polygon class="fil4" points="1406.321,358.598 1432.096,346.882 1432.096,344.663 1406.665,357.379 "/>
  <polygon class="fil4" points="1394.118,459.603 1398.283,459.603 1398.283,360.517 1394.118,360.517 "/>
  <polygon class="fil6" points="1395.723,343.038 1384.241,376.355 1408.163,376.355 "/>
  <polygon class="fil6" points="1395.566,362.666 1380.335,406.861 1412.067,406.861 "/>
  <polygon class="fil5" points="729.762,543.542 671.807,543.542 700.798,441.586 "/>
  <polygon class="fil4" points="703.106,587.592 698.462,587.592 700.798,441.586 "/>
  <polygon class="fil4" points="711.521,479.377 700.798,474.477 700.771,472.681 711.086,477.838 "/>
  <polygon class="fil4" points="716.523,496.952 700.798,489.795 700.771,487.972 716.165,495.695 "/>
  <polygon class="fil4" points="721.963,516.09 700.798,506.471 700.771,504.648 721.68,515.115 "/>
  <polygon class="fil4" points="690.047,479.353 700.771,474.477 700.771,472.681 690.483,477.838 "/>
  <polygon class="fil4" points="685.045,496.952 700.771,489.795 700.771,487.972 685.43,495.668 "/>
  <polygon class="fil4" points="679.605,516.09 700.771,506.471 700.771,504.648 679.888,515.09 "/>
  <polygon class="fil4" points="-96.967,461.422 -92.802,461.422 -92.802,362.335 -96.967,362.335 "/>
  <polygon class="fil4" points="-95.519,364.485 -110.752,408.679 -79.019,408.679 "/>
  <polygon class="fil0" points="-95.363,344.857 -106.846,378.174 -82.923,378.174 "/>
  <polygon class="fil0" points="1140.949,489.957 1070.37,489.957 1105.674,365.8 "/>
  <polygon class="fil4" points="1108.487,543.603 1102.83,543.603 1105.674,365.8 "/>
  <polygon class="fil4" points="1135.23,469.9 1105.674,483.334 1105.643,485.553 1135.449,470.65 "/>
  <polygon class="fil4" points="1130.138,451.905 1105.674,463.058 1105.643,465.277 1130.42,452.872 "/>
  <polygon class="fil4" points="1076.087,469.9 1105.643,483.334 1105.643,485.553 1075.868,470.65 "/>
  <polygon class="fil4" points="1081.181,451.905 1105.643,463.058 1105.643,465.277 1080.899,452.872 "/>
  <polygon class="fil5" points="506.64,403.14 421.32,403.14 464,253.045 "/>
  <polygon class="fil4" points="467.398,467.99 460.563,467.99 464,253.045 "/>
  <polygon class="fil4" points="499.729,378.893 464,395.133 463.963,397.814 499.994,379.799 "/>
  <polygon class="fil4" points="493.573,357.137 464,370.621 463.963,373.303 493.912,358.308 "/>
  <polygon class="fil4" points="428.233,378.893 463.963,395.133 463.963,397.814 427.969,379.799 "/>
  <polygon class="fil4" points="434.388,357.137 463.963,370.621 463.963,373.303 434.048,358.308 "/>
  <polygon class="fil5" points="1365.66,493.073 1369.384,493.073 1369.384,416.726 1365.66,416.726 "/>
  <path class="fil7" d="M1384.253 448.705c-0.029,-3.84 -8.298,-14.174 -12.386,-19.136l-0.002 -0.011c0,0 10.646,7.132 9.638,3.238 -0.902,-3.49 -5.482,-10.434 -9,-16.514 0.191,-0.394 6.989,6.967 6.177,3.567 -1.106,-4.64 -9.078,-20.731 -10.444,-21.388 -1.669,-0.805 -2.782,1.206 -2.782,1.206 -1.669,1.608 -12.747,22.107 -9.642,20.72 1.371,-0.615 4.465,-2.748 5.996,-3.826 -4.562,7.297 -11.599,20.229 -8.702,19.035 2.304,-0.95 9.054,-4.653 9.054,-4.653 0,0 -14.39,18.277 -10.79,18.308 5.055,0.044 10.982,-5.009 15.161,-5.009 4.642,0 17.741,7.184 17.722,4.463z"/>
  <polygon class="fil4" points="1133.365,543.952 1137.532,543.952 1137.532,480.691 1133.365,480.691 "/>
  <polygon class="fil5" points="1134.782,438.704 1118.787,513.659 1152.11,513.659 "/>
  <polygon class="fil5" points="954.013,762.019 958.177,762.019 958.177,698.758 954.013,698.758 "/>
  <polygon class="fil4" points="955.428,656.772 939.433,731.726 972.755,731.726 "/>
  <polygon class="fil5" points="302.607,594.72 307.73,594.72 307.73,516.915 302.607,516.915 "/>
  <polygon class="fil4" points="304.349,465.277 284.677,557.464 325.661,557.464 "/>
  <polygon class="fil4" points="497.037,477.524 502.152,477.524 502.152,365.235 497.037,365.235 "/>
  <polygon class="fil0" points="498.815,367.873 480.113,422.139 519.076,422.139 "/>
  <polygon class="fil0" points="499.006,343.773 484.908,384.68 514.28,384.68 "/>
  <path class="fil2" d="M454.716 479.809c-2.836,0 -2.836,4.398 0,4.398 2.838,0 2.838,-4.398 0,-4.398z"/>
  <path class="fil2" d="M462.527 469.752c-2.423,0 -4.446,2.021 -4.446,4.444 0,2.425 2.023,4.446 4.446,4.446 2.423,0 4.446,-2.021 4.446,-4.446 0,-2.423 -2.023,-4.444 -4.446,-4.444z"/>
  <path class="fil2" d="M479.322 467.529c-2.055,0 -2.055,3.182 0,3.182 2.05,0 2.05,-3.182 0,-3.182z"/>
  <path class="fil2" d="M487.522 470.017c-4.89,0 -4.89,7.579 0,7.579 4.888,0 4.888,-7.579 0,-7.579z"/>
  <path class="fil2" d="M448.859 476.494c-1.568,0 -1.568,2.436 0,2.436 1.57,0 1.57,-2.436 0,-2.436z"/>
  <path class="fil2" d="M493.381 488.978c-4.105,0 -4.105,6.365 0,6.365 4.104,0 4.104,-6.365 0,-6.365z"/>
  <path class="fil2" d="M503.144 484.071c-1.871,0 -1.871,2.903 0,2.903 1.871,0 1.871,-2.903 0,-2.903z"/>
  <path class="fil2" d="M505.486 493.745c-5.009,0 -5.009,7.769 0,7.769 5.011,0 5.011,-7.769 0,-7.769z"/>
  <path class="fil2" d="M511.734 489.243c-1.75,0 -1.75,2.713 0,2.713 1.752,0 1.752,-2.713 0,-2.713z"/>
  <path class="fil2" d="M543.759 659.861c-3.319,0 -3.319,5.148 0,5.148 3.319,0 3.319,-5.148 0,-5.148z"/>
  <path class="fil2" d="M549.226 642.944c-3.983,0 -3.983,6.178 0,6.178 3.984,0 3.984,-6.178 0,-6.178z"/>
  <path class="fil2" d="M554.695 657.943c-2.45,0 -4.494,2.044 -4.494,4.492 0,2.45 2.044,4.493 4.494,4.493 2.448,0 4.492,-2.043 4.492,-4.493 0,-2.448 -2.044,-4.492 -4.492,-4.492z"/>
  <path class="fil2" d="M560.162 647.879c-2.656,0 -2.656,4.117 0,4.117 2.656,0 2.656,-4.117 0,-4.117z"/>
  <path class="fil2" d="M570.315 679.075c-2.715,0 -2.715,4.211 0,4.211 2.716,0 2.716,-4.211 0,-4.211z"/>
  <path class="fil2" d="M558.599 695.899c-2.172,0 -2.172,3.369 0,3.369 2.174,0 2.174,-3.369 0,-3.369z"/>
  <path class="fil2" d="M582.032 694.887c-5.494,0 -5.494,8.517 0,8.517 5.492,0 5.492,-8.517 0,-8.517z"/>
  <path class="fil2" d="M696.849 594.672c-2.777,0 -2.777,4.306 0,4.306 2.775,0 2.775,-4.306 0,-4.306z"/>
  <path class="fil2" d="M707.783 589.597c-4.285,0 -4.285,6.646 0,6.646 4.286,0 4.286,-6.646 0,-6.646z"/>
  <path class="fil2" d="M714.032 599.593c-2.473,0 -2.473,3.838 0,3.838 2.475,0 2.475,-3.838 0,-3.838z"/>
  <path class="fil2" d="M718.72 591.893c-4.346,0 -4.346,6.74 0,6.74 4.345,0 4.345,-6.74 0,-6.74z"/>
  <path class="fil2" d="M724.968 601.341c-2.233,0 -2.233,3.465 0,3.465 2.233,0 2.233,-3.465 0,-3.465z"/>
  <path class="fil2" d="M728.091 615.854c-2.654,0 -2.654,4.12 0,4.12 2.656,0 2.656,-4.12 0,-4.12z"/>
  <path class="fil2" d="M594.529 697.226c-2.475,0 -2.475,3.838 0,3.838 2.475,0 2.475,-3.838 0,-3.838z"/>
  <path class="fil2" d="M849.388 657.038c-0.027,-0.121 -0.055,-0.244 -0.081,-0.366 -0.534,-2.476 -4.451,-2.476 -4.984,0 -0.027,0.122 -0.055,0.245 -0.081,0.366 -0.363,1.682 0.764,3.378 2.572,3.378 1.809,0 2.936,-1.696 2.574,-3.378z"/>
  <path class="fil2" d="M857.749 650.142c-1.75,0 -1.75,2.715 0,2.715 1.752,0 1.752,-2.715 0,-2.715z"/>
  <path class="fil2" d="M856.97 662.41c-5.072,0 -5.072,7.863 0,7.863 5.069,0 5.069,-7.863 0,-7.863z"/>
  <path class="fil2" d="M867.122 654.467c-0.202,0 -0.202,0.313 0,0.313 0.202,0 0.202,-0.313 0,-0.313z"/>
  <path class="fil2" d="M864.78 656.705c-2.354,0 -2.354,3.65 0,3.65 2.352,0 2.352,-3.65 0,-3.65z"/>
  <path class="fil2" d="M876.496 657.299c-2.597,0 -2.597,4.025 0,4.025 2.596,0 2.596,-4.025 0,-4.025z"/>
  <path class="fil2" d="M882.744 671.81c-3.017,0 -3.017,4.682 0,4.682 3.017,0 3.017,-4.682 0,-4.682z"/>
  <path class="fil2" d="M294.598 587.97c-2.354,0 -2.354,3.65 0,3.65 2.354,0 2.354,-3.65 0,-3.65z"/>
  <path class="fil2" d="M302.409 578.896c-3.986,0 -3.986,6.178 0,6.178 3.984,0 3.984,-6.178 0,-6.178z"/>
  <path class="fil2" d="M307.876 592.628c-4.407,0 -4.407,6.832 0,6.832 4.407,0 4.407,-6.832 0,-6.832z"/>
  <path class="fil2" d="M314.124 580.707c-2.656,0 -2.656,4.119 0,4.119 2.657,0 2.657,-4.119 0,-4.119z"/>
  <path class="fil2" d="M318.029 586.549c-2.173,0 -2.173,3.369 0,3.369 2.173,0 2.173,-3.369 0,-3.369z"/>
  <path class="fil2" d="M327.402 594.578c-2.896,0 -2.896,4.494 0,4.494 2.898,0 2.898,-4.494 0,-4.494z"/>
  <path class="fil2" d="M267.128 641.519l-0.121 -0.359c-0.692,-2.064 -3.488,-2.064 -4.182,0l-0.12 0.359c-1.236,3.681 5.658,3.681 4.423,0z"/>
  <path class="fil2" d="M270.384 626.009c-2.656,0 -2.656,4.117 0,4.117 2.657,0 2.657,-4.117 0,-4.117z"/>
  <path class="fil2" d="M274.289 633.604c-4.948,0 -4.948,7.675 0,7.675 4.95,0 4.95,-7.675 0,-7.675z"/>
  <path class="fil2" d="M46.217 579.238c-2.535,0 -2.535,3.932 0,3.932 2.535,0 2.535,-3.932 0,-3.932z"/>
  <path class="fil2" d="M53.247 570.664c-4.528,0 -4.528,7.02 0,7.02 4.527,0 4.527,-7.02 0,-7.02z"/>
  <path class="fil2" d="M58.714 583.051c-2.656,0 -2.656,4.117 0,4.117 2.656,0 2.656,-4.117 0,-4.117z"/>
  <path class="fil2" d="M65.744 575.567c-2.233,0 -2.233,3.462 0,3.462 2.233,0 2.233,-3.462 0,-3.462z"/>
  <path class="fil2" d="M101.672 562.62c-4.828,0 -4.828,7.486 0,7.486 4.83,0 4.83,-7.486 0,-7.486z"/>
  <path class="fil2" d="M97.767 575.521c-2.293,0 -2.293,3.556 0,3.556 2.294,0 2.294,-3.556 0,-3.556z"/>
  <path class="fil2" d="M109.483 574.225c-2.957,0 -2.957,4.586 0,4.586 2.958,0 2.958,-4.586 0,-4.586z"/>
  <path class="fil2" d="M-120.933 461.468c-3.319,0 -3.319,5.149 0,5.149 3.32,0 3.32,-5.149 0,-5.149z"/>
  <path class="fil2" d="M-114.684 449.349c-5.855,0 -5.855,9.08 0,9.08 5.855,0 5.855,-9.08 0,-9.08z"/>
  <path class="fil2" d="M-101.062 462.137c-0.058,-0.071 -0.117,-0.142 -0.177,-0.213 -0.412,-0.495 -1.246,-0.668 -1.841,-0.487 -0.12,0.037 -0.241,0.073 -0.361,0.111 -1.696,0.518 -1.696,2.91 0,3.429 0.12,0.037 0.241,0.073 0.361,0.11 0.595,0.181 1.429,0.008 1.841,-0.487 0.06,-0.071 0.119,-0.142 0.177,-0.213 0.596,-0.714 0.596,-1.535 0,-2.25z"/>
  <path class="fil2" d="M-92.033 464.375c-2.595,0 -2.595,4.023 0,4.023 2.596,0 2.596,-4.023 0,-4.023z"/>
  <path class="fil2" d="M-86.565 482.478c-2.415,0 -2.415,3.744 0,3.744 2.413,0 2.413,-3.744 0,-3.744z"/>
  <path class="fil2" d="M-113.902 474.467c-3.683,0 -3.683,5.709 0,5.709 3.681,0 3.681,-5.709 0,-5.709z"/>
  <path class="fil2" d="M129.011 663.453c-2.717,0 -2.717,4.213 0,4.213 2.715,0 2.715,-4.213 0,-4.213z"/>
  <path class="fil2" d="M134.478 653.253c-1.673,0 -2.627,1.816 -1.858,3.24 0.892,1.651 2.825,1.651 3.716,0 0.769,-1.424 -0.185,-3.24 -1.858,-3.24z"/>
  <path class="fil2" d="M138.718 671.269c-3.855,1.904 -0.886,7.754 2.811,5.589 3.298,-1.933 0.569,-7.258 -2.811,-5.589z"/>
  <path class="fil2" d="M144.631 661.345c-2.413,0 -2.413,3.744 0,3.744 2.414,0 2.414,-3.744 0,-3.744z"/>
  <path class="fil2" d="M154.85 692.953c-0.306,-0.096 -0.61,-0.19 -0.917,-0.285 -1.917,-0.594 -3.875,1.366 -3.281,3.281 0.093,0.306 0.19,0.613 0.283,0.919 0.705,2.264 3.584,3.137 5.319,1.404 1.736,-1.735 0.863,-4.617 -1.404,-5.319z"/>
  <path class="fil2" d="M-47.795 591.749c-0.311,-2.65 -3.809,-2.65 -4.12,0 -0.015,0.129 -0.031,0.26 -0.045,0.39 -0.319,2.712 4.529,2.712 4.211,0 -0.015,-0.13 -0.031,-0.261 -0.046,-0.39z"/>
  <path class="fil2" d="M-44.387 580.3c-1.362,0 -2.376,1.911 -1.192,2.875 0.143,0.117 0.287,0.236 0.43,0.352 0.491,0.401 1.032,0.401 1.524,0 0.142,-0.116 0.286,-0.235 0.429,-0.352 1.184,-0.964 0.171,-2.875 -1.191,-2.875z"/>
  <path class="fil2" d="M-36.577 600.827c-1.36,0 -2.686,1.454 -2.165,2.844 0.043,0.118 0.087,0.235 0.132,0.354 0.75,2.002 3.315,2.002 4.067,0 0.044,-0.119 0.088,-0.236 0.132,-0.354 0.521,-1.39 -0.805,-2.844 -2.166,-2.844z"/>
  <path class="fil2" d="M-38.139 617.17c-3.983,0 -3.983,6.177 0,6.177 3.984,0 3.984,-6.177 0,-6.177z"/>
  <path class="fil2" d="M-35.014 591.22c-2.044,0 -3.446,2.781 -1.754,4.235 0.07,0.059 0.14,0.119 0.21,0.179 0.956,0.821 2.131,0.821 3.088,0 0.069,-0.06 0.14,-0.12 0.209,-0.179 1.692,-1.454 0.29,-4.235 -1.753,-4.235z"/>
  <path class="fil2" d="M-48.292 605.981c-2.295,0 -2.295,3.556 0,3.556 2.293,0 2.293,-3.556 0,-3.556z"/>
  <path class="fil2" d="M1112.378 549.37c-2.777,0 -2.777,4.306 0,4.306 2.778,0 2.778,-4.306 0,-4.306z"/>
  <path class="fil2" d="M1117.845 540.184c-2.535,0 -2.535,3.931 0,3.931 2.536,0 2.536,-3.931 0,-3.931z"/>
  <path class="fil2" d="M1132.296 551.832c-4.639,0 -4.639,7.194 0,7.194 4.638,0 4.638,-7.194 0,-7.194z"/>
  <path class="fil2" d="M1099.882 542.576c-2.475,0 -2.475,3.837 0,3.837 2.475,0 2.475,-3.837 0,-3.837z"/>
  <path class="fil2" d="M1149.089 542.434c-2.656,0 -2.656,4.119 0,4.119 2.657,0 2.657,-4.119 0,-4.119z"/>
  <path class="fil2" d="M1152.942 552.424c-1.626,-0.446 -3.305,0.816 -3.295,2.51 0,0.082 0.003,0.163 0.003,0.244 0.014,2.708 3.269,3.169 4.696,1.271 0.05,-0.067 0.1,-0.135 0.15,-0.202 1.031,-1.371 -0.073,-3.415 -1.554,-3.823z"/>
  <path class="fil2" d="M939.762 759.526c-2.717,0 -2.717,4.211 0,4.211 2.717,0 2.717,-4.211 0,-4.211z"/>
  <path class="fil2" d="M950.987 770.628c-0.043,-0.118 -0.087,-0.235 -0.131,-0.354 -1.5,-4.002 -6.627,-4.002 -8.129,0 -0.044,0.119 -0.088,0.236 -0.132,0.354 -1.01,2.693 1.561,5.509 4.196,5.509 2.636,0 5.207,-2.816 4.196,-5.509z"/>
  <path class="fil2" d="M959.288 764.712c-3.077,0 -3.077,4.773 0,4.773 3.079,0 3.079,-4.773 0,-4.773z"/>
  <path class="fil2" d="M974.91 755.357c-3.069,0 -4.777,3.314 -3.394,5.915 0.052,0.099 0.106,0.198 0.159,0.297 1.297,2.44 5.172,2.44 6.471,0 0.054,-0.099 0.106,-0.198 0.158,-0.297 1.383,-2.601 -0.323,-5.915 -3.394,-5.915z"/>
  <path class="fil2" d="M973.347 771.022c-1.991,0 -1.991,3.088 0,3.088 1.992,0 1.992,-3.088 0,-3.088z"/>
  <path class="fil2" d="M1375.026 485.407c-0.026,-0.029 -0.05,-0.058 -0.075,-0.087 -0.54,-0.65 -1.513,-0.776 -2.282,-0.604 -0.166,0.037 -0.3,0.118 -0.448,0.183 -0.979,0.131 -1.858,0.863 -2.127,1.842 -0.402,1.458 0.496,2.572 1.765,3.108 1.154,0.488 2.304,-0.033 3.167,-0.81 1.108,-0.998 0.856,-2.602 0,-3.632z"/>
  <path class="fil2" d="M1384.972 472.092c-2.715,0 -2.715,4.21 0,4.21 2.717,0 2.717,-4.21 0,-4.21z"/>
  <path class="fil2" d="M1390.439 487.074c-5.552,0 -5.552,8.613 0,8.613 5.554,0 5.554,-8.613 0,-8.613z"/>
  <path class="fil2" d="M1399.813 461.562c-3.198,0 -3.198,4.961 0,4.961 3.199,0 3.199,-4.961 0,-4.961z"/>
  <path class="fil2" d="M1400.594 472.419c-2.294,0 -2.294,3.557 0,3.557 2.294,0 2.294,-3.557 0,-3.557z"/>
  <path class="fil2" d="M1389.66 459.781c-2.475,0 -2.475,3.837 0,3.837 2.473,0 2.473,-3.837 0,-3.837z"/>
  <path class="fil2" d="M1416.997 447.394c-4.346,0 -4.346,6.741 0,6.741 4.346,0 4.346,-6.741 0,-6.741z"/>
  <path class="fil2" d="M1421.683 459.593c-1.715,0 -2.465,1.761 -1.819,3.169 0.095,0.207 0.189,0.41 0.283,0.617 0.535,1.162 2.536,1.162 3.071,0 0.094,-0.207 0.19,-0.41 0.284,-0.617 0.645,-1.408 -0.105,-3.169 -1.819,-3.169z"/>
  <path class="fil2" d="M401.344 614.992c-4.104,0 -4.104,6.365 0,6.365 4.104,0 4.104,-6.365 0,-6.365z"/>
  <path class="fil2" d="M407.592 599.383c-5.431,0 -5.431,8.423 0,8.423 5.432,0 5.432,-8.423 0,-8.423z"/>
  <path class="fil2" d="M412.799 612.652c-1.75,0 -1.75,2.713 0,2.713 1.75,0 1.75,-2.713 0,-2.713z"/>
  <path class="fil2" d="M418.732 594.222c0.032,0.65 0.109,1.017 0.428,1.584 0.393,0.7 1.465,0.7 1.858,0 0.321,-0.567 0.398,-0.934 0.429,-1.584 0.084,-1.75 -2.798,-1.75 -2.715,0z"/>
  <path class="fil2" d="M412.799 582.04c-2.823,0 -3.794,3.798 -1.417,5.233 0.15,0.09 0.3,0.182 0.448,0.274 0.571,0.352 1.367,0.352 1.938,0 0.15,-0.092 0.298,-0.184 0.448,-0.274 2.379,-1.435 1.406,-5.233 -1.417,-5.233z"/>
  <path class="fil2" d="M388.848 631.924c-2.415,0 -2.415,3.745 0,3.745 2.412,0 2.412,-3.745 0,-3.745z"/>
  <path class="fil2" d="M662.645 665.506c-0.141,-0.107 -0.283,-0.211 -0.425,-0.315 -0.264,-0.196 -0.775,-0.196 -1.039,0 -0.142,0.104 -0.284,0.208 -0.426,0.315 -1.418,1.047 -1.06,3.487 0.947,3.487 2.004,0 2.364,-2.44 0.943,-3.487z"/>
  <path class="fil2" d="M666.381 647.863c-1.769,-2.242 -5.353,1.339 -3.111,3.111 0.971,0.766 1.74,1.293 3.019,1.018 0.511,-0.108 1.002,-0.602 1.113,-1.111 0.273,-1.279 -0.255,-2.047 -1.021,-3.018z"/>
  <path class="fil2" d="M670.033 661.282c-3.502,0 -3.502,5.43 0,5.43 3.5,0 3.5,-5.43 0,-5.43z"/>
  <path class="fil2" d="M679.404 643.696c-6.035,0 -6.035,9.359 0,9.359 6.036,0 6.036,-9.359 0,-9.359z"/>
  <path class="fil2" d="M792.376 736.198c-0.127,-0.08 -0.254,-0.161 -0.382,-0.241 -1.489,-0.926 -3.45,0.28 -3.45,1.982 0,1.7 1.961,2.907 3.45,1.979 0.128,-0.079 0.255,-0.158 0.382,-0.237 1.304,-0.813 1.304,-2.673 0,-3.483z"/>
  <path class="fil2" d="M801.251 726.741c-2.354,0 -2.354,3.65 0,3.65 2.355,0 2.355,-3.65 0,-3.65z"/>
  <path class="fil2" d="M809.367 738.911c-1.857,-1.086 -5.094,-0.205 -5.432,2.21 -0.19,1.362 -0.083,2.562 0.952,3.598 1.688,1.687 4.601,1.308 5.807,-0.748 1.018,-1.741 0.408,-4.042 -1.327,-5.06z"/>
  <path class="fil2" d="M1033.491 671.885c-0.173,0.008 -0.348,0.017 -0.521,0.025 -3.225,0.154 -3.225,4.85 0,5.005 0.173,0.008 0.348,0.016 0.521,0.024 3.258,0.154 3.258,-5.21 0,-5.054z"/>
  <path class="fil2" d="M1040.78 658.439c-3.139,0 -3.139,4.867 0,4.867 3.138,0 3.138,-4.867 0,-4.867z"/>
  <path class="fil2" d="M1051.196 667.579c-3.442,0 -3.442,5.335 0,5.335 3.439,0 3.439,-5.335 0,-5.335z"/>
  <path class="fil2" d="M1049.112 640.408c-0.348,-0.004 -0.694,-0.008 -1.042,-0.012 -0.935,-0.01 -1.741,0.796 -1.731,1.731 0.005,0.348 0.009,0.694 0.013,1.042 0.027,2.396 2.994,3.671 4.713,1.952 1.718,-1.719 0.443,-4.686 -1.953,-4.713z"/>
  <path class="fil2" d="M1262.854 701.239c-0.331,-0.364 -0.658,-0.6 -1.104,-0.81 -1.625,-0.767 -3.663,0.133 -3.663,2.102 0,1.966 2.038,2.866 3.663,2.1 0.446,-0.209 0.773,-0.446 1.104,-0.811 0.694,-0.762 0.694,-1.819 0,-2.581z"/>
  <path class="fil2" d="M1271.313 698.022c-1.323,-0.773 -3.071,-0.311 -3.842,1.008 -1.004,1.711 0.031,3.449 1.677,4.124 2.944,1.208 4.876,-3.542 2.165,-5.132z"/>
  <path class="fil2" d="M1269.894 711.846c-4.104,0 -4.104,6.363 0,6.363 4.105,0 4.105,-6.363 0,-6.363z"/>
  <path class="fil2" d="M1279.268 701.899c-3.5,0 -3.5,5.428 0,5.428 3.5,0 3.5,-5.428 0,-5.428z"/>
  <path class="fil2" d="M1233.592 700.968c0.011,0.173 0.019,0.348 0.029,0.521 0.2,3.798 5.696,3.798 5.896,0 0.009,-0.173 0.019,-0.348 0.028,-0.521 0.204,-3.838 -6.155,-3.838 -5.953,0z"/>
  <path class="fil2" d="M1224.073 687.834c-2.838,0 -2.838,4.398 0,4.398 2.835,0 2.835,-4.398 0,-4.398z"/>
  <path class="fil2" d="M1294.89 673.066c-3.08,0 -3.08,4.773 0,4.773 3.077,0 3.077,-4.773 0,-4.773z"/>
  <path class="fil2" d="M1297.177 683.234c-0.162,-0.04 -0.325,-0.079 -0.487,-0.119 -1.796,-0.442 -3.613,0.858 -3.613,2.752 0,1.894 1.817,3.194 3.613,2.752 0.162,-0.039 0.325,-0.079 0.487,-0.118 2.611,-0.644 2.611,-4.623 0,-5.267z"/>
  <path class="fil2" d="M1316.518 641.058c-1.834,-1.075 -5.029,-0.204 -5.363,2.182 -0.187,1.343 -0.083,2.529 0.94,3.552 1.666,1.664 4.544,1.292 5.734,-0.74 1.006,-1.717 0.404,-3.99 -1.311,-4.994z"/>
  <path class="fil2" d="M1041.822 645.088c-2.898,0 -2.898,4.494 0,4.494 2.898,0 2.898,-4.494 0,-4.494z"/>
  <path class="fil2" d="M1042.864 675.84c-6.217,0 -6.217,9.64 0,9.64 6.215,0 6.215,-9.64 0,-9.64z"/>
  <path class="fil2" d="M1169.522 598.783c-0.196,-0.15 -0.384,-0.308 -0.563,-0.48 -0.669,-0.604 -1.581,-0.604 -2.25,0 -0.177,0.172 -0.365,0.33 -0.561,0.48 -1.694,1.358 -0.231,4.075 1.686,4.075 1.919,0 3.381,-2.717 1.688,-4.075z"/>
  <path class="fil2" d="M1177.208 590.466c-3.501,0 -3.501,5.429 0,5.429 3.499,0 3.499,-5.429 0,-5.429z"/>
  <path class="fil2" d="M1181.372 605.912c-3.665,0 -4.886,4.176 -2.779,6.711 0.079,0.094 0.158,0.19 0.238,0.284 1.172,1.412 3.912,1.412 5.085,0 0.079,-0.094 0.158,-0.19 0.237,-0.284 2.107,-2.535 0.886,-6.711 -2.781,-6.711z"/>
  <path class="fil0" d="M119.442 561.46c-0.046,-6.113 -13.21,-22.564 -19.716,-30.466l-0.004 -0.015c0,0 16.947,11.353 15.344,5.154 -1.437,-5.556 -8.727,-16.613 -14.33,-26.289 0.307,-0.629 11.128,11.092 9.837,5.677 -1.761,-7.386 -14.453,-33.002 -16.628,-34.049 -2.657,-1.282 -4.428,1.92 -4.428,1.92 -2.656,2.561 -20.292,35.194 -15.349,32.984 2.182,-0.975 7.105,-4.372 9.542,-6.09 -7.262,11.615 -18.462,32.204 -13.853,30.304 3.67,-1.513 14.416,-7.407 14.416,-7.407 0,0 -22.909,29.096 -17.178,29.145 8.048,0.071 17.482,-7.973 24.135,-7.973 7.392,0 28.245,11.438 28.212,7.105z"/>
 </g>
</svg>
