<?xml version="1.0" encoding="UTF-8"?>
<!DOCTYPE svg PUBLIC "-//W3C//DTD SVG 1.1//EN" "http://www.w3.org/Graphics/SVG/1.1/DTD/svg11.dtd">
<!-- Creator: CorelDRAW Standard 2021 (64-Bit Оценочная версия) -->
<svg xmlns="http://www.w3.org/2000/svg" xml:space="preserve" width="2953px" height="938px" version="1.1" style="shape-rendering:geometricPrecision; text-rendering:geometricPrecision; image-rendering:optimizeQuality; fill-rule:evenodd; clip-rule:evenodd"
viewBox="0 0 2953 937.578"
 xmlns:xlink="http://www.w3.org/1999/xlink"
 xmlns:xodm="http://www.corel.com/coreldraw/odm/2003">
 <defs>
  <style type="text/css">
   <![CDATA[
    .fil5 {fill:#FEFEFE;fill-rule:nonzero}
    .fil7 {fill:#E9E9E9;fill-rule:nonzero}
    .fil0 {fill:#E8F5FA;fill-rule:nonzero}
    .fil2 {fill:#DAD9DA;fill-rule:nonzero}
    .fil1 {fill:#D1CFCF;fill-rule:nonzero}
    .fil6 {fill:#CCE5E6;fill-rule:nonzero}
    .fil8 {fill:#BFBCBC;fill-rule:nonzero}
    .fil3 {fill:#A7C2C6;fill-rule:nonzero}
    .fil4 {fill:#9BB8BB;fill-rule:nonzero}
   ]]>
  </style>
 </defs>
 <g id="Слой_x0020_1">
  <metadata id="CorelCorpID_0Corel-Layer"/>
  <path class="fil0" d="M2913.137 516.354c-8.577,-2.065 -17.524,-3.186 -26.735,-3.186 -25.792,0 -49.575,8.582 -68.671,23.035 0.053,-1.262 0.097,-2.529 0.097,-3.806 0,-49.587 -40.185,-89.787 -89.754,-89.787 -35.59,0 -66.266,20.766 -80.775,50.811 -7.632,-16.527 -24.304,-28.021 -43.697,-28.021 -11.112,0 -21.315,3.802 -29.464,10.126 -11.442,-21.679 -34.189,-36.462 -60.4,-36.462 -32.499,0 -59.676,22.725 -66.566,53.15 -12.116,-10.978 -28.186,-17.666 -45.818,-17.666 -21,0 -39.775,9.491 -52.299,24.409 -0.919,0.046 -1.831,0.094 -2.748,0.141 -9.427,-26.427 -34.655,-45.345 -64.311,-45.345 -33.268,0 -60.964,23.808 -67.027,55.319 -3.213,0.385 -13.061,-13.726 -34.613,-7.519 -13.136,3.783 -18.845,10.915 -27.415,20.256 -0.881,-0.379 -1.895,-0.74 -3.087,-1.073 -7.901,-14.748 -23.442,-24.784 -41.337,-24.784 -15.987,0 -30.086,8.019 -38.547,20.241 -10.959,-30.733 -40.245,-52.76 -74.731,-52.76 -38.845,0 -71.152,27.917 -78.019,64.787 -12.962,-9.212 -28.794,-14.645 -45.904,-14.645 -36.101,0 -66.552,24.112 -76.19,57.108 -4.563,-0.72 -9.23,-1.131 -13.995,-1.131 -13.349,0 -26.004,2.935 -37.39,8.165 -5.619,-44.183 -43.31,-78.348 -89.003,-78.348 -32.507,0 -60.978,17.289 -76.726,43.177 -13.632,-10.949 -30.522,-17.987 -48.991,-19.446 0.289,-2.927 0.443,-5.894 0.443,-8.896 0,-48.944 -39.153,-88.712 -87.832,-89.739l0 517.999 1562.63 0 0 -511.815c-48.536,0 -88.208,37.886 -91.125,85.705z"/>
  <path class="fil1" d="M1994.978 453.749c0,6.927 -5.615,12.543 -12.542,12.543 -6.928,0 -12.543,-5.616 -12.543,-12.543 0,-6.928 5.615,-12.543 12.543,-12.543 6.927,0 12.542,5.615 12.542,12.543z"/>
  <path class="fil1" d="M2045.166 564.979c0,5.444 -4.415,9.859 -9.859,9.859 -5.445,0 -9.86,-4.415 -9.86,-9.859 0,-5.446 4.415,-9.859 9.86,-9.859 5.444,0 9.859,4.413 9.859,9.859z"/>
  <path class="fil1" d="M2047.845 463.893c0,5.444 -4.415,9.86 -9.859,9.86 -5.446,0 -9.861,-4.416 -9.861,-9.86 0,-5.446 4.415,-9.859 9.861,-9.859 5.444,0 9.859,4.413 9.859,9.859z"/>
  <path class="fil1" d="M2309.519 648.062c0,5.447 -4.413,9.86 -9.86,9.86 -5.444,0 -9.859,-4.413 -9.859,-9.86 0,-5.444 4.415,-9.858 9.859,-9.858 5.447,0 9.86,4.414 9.86,9.858z"/>
  <path class="fil1" d="M2139.146 542.15c0,15.024 -12.182,27.206 -27.206,27.206 -15.027,0 -27.206,-12.182 -27.206,-27.206 0,-15.027 12.179,-27.206 27.206,-27.206 15.024,0 27.206,12.179 27.206,27.206z"/>
  <path class="fil2" d="M2454.606 558.67c0,8.928 -7.238,16.168 -16.168,16.168 -8.928,0 -16.166,-7.24 -16.166,-16.168 0,-8.928 7.238,-16.168 16.166,-16.168 8.93,0 16.168,7.24 16.168,16.168z"/>
  <path class="fil1" d="M2479.589 520.64c0,5.869 -4.756,10.625 -10.626,10.625 -5.867,0 -10.626,-4.756 -10.626,-10.625 0,-5.868 4.759,-10.626 10.626,-10.626 5.87,0 10.626,4.758 10.626,10.626z"/>
  <path class="fil1" d="M2092.63 617.306c0,5.867 -4.759,10.626 -10.626,10.626 -5.869,0 -10.626,-4.759 -10.626,-10.626 0,-5.869 4.757,-10.628 10.626,-10.628 5.867,0 10.626,4.759 10.626,10.628z"/>
  <path class="fil1" d="M2146.843 644.737c0,5.87 -4.757,10.628 -10.626,10.628 -5.869,0 -10.626,-4.758 -10.626,-10.628 0,-5.867 4.757,-10.626 10.626,-10.626 5.869,0 10.626,4.759 10.626,10.626z"/>
  <path class="fil1" d="M2198.014 611.06c0,9.317 -7.555,16.872 -16.873,16.872 -9.317,0 -16.87,-7.555 -16.87,-16.872 0,-9.318 7.553,-16.87 16.87,-16.87 9.318,0 16.873,7.552 16.873,16.87z"/>
  <path class="fil3" d="M2376.31 455.124c-4.409,13.228 -23.635,12.699 -23.635,12.699 -16.227,49.287 -130.815,36.553 -150.28,26.412 -0.277,-0.154 -0.569,-0.323 -0.86,-0.506 -0.446,-0.294 -0.892,-0.631 -1.355,-1.017 -12.186,-10.324 -26.095,-52.852 10.695,-63.315 70.548,-20.05 85.233,22.433 111.463,44.422 15.169,12.716 25.576,-6.526 25.576,-6.526 0,0 -15.698,-7.936 -13.17,-21.639 4.35,7.001 16.345,9.47 16.874,16.349 2.065,-4.762 18.695,-4.233 24.692,-6.879z"/>
  <path class="fil4" d="M2376.31 455.124c-4.409,13.228 -23.635,12.699 -23.635,12.699 -16.227,49.287 -130.815,36.553 -150.28,26.412 -0.277,-0.154 -0.569,-0.323 -0.86,-0.506 -0.446,-0.294 -0.892,-0.631 -1.355,-1.017 -7.484,-6.34 -15.616,-24.823 -12.261,-40.57 60.057,-32.729 96.75,-0.735 121.083,20.606 14.424,12.649 32.142,10.799 38.912,-5.455 -1.207,-0.691 -12.256,-6.216 -13.377,-16.715 -0.164,-1.534 -0.116,-3.175 0.207,-4.924 4.35,7.001 16.345,9.47 16.874,16.349 2.065,-4.762 18.695,-4.233 24.692,-6.879z"/>
  <path class="fil3" d="M2275.501 497.302c2.015,9.197 18.042,26.206 45.677,27.725 0,0 -5.042,-9.633 -13.66,-15.166 -8.617,-5.529 -12.486,1.53 -17.834,-5.219 -5.348,-6.748 -15.472,-13.228 -14.183,-7.34z"/>
  <path class="fil5" d="M2247.697 470.331c-3.786,-0.295 -5.373,4.232 -4.705,7.307 0.223,1.034 1.709,0.576 1.555,-0.427 -0.3,-1.946 0.819,-6.115 3.594,-4.917 2.033,0.879 1.942,4.307 1.831,6.1 -0.079,1.263 1.921,1.269 1.967,0 0.104,-2.914 -0.469,-7.767 -4.242,-8.063z"/>
  <path class="fil5" d="M2202.248 494.152c12.728,1.665 26.189,0.65 37.363,-4.852 0.904,-0.453 0.113,-1.807 -0.79,-1.357 -7.59,3.755 -15.661,5.109 -24.07,5.222 -4.94,0.056 -9.935,-0.142 -14.816,-0.678l2.313 1.665z"/>
  <path class="fil6" d="M2256.521 487.854c0,1.487 -2.046,2.695 -4.571,2.695 -2.524,0 -4.57,-1.208 -4.57,-2.695 0,-1.49 2.046,-2.696 4.57,-2.696 2.525,0 4.571,1.206 4.571,2.696z"/>
  <path class="fil5" d="M1999.891 390.152c-17.383,8.577 -38.803,9.03 -58.048,5.221 -0.819,-0.537 -1.638,-1.158 -2.484,-1.863 8.778,1.411 18.062,1.946 27.119,1.834 11.317,-0.142 22.154,-1.975 32.34,-6.999 1.215,-0.62 2.288,1.215 1.073,1.807z"/>
  <path class="fil5" d="M2916.431 669.038c0,3.004 0.153,5.971 0.44,8.898 -18.466,1.457 -35.357,8.497 -48.989,19.445 -15.748,-25.887 -44.219,-43.178 -76.725,-43.178 -45.694,0 -83.385,34.167 -89.004,78.348 -11.386,-5.228 -24.041,-8.165 -37.39,-8.165 -5.538,0 -10.951,0.529 -16.212,1.489 -4.615,-40.361 -35.963,-72.589 -75.904,-78.5 0.004,-0.327 0.025,-0.65 0.025,-0.979 0,-49.588 -40.183,-89.787 -89.754,-89.787 -49.568,0 -89.752,40.199 -89.752,89.787 0,2.337 0.118,4.644 0.293,6.936 -10.657,-4.463 -22.356,-6.936 -34.634,-6.936 -27.623,0 -52.321,12.493 -68.785,32.13 -15.654,-26.299 -44.343,-43.927 -77.16,-43.927 -44.294,0 -81.067,32.107 -88.4,74.321 -11.332,-5.169 -23.916,-8.074 -37.186,-8.074 -3.298,0 -6.551,0.19 -9.757,0.538 6.226,-12.22 9.757,-26.042 9.757,-40.697 0,-49.588 -40.182,-89.787 -89.753,-89.787 -49.569,0 -89.751,40.199 -89.751,89.787 0,3.146 0.165,6.255 0.479,9.317 -15.972,-14.657 -37.261,-23.608 -60.645,-23.608 -16.326,0 -31.619,4.381 -44.807,12.003 -12.012,-35.438 -45.514,-60.953 -84.997,-60.953 -49.569,0 -89.753,40.199 -89.753,89.787 0,1.277 0.044,2.544 0.096,3.806 -19.096,-14.453 -42.879,-23.037 -68.67,-23.037 -9.212,0 -18.158,1.123 -26.737,3.188 -2.915,-47.819 -42.588,-85.705 -91.124,-85.705l0 356.979 1562.63 0 0 -363.165c-48.679,1.027 -87.831,40.797 -87.831,89.739z"/>
  <path class="fil0" d="M2054.379 291.01c2.208,4.257 0.548,9.499 -3.711,11.707 -4.256,2.209 -9.498,0.548 -11.705,-3.71 -2.209,-4.257 -0.548,-9.499 3.709,-11.705 4.256,-2.209 9.498,-0.549 11.707,3.708z"/>
  <path class="fil0" d="M2080.435 258.882c2.209,4.257 0.548,9.499 -3.708,11.708 -4.259,2.208 -9.499,0.548 -11.708,-3.709 -2.208,-4.258 -0.548,-9.499 3.709,-11.707 4.259,-2.209 9.499,-0.548 11.707,3.708z"/>
  <path class="fil0" d="M2077.47 283.762c1.415,2.727 0.351,6.084 -2.377,7.498 -2.725,1.415 -6.084,0.352 -7.496,-2.375 -1.415,-2.727 -0.352,-6.084 2.375,-7.498 2.727,-1.415 6.084,-0.352 7.498,2.375z"/>
  <path class="fil0" d="M2281.842 451.267c0.637,1.232 0.158,2.748 -1.075,3.388 -1.232,0.637 -2.749,0.158 -3.389,-1.075 -0.637,-1.231 -0.158,-2.748 1.076,-3.386 1.231,-0.639 2.748,-0.16 3.388,1.073z"/>
  <path class="fil0" d="M2295.599 441.873c1.273,2.452 0.314,5.473 -2.138,6.746 -2.452,1.271 -5.473,0.315 -6.746,-2.138 -1.271,-2.454 -0.315,-5.473 2.138,-6.746 2.454,-1.273 5.473,-0.314 6.746,2.138z"/>
  <path class="fil0" d="M2298.683 420.963c2.208,4.256 0.548,9.498 -3.709,11.705 -4.259,2.208 -9.499,0.548 -11.707,-3.709 -2.209,-4.256 -0.548,-9.498 3.708,-11.707 4.259,-2.208 9.499,-0.548 11.708,3.711z"/>
  <path class="fil0" d="M2320.201 388.618c2.208,4.257 0.548,9.499 -3.709,11.708 -4.258,2.208 -9.499,0.546 -11.707,-3.711 -2.209,-4.257 -0.548,-9.499 3.709,-11.707 4.258,-2.209 9.498,-0.546 11.707,3.71z"/>
  <path class="fil0" d="M2317.85 412.385c1.416,2.725 0.351,6.083 -2.377,7.499 -2.725,1.412 -6.083,0.349 -7.498,-2.378 -1.413,-2.727 -0.35,-6.083 2.377,-7.498 2.728,-1.415 6.084,-0.351 7.498,2.377z"/>
  <path class="fil7" d="M2785.765 524.432c-3.865,11.963 -6.613,24.406 -10.564,36.359 -4.465,13.511 -9.932,26.516 -16.299,38.874 -11.741,22.79 -27.686,42.335 -46.973,55.894 -18.989,13.351 -41.141,18.662 -62.865,14.42 -20.339,-3.969 -45.394,-19.451 -51.284,-45.049 -0.21,-0.911 -1.379,-0.525 -1.175,0.387 5.24,23.615 26.061,38.228 44.389,44.497 20.86,7.136 43.108,3.559 62.718,-6.831 21.06,-11.157 38.401,-30.871 51.694,-53.111 7.54,-12.615 13.586,-26.458 18.803,-40.636 5.18,-14.073 10.289,-29.272 12.71,-44.421 0.148,-0.921 -0.877,-1.244 -1.154,-0.383z"/>
  <path class="fil7" d="M2794.244 535.026c-7.275,31.072 -16.774,60.23 -31.369,87.556 -13.678,25.614 -31.196,50.568 -54.163,64.692 -45.527,28.003 -106.15,-6.317 -125.91,-59.402 -0.255,-0.68 -1.248,-0.184 -1.011,0.506 18.389,53.621 76.305,85.211 122.09,63.89 24.316,-11.322 42.485,-36.971 56.929,-61.88 16.302,-28.106 29.29,-61.24 34.995,-94.849 0.204,-1.207 -1.277,-1.719 -1.561,-0.513z"/>
  <path class="fil7" d="M2834.974 547.296c-11.523,34.974 -22.881,69.652 -41.601,100.904 -18.014,30.073 -43.328,55.488 -74.012,68.621 -32.505,13.911 -68.587,8.886 -98.812,-9.299 -29.363,-17.668 -51.304,-48.715 -64.01,-82.407 -0.306,-0.812 -1.521,-0.465 -1.214,0.369 12.182,33.319 32.244,62.18 60.065,81.263 29.217,20.041 65.391,25.768 98.298,14.716 68.551,-23.027 103.76,-103.757 122.95,-173.661 0.324,-1.189 -1.29,-1.642 -1.664,-0.506z"/>
  <path class="fil8" d="M2543.222 633.393c20.974,2.806 68.662,4.373 91.401,-5.295 22.739,-9.669 10.563,-25.933 -8.968,-15.915 -0.574,-9.67 0,-23.888 -8.373,-24.836 -7.655,-0.869 -12.559,15.168 -12.559,15.168 0,0 -0.215,-37.511 -16.965,-37.424 -23.01,0.123 -26.635,43.024 -26.635,43.024 0,0 -7.02,-30.521 -19.941,-27.543 -12.922,2.975 -10.328,31.95 -10.328,31.95 0,0 -24.711,-9.561 -30.713,-0.339 -7.263,11.15 22.106,18.401 43.081,21.21z"/>
  <path class="fil8" d="M2852.226 454.584l-1.95 0 0 2.555 -1.69 0 0 -2.555 -1.621 0 0 2.555 -1.689 0 0 -2.555 -1.69 0 0 2.555 -1.69 0 0 -2.555 -1.548 0 0 2.555 -1.69 0 0 -2.555 -1.55 0 0 2.555 -1.689 0 0 -2.555 -1.619 0 0 2.555 -1.69 0 -0.063 -13.372 2.073 0 -2.823 -5.538 -3.883 0.012 -0.046 -3.894 2.375 0c-1.856,-3.15 -3.367,-9.044 -4.094,-13.147 1.067,-0.19 1.879,-1.114 1.879,-2.237 0,-1.259 -1.021,-2.278 -2.277,-2.278 -1.259,0 -2.279,1.019 -2.279,2.278 0,1.141 0.841,2.077 1.937,2.243 -1.1,6.815 -3.864,13.141 -3.864,13.141l2.041 0 -0.008 3.901 -3.89 -0.046 0.015 -24.734 1.452 -1.693 0.008 -5.593 -1.725 0 0 -6.656 2.006 0c-3.054,-8.037 -5.231,-21.654 -6.006,-26.982 1.066,-0.19 1.879,-1.117 1.879,-2.238 0,-1.258 -1.021,-2.277 -2.28,-2.277 -1.256,0 -2.276,1.019 -2.276,2.277 0,1.182 0.901,2.142 2.054,2.257 -1.517,9.217 -6.828,26.963 -6.828,26.963l2.165 0 -0.027 6.656 -1.552 0 0 5.691 1.579 1.552 0 7.325c-3.044,-3.327 -4.611,-5.638 -4.611,-5.638 -1.713,2.732 -4.559,5.569 -4.559,5.569l0 -15.922 1.382 -0.012 2.106 -14.264 -3.777 0 -0.05 -2.536 3.721 0c-4.124,-7.686 -5.709,-17.941 -6.251,-22.718 1.18,-0.085 2.113,-1.06 2.113,-2.26 0,-1.259 -1.021,-2.28 -2.277,-2.28 -1.259,0 -2.28,1.021 -2.28,2.28 0,1.164 0.88,2.114 2.009,2.25 -1.088,11.071 -6.411,22.728 -6.411,22.728l3.494 0 0 2.588 -3.967 0 2.083 14.57 1.884 0 -0.021 24.971 -6.173 -0.098 0 -6.113c-4.765,-2.811 -7.074,-13.214 -7.074,-13.214 -2.415,10.349 -7.184,12.991 -7.184,12.991l-0.06 6.328 1.725 2.069 0 7.392 -6.898 9.511 3.45 0 -0.067 10.251 -2.348 2.513 0 -10.005 -1.892 0 0 2.833 -1.689 0 0 -2.833 -1.548 0 0 2.833 -1.69 0 0 -2.833 -1.55 0 0 2.833 -1.69 0 0 -2.833 -1.619 0 0 2.833 -1.69 0 0 -2.833 -1.81 0 0 7.315 3.104 3.38 -3.104 59.639c13.003,8.97 32.769,0.174 32.769,0.174 16.126,10.003 33.634,0.689 33.634,0.689 11.382,5.519 31.39,-1.163 31.39,-1.163l-3.277 -58.477 3.277 -3.553 0 -5.121z"/>
  <path class="fil7" d="M2762.306 550.534c24.936,3.34 81.626,5.201 108.659,-6.293 27.032,-11.494 12.556,-30.829 -10.663,-18.919 -0.684,-11.495 0,-28.397 -9.953,-29.526 -9.101,-1.031 -14.933,18.032 -14.933,18.032 0,0 -0.252,-44.593 -20.164,-44.488 -27.356,0.143 -31.665,51.148 -31.665,51.148 0,0 -8.346,-36.285 -23.708,-32.747 -15.362,3.538 -12.276,37.985 -12.276,37.985 0,0 -29.375,-11.368 -36.513,-0.404 -8.633,13.257 26.281,21.874 51.216,25.212z"/>
  <path class="fil0" d="M2843.627 437.772c0.975,0.988 0.963,2.58 -0.024,3.553 -0.988,0.975 -2.58,0.965 -3.555,-0.025 -0.973,-0.988 -0.962,-2.58 0.025,-3.553 0.99,-0.975 2.579,-0.962 3.554,0.025z"/>
  <path class="fil0" d="M2853.997 424.734c1.942,1.969 1.919,5.135 -0.05,7.076 -1.967,1.941 -5.136,1.918 -7.075,-0.051 -1.94,-1.966 -1.918,-5.136 0.05,-7.075 1.968,-1.94 5.136,-1.917 7.075,0.05z"/>
  <path class="fil0" d="M2850.77 403.845c3.367,3.417 3.327,8.913 -0.088,12.28 -3.415,3.369 -8.913,3.329 -12.28,-0.086 -3.367,-3.416 -3.327,-8.913 0.088,-12.28 3.415,-3.369 8.913,-3.329 12.28,0.086z"/>
  <path class="fil0" d="M2861.777 366.59c3.367,3.414 3.329,8.913 -0.087,12.28 -3.415,3.366 -8.914,3.327 -12.281,-0.088 -3.367,-3.415 -3.327,-8.913 0.088,-12.28 3.415,-3.367 8.913,-3.327 12.28,0.088z"/>
  <path class="fil0" d="M2866.55 389.989c2.157,2.188 2.132,5.709 -0.056,7.866 -2.188,2.158 -5.711,2.133 -7.867,-0.055 -2.157,-2.187 -2.132,-5.711 0.056,-7.867 2.188,-2.156 5.709,-2.131 7.867,0.056z"/>
  <path class="fil5" d="M2612.469 568.854c1.206,1.223 1.192,3.192 -0.031,4.398 -1.224,1.205 -3.193,1.192 -4.397,-0.031 -1.206,-1.223 -1.192,-3.192 0.031,-4.398 1.224,-1.207 3.193,-1.192 4.397,0.031z"/>
  <path class="fil5" d="M2622.434 553.438c1.94,1.967 1.919,5.136 -0.05,7.076 -1.967,1.94 -5.135,1.917 -7.075,-0.05 -1.94,-1.969 -1.917,-5.136 0.05,-7.076 1.969,-1.939 5.136,-1.919 7.075,0.05z"/>
  <path class="fil5" d="M2610.8 534.599c3.367,3.415 3.33,8.914 -0.088,12.28 -3.414,3.367 -8.913,3.33 -12.28,-0.085 -3.367,-3.417 -3.327,-8.913 0.088,-12.282 3.414,-3.367 8.913,-3.328 12.28,0.087z"/>
  <path class="fil0" d="M2040.309 69.902c2.594,2.632 2.565,6.87 -0.069,9.466 -2.631,2.596 -6.869,2.565 -9.465,-0.067 -2.594,-2.633 -2.565,-6.872 0.066,-9.466 2.634,-2.595 6.872,-2.566 9.468,0.067z"/>
  <path class="fil0" d="M2021.207 36.721c4.176,4.235 4.128,11.053 -0.108,15.23 -4.235,4.175 -11.055,4.127 -15.23,-0.108 -4.176,-4.236 -4.128,-11.056 0.108,-15.231 4.236,-4.175 11.055,-4.127 15.23,0.109z"/>
  <path class="fil0" d="M2381.71 118.011c2.596,2.631 2.565,6.871 -0.066,9.465 -2.634,2.596 -6.872,2.565 -9.466,-0.067 -2.596,-2.634 -2.564,-6.871 0.067,-9.467 2.633,-2.594 6.871,-2.563 9.465,0.069z"/>
  <path class="fil0" d="M2403.16 84.828c4.175,4.236 4.127,11.054 -0.108,15.231 -4.236,4.175 -11.053,4.125 -15.231,-0.108 -4.175,-4.236 -4.128,-11.055 0.108,-15.231 4.236,-4.177 11.056,-4.127 15.231,0.108z"/>
  <path class="fil0" d="M2378.118 44.281c7.249,7.351 7.163,19.185 -0.188,26.432 -7.35,7.249 -19.184,7.163 -26.431,-0.188 -7.248,-7.35 -7.163,-19.185 0.188,-26.431 7.351,-7.248 19.185,-7.163 26.431,0.187z"/>
  <path class="fil5" d="M1566.827 628.142c2.595,2.632 2.565,6.869 -0.067,9.466 -2.633,2.594 -6.871,2.565 -9.466,-0.069 -2.594,-2.632 -2.565,-6.869 0.067,-9.465 2.633,-2.594 6.87,-2.565 9.466,0.068z"/>
  <path class="fil5" d="M1587.158 597.535c3.769,3.824 3.725,9.979 -0.098,13.748 -3.823,3.768 -9.978,3.725 -13.746,-0.098 -3.77,-3.824 -3.726,-9.978 0.097,-13.747 3.824,-3.769 9.978,-3.726 13.747,0.097z"/>
  <path class="fil5" d="M1564.555 560.937c6.542,6.636 6.466,17.316 -0.169,23.858 -6.635,6.542 -17.317,6.465 -23.858,-0.169 -6.542,-6.636 -6.465,-17.318 0.17,-23.858 6.634,-6.542 17.316,-6.465 23.857,0.169z"/>
  <path class="fil0" d="M2831.243 142.752c-12.555,39.426 -25.037,81.232 -59.259,107.576 -34.213,26.335 -88.413,21.395 -104.554,-22.783 -0.223,-0.611 -1.192,-0.365 -0.988,0.272 13.22,41.427 61.507,49.582 96.427,30.659 41.743,-22.618 57.894,-72.687 69.622,-115.382 0.223,-0.808 -0.996,-1.134 -1.248,-0.342z"/>
  <path class="fil0" d="M2839.682 156.774c-13.877,47.204 -26.134,99.225 -71.425,126.532 -21.123,12.734 -48.382,15.33 -70.87,4.785 -23.834,-11.176 -35.999,-37.215 -41.784,-61.409 -0.18,-0.754 -1.23,-0.413 -1.131,0.313 3.426,24.604 18.008,49.204 39.801,61.671 20.161,11.537 45.711,9.632 66.425,0.861 50.65,-21.452 69.778,-83.482 80.373,-132.37 0.194,-0.904 -1.125,-1.276 -1.389,-0.383z"/>
  <path class="fil0" d="M2867.685 146.921c-8.102,33.509 -15.603,66.733 -31.921,97.436 -14.165,26.652 -35.265,49.932 -62.005,64.261 -27.371,14.666 -61.282,16.514 -89.536,3.298 -31.897,-14.918 -48.513,-50.958 -57.053,-83.151 -0.217,-0.812 -1.404,-0.464 -1.248,0.344 6.196,32.005 24.133,65.906 53.082,82.57 26.177,15.067 59.634,14.303 87.011,3.154 65.27,-26.581 93.031,-103.406 102.777,-167.605 0.107,-0.713 -0.929,-1.04 -1.107,-0.307z"/>
  <path class="fil0" d="M2890.942 134.039c-2.727,36.714 -13.704,72.412 -31.549,104.579 -17.897,32.26 -43.889,63.435 -77.429,79.963 -34.082,16.799 -79.015,17.606 -111.482,-3.298 -29.088,-18.726 -44.279,-54.577 -53.652,-86.482 -0.19,-0.648 -1.192,-0.375 -1.011,0.279 8.936,32.37 22.239,64.647 49.734,85.624 30.758,23.468 75.641,22.872 110.259,9.276 36.344,-14.275 63.697,-46.883 83.231,-79.601 19.99,-33.478 31.351,-71.518 34.022,-110.34 0.094,-1.369 -2.021,-1.357 -2.123,0z"/>
  <path class="fil7" d="M2599.486 233.243c20.975,2.806 68.662,4.373 91.402,-5.294 22.739,-9.67 10.561,-25.934 -8.97,-15.918 -0.575,-9.668 0,-23.885 -8.373,-24.833 -7.655,-0.867 -12.559,15.168 -12.559,15.168 0,0 -0.213,-37.512 -16.963,-37.424 -23.012,0.122 -26.635,43.024 -26.635,43.024 0,0 -7.022,-30.521 -19.943,-27.544 -12.922,2.977 -10.328,31.951 -10.328,31.951 0,0 -24.709,-9.564 -30.713,-0.342 -7.261,11.153 22.106,18.403 43.082,21.212z"/>
  <path class="fil8" d="M2826.41 170.867c20.003,2.677 65.48,4.171 87.165,-5.048 21.685,-9.22 10.074,-24.732 -8.553,-15.179 -0.548,-9.221 0,-22.779 -7.986,-23.683 -7.3,-0.829 -11.978,14.464 -11.978,14.464 0,0 -0.202,-35.772 -16.174,-35.689 -21.946,0.115 -25.403,41.031 -25.403,41.031 0,0 -6.696,-29.107 -19.017,-26.269 -12.324,2.84 -9.849,30.472 -9.849,30.472 0,0 -23.565,-9.12 -29.292,-0.326 -6.924,10.637 21.082,17.55 41.087,20.227z"/>
  <path class="fil0" d="M2617.757 170.142c1.206,1.223 1.191,3.192 -0.032,4.398 -1.222,1.207 -3.191,1.192 -4.398,-0.031 -1.204,-1.223 -1.192,-3.192 0.031,-4.398 1.223,-1.205 3.193,-1.192 4.399,0.031z"/>
  <path class="fil0" d="M2627.722 154.726c1.94,1.967 1.917,5.136 -0.05,7.076 -1.969,1.939 -5.136,1.919 -7.075,-0.05 -1.942,-1.967 -1.919,-5.136 0.049,-7.076 1.968,-1.94 5.136,-1.917 7.076,0.05z"/>
  <path class="fil0" d="M2616.088 135.887c3.367,3.417 3.327,8.915 -0.088,12.282 -3.415,3.367 -8.913,3.328 -12.28,-0.087 -3.367,-3.415 -3.327,-8.914 0.088,-12.281 3.415,-3.367 8.913,-3.329 12.28,0.086z"/>
  <path class="fil0" d="M2911.087 85.816c3.367,3.415 3.327,8.913 -0.088,12.28 -3.414,3.37 -8.912,3.33 -12.279,-0.087 -3.367,-3.415 -3.328,-8.911 0.087,-12.278 3.415,-3.367 8.913,-3.33 12.28,0.085z"/>
  <path class="fil0" d="M2894.619 102.253c2.156,2.188 2.132,5.711 -0.056,7.867 -2.187,2.157 -5.709,2.132 -7.866,-0.056 -2.158,-2.187 -2.13,-5.709 0.055,-7.865 2.187,-2.157 5.711,-2.132 7.867,0.054z"/>
  <path class="fil0" d="M1250.508 281.615c-0.04,-0.913 -1.297,-0.876 -1.393,0 -3.835,35.228 -4.756,73.439 -25.043,104.056 -9.797,14.782 -25.259,23.862 -43.127,23.687 -20.579,-0.2 -37.361,-15.572 -43.054,-34.606 -0.265,-0.89 -1.621,-0.519 -1.388,0.381 9.517,36.682 54.07,46.741 80.768,21.633 12.518,-11.772 19.125,-29.065 23.629,-45.246 6.13,-22.028 10.584,-46.977 9.608,-69.905z"/>
  <path class="fil0" d="M1265.156 280.581c-2.181,23.31 -3.998,46.065 -9.388,68.954 -5.232,22.21 -11.874,45.562 -26.258,63.711 -14.816,18.693 -38.589,26.069 -60.447,15.701 -20.78,-9.854 -32.156,-31.746 -42.965,-50.816 -0.328,-0.579 -1.183,-0.069 -0.885,0.517 10.349,20.378 22.134,40.701 42.996,51.762 19.114,10.134 40.017,4.769 55.721,-8.809 17.312,-14.97 24.752,-39.028 30.804,-60.257 7.303,-25.617 12.789,-54.015 12.156,-80.763 -0.027,-1.133 -1.632,-1.095 -1.734,0z"/>
  <path class="fil0" d="M1290.084 270.013c-3.276,31.463 -5.351,62.889 -11.779,93.94 -5.723,27.654 -14.055,58.035 -33.33,79.531 -21.099,23.531 -53.241,21.135 -77.964,5.024 -25.786,-16.808 -37.979,-46.886 -51.164,-73.288 -0.19,-0.379 -0.853,-0.108 -0.693,0.292 10.928,27.171 24.755,55.484 48.896,73.264 21.077,15.525 52.038,20.685 73.865,3.763 23.451,-18.18 32.932,-49.258 39.836,-76.862 8.588,-34.343 12.043,-70.389 14.041,-105.664 0.062,-1.114 -1.596,-1.073 -1.708,0z"/>
  <path class="fil0" d="M1308.666 270.116c-2.66,38.472 -7.696,76.2 -18.689,113.27 -9.978,33.646 -27.077,66.428 -58.111,84.898 -30.655,18.245 -68.094,11.526 -96.361,-7.874 -29.423,-20.193 -45.955,-54.187 -56.072,-87.35 -0.183,-0.6 -1.102,-0.352 -0.941,0.258 8.491,32.373 24.679,65.353 51.925,85.99 26.348,19.959 62.638,29.47 93.903,15.285 33.3,-15.11 52.785,-46.824 64.463,-80.194 13.704,-39.155 21.059,-82.813 21.346,-124.283 0.008,-0.952 -1.398,-0.932 -1.463,0z"/>
  <path class="fil0" d="M1240.721 302.068c33.899,4.538 110.966,7.07 147.715,-8.556 36.748,-15.625 17.07,-41.912 -14.495,-25.722 -0.93,-15.624 0,-38.601 -13.533,-40.134 -12.372,-1.404 -20.298,24.51 -20.298,24.51 0,0 -0.343,-60.619 -27.412,-60.477 -37.189,0.195 -43.046,69.532 -43.046,69.532 0,0 -11.346,-49.327 -32.231,-44.516 -20.883,4.811 -16.689,51.635 -16.689,51.635 0,0 -39.932,-15.453 -49.638,-0.55 -11.733,18.023 35.729,29.741 69.627,34.278z"/>
  <path class="fil0" d="M1357.277 207.462c1.204,1.224 1.191,3.193 -0.032,4.399 -1.223,1.206 -3.192,1.191 -4.398,-0.031 -1.206,-1.223 -1.192,-3.192 0.031,-4.399 1.223,-1.206 3.192,-1.191 4.399,0.031z"/>
  <path class="fil0" d="M1367.242 192.047c1.939,1.967 1.917,5.135 -0.05,7.076 -1.969,1.939 -5.136,1.916 -7.078,-0.051 -1.94,-1.969 -1.916,-5.135 0.053,-7.075 1.966,-1.942 5.135,-1.919 7.075,0.05z"/>
  <path class="fil0" d="M1355.608 173.208c3.367,3.417 3.327,8.913 -0.088,12.28 -3.415,3.367 -8.913,3.329 -12.28,-0.087 -3.367,-3.415 -3.327,-8.914 0.087,-12.281 3.415,-3.367 8.914,-3.327 12.281,0.088z"/>
  <path class="fil0" d="M1078.402 285.121c-0.975,0.99 -0.963,2.58 0.024,3.555 0.989,0.973 2.58,0.962 3.554,-0.026 0.975,-0.989 0.964,-2.579 -0.024,-3.554 -0.99,-0.975 -2.58,-0.962 -3.554,0.025z"/>
  <path class="fil0" d="M1068.031 272.085c-1.941,1.966 -1.918,5.136 0.05,7.075 1.968,1.94 5.136,1.917 7.076,-0.05 1.94,-1.969 1.918,-5.135 -0.05,-7.076 -1.968,-1.939 -5.136,-1.918 -7.076,0.051z"/>
  <path class="fil0" d="M1071.26 251.195c-3.367,3.415 -3.328,8.914 0.087,12.281 3.414,3.367 8.913,3.327 12.28,-0.088 3.367,-3.415 3.328,-8.913 -0.087,-12.28 -3.415,-3.367 -8.914,-3.328 -12.28,0.087z"/>
  <path class="fil0" d="M1060.252 213.938c-3.367,3.417 -3.328,8.914 0.087,12.28 3.415,3.369 8.913,3.33 12.28,-0.085 3.367,-3.415 3.328,-8.913 -0.086,-12.28 -3.416,-3.367 -8.914,-3.329 -12.281,0.085z"/>
  <path class="fil0" d="M1055.48 237.34c-2.157,2.188 -2.131,5.709 0.056,7.865 2.187,2.157 5.709,2.132 7.866,-0.056 2.156,-2.187 2.131,-5.709 -0.057,-7.865 -2.187,-2.157 -5.708,-2.131 -7.865,0.056z"/>
  <path class="fil7" d="M1082.789 381.496c20.975,2.809 68.662,4.375 91.402,-5.292 22.739,-9.67 10.561,-25.936 -8.97,-15.919 -0.575,-9.667 0,-23.885 -8.373,-24.832 -7.655,-0.869 -12.559,15.167 -12.559,15.167 0,0 -0.214,-37.511 -16.963,-37.424 -23.01,0.123 -26.635,43.025 -26.635,43.025 0,0 -7.021,-30.522 -19.943,-27.544 -12.923,2.975 -10.327,31.95 -10.327,31.95 0,0 -24.709,-9.563 -30.715,-0.342 -7.26,11.154 22.108,18.404 43.083,21.211z"/>
  <path class="fil0" d="M1351.493 510.089c-8.578,-2.065 -17.524,-3.186 -26.735,-3.186 -25.792,0 -49.575,8.582 -68.671,23.035 0.052,-1.262 0.096,-2.529 0.096,-3.806 0,-49.587 -40.184,-89.787 -89.753,-89.787 -35.59,0 -66.266,20.766 -80.775,50.811 -7.633,-16.527 -24.305,-28.021 -43.698,-28.021 -11.111,0 -21.315,3.802 -29.463,10.126 -11.442,-21.68 -34.19,-36.462 -60.401,-36.462 -32.498,0 -59.676,22.725 -66.566,53.15 -12.115,-10.978 -28.185,-17.666 -45.818,-17.666 -21,0 -39.774,9.491 -52.298,24.409 -0.919,0.046 -1.831,0.093 -2.748,0.141 -9.428,-26.427 -34.655,-45.345 -64.312,-45.345 -33.267,0 -60.963,23.808 -67.026,55.319 -3.213,0.385 -13.061,-13.726 -34.614,-7.519 -13.136,3.783 -18.844,10.915 -27.414,20.256 -0.881,-0.38 -1.896,-0.74 -3.088,-1.074 -7.901,-14.747 -23.441,-24.783 -41.336,-24.783 -15.987,0 -30.087,8.019 -38.548,20.241 -10.959,-30.733 -40.244,-52.76 -74.731,-52.76 -38.845,0 -71.152,27.917 -78.019,64.787 -12.961,-9.212 -28.794,-14.646 -45.903,-14.646 -36.101,0 -66.552,24.113 -76.19,57.109 -4.563,-0.72 -9.23,-1.131 -13.995,-1.131 -13.349,0 -26.004,2.935 -37.391,8.165 -5.619,-44.183 -43.31,-78.348 -89.003,-78.348 -32.506,0 -60.977,17.289 -76.726,43.177 -13.631,-10.949 -30.521,-17.988 -48.99,-19.446 0.288,-2.927 0.442,-5.894 0.442,-8.897 0,-48.943 -39.153,-88.711 -87.831,-89.738l0 517.999 1562.629 0 0 -511.815c-48.535,0 -88.207,37.886 -91.124,85.705z"/>
  <path class="fil5" d="M1355.552 675.341c0,3.004 0.152,5.971 0.44,8.899 -18.467,1.456 -35.358,8.496 -48.99,19.445 -15.747,-25.888 -44.218,-43.179 -76.725,-43.179 -45.693,0 -83.384,34.168 -89.003,78.348 -11.387,-5.227 -24.042,-8.165 -37.391,-8.165 -5.538,0 -10.951,0.529 -16.212,1.49 -4.615,-40.362 -35.963,-72.589 -75.904,-78.501 0.005,-0.327 0.025,-0.649 0.025,-0.979 0,-49.587 -40.182,-89.786 -89.753,-89.786 -49.569,0 -89.753,40.199 -89.753,89.786 0,2.338 0.119,4.645 0.293,6.936 -10.657,-4.462 -22.356,-6.936 -34.634,-6.936 -27.623,0 -52.321,12.493 -68.784,32.13 -15.654,-26.298 -44.344,-43.926 -77.161,-43.926 -44.293,0 -81.067,32.106 -88.399,74.32 -11.332,-5.169 -23.917,-8.073 -37.186,-8.073 -3.299,0 -6.551,0.189 -9.758,0.537 6.226,-12.219 9.758,-26.041 9.758,-40.697 0,-49.587 -40.183,-89.787 -89.754,-89.787 -49.568,0 -89.751,40.2 -89.751,89.787 0,3.146 0.165,6.255 0.479,9.317 -15.972,-14.657 -37.261,-23.608 -60.644,-23.608 -16.326,0 -31.619,4.382 -44.808,12.004 -12.012,-35.439 -45.514,-60.953 -84.997,-60.953 -49.568,0 -89.752,40.199 -89.752,89.786 0,1.277 0.043,2.544 0.096,3.807 -19.097,-14.453 -42.879,-23.038 -68.671,-23.038 -9.212,0 -18.158,1.123 -26.737,3.188 -2.915,-47.818 -42.588,-85.705 -91.123,-85.705l0 356.98 1562.629 0 0 -363.166c-48.679,1.027 -87.83,40.797 -87.83,89.739z"/>
  <path class="fil7" d="M224.561 285.243c-0.088,-1.327 -2.163,-1.336 -2.074,0 1.95,29.329 -2.395,58.425 -12.621,85.973 -5.309,14.302 -12.306,32.401 -26.209,40.303 -18.189,10.341 -29.435,-10.031 -28.729,-25.33 0.044,-0.926 -1.473,-1.151 -1.63,-0.221 -1.725,10.288 2.753,24.51 13.439,28.494 14.747,5.5 26.544,-6.085 33.503,-17.843 19.47,-32.897 26.836,-73.594 24.321,-111.376z"/>
  <path class="fil7" d="M232.057 284.807c-0.171,-0.877 -1.61,-0.677 -1.558,0.211 2.327,38.192 6.136,81.259 -11.616,116.732 -8.623,17.233 -27.117,30.342 -46.889,25.948 -18.372,-4.084 -33.88,-22.081 -37.795,-39.795 -0.165,-0.746 -1.417,-0.589 -1.342,0.181 1.757,18.093 18.025,32.838 33.853,39.741 16.251,7.088 33.751,-0.677 45.183,-12.711 13.864,-14.593 17.916,-37.008 20.389,-56.178 3.117,-24.135 4.456,-50.098 -0.225,-74.129z"/>
  <path class="fil0" d="M182.622 301.575c18.878,2.527 61.798,3.938 82.267,-4.765 20.466,-8.701 9.507,-23.342 -8.074,-14.326 -0.516,-8.701 0,-21.498 -7.536,-22.352 -6.89,-0.781 -11.305,13.651 -11.305,13.651 0,0 -0.19,-33.761 -15.266,-33.682 -20.712,0.108 -23.975,38.724 -23.975,38.724 0,0 -6.318,-27.471 -17.949,-24.791 -11.63,2.679 -9.294,28.758 -9.294,28.758 0,0 -22.239,-8.607 -27.645,-0.308 -6.535,10.038 19.898,16.564 38.777,19.091z"/>
  <path class="fil8" d="M102.884 389.82c18.243,2.442 59.719,3.804 79.498,-4.605 19.777,-8.409 9.186,-22.556 -7.802,-13.842 -0.501,-8.41 0,-20.775 -7.283,-21.6 -6.659,-0.756 -10.923,13.19 -10.923,13.19 0,0 -0.186,-32.625 -14.753,-32.548 -20.015,0.106 -23.167,37.422 -23.167,37.422 0,0 -6.107,-26.548 -17.345,-23.958 -11.241,2.589 -8.982,27.79 -8.982,27.79 0,0 -21.492,-8.318 -26.715,-0.296 -6.315,9.698 19.229,16.005 37.472,18.447z"/>
  <path class="fil0" d="M200.517 244.191c1.207,1.223 1.192,3.192 -0.031,4.398 -1.223,1.205 -3.192,1.192 -4.399,-0.031 -1.204,-1.223 -1.191,-3.191 0.032,-4.398 1.223,-1.207 3.191,-1.192 4.398,0.031z"/>
  <path class="fil0" d="M210.482 228.775c1.94,1.967 1.917,5.136 -0.049,7.076 -1.97,1.94 -5.136,1.917 -7.076,-0.05 -1.94,-1.969 -1.919,-5.136 0.05,-7.076 1.966,-1.942 5.136,-1.919 7.075,0.05z"/>
  <path class="fil0" d="M198.848 209.936c3.367,3.415 3.327,8.914 -0.087,12.28 -3.415,3.367 -8.914,3.33 -12.281,-0.087 -3.366,-3.415 -3.327,-8.914 0.088,-12.28 3.415,-3.367 8.913,-3.327 12.28,0.087z"/>
  <path class="fil0" d="M459.908 356.779c2.209,4.256 0.549,9.498 -3.71,11.706 -4.257,2.209 -9.499,0.548 -11.705,-3.71 -2.209,-4.257 -0.548,-9.499 3.708,-11.705 4.256,-2.209 9.499,-0.549 11.707,3.709z"/>
  <path class="fil0" d="M485.965 324.65c2.208,4.258 0.548,9.499 -3.709,11.708 -4.259,2.208 -9.498,0.548 -11.707,-3.709 -2.209,-4.258 -0.548,-9.499 3.709,-11.707 4.258,-2.209 9.498,-0.548 11.707,3.708z"/>
  <path class="fil0" d="M483 349.53c1.415,2.727 0.35,6.084 -2.377,7.498 -2.725,1.415 -6.084,0.352 -7.497,-2.375 -1.414,-2.727 -0.352,-6.084 2.376,-7.498 2.727,-1.415 6.083,-0.352 7.498,2.375z"/>
  <path class="fil0" d="M445.839 135.67c2.594,2.632 2.564,6.87 -0.069,9.466 -2.632,2.596 -6.87,2.565 -9.465,-0.067 -2.594,-2.633 -2.565,-6.872 0.066,-9.465 2.634,-2.596 6.871,-2.567 9.468,0.066z"/>
  <path class="fil0" d="M426.737 102.489c4.175,4.235 4.128,11.053 -0.108,15.23 -4.236,4.176 -11.056,4.127 -15.231,-0.108 -4.175,-4.236 -4.127,-11.056 0.108,-15.231 4.236,-4.175 11.055,-4.127 15.231,0.109z"/>
  <path class="fil1" d="M661.836 465.17c0,6.928 -5.615,12.543 -12.542,12.543 -6.928,0 -12.543,-5.615 -12.543,-12.543 0,-6.928 5.615,-12.542 12.543,-12.542 6.927,0 12.542,5.614 12.542,12.542z"/>
  <path class="fil1" d="M712.024 576.4c0,5.444 -4.415,9.86 -9.859,9.86 -5.445,0 -9.86,-4.416 -9.86,-9.86 0,-5.446 4.415,-9.859 9.86,-9.859 5.444,0 9.859,4.413 9.859,9.859z"/>
  <path class="fil1" d="M714.703 475.315c0,5.444 -4.415,9.859 -9.859,9.859 -5.446,0 -9.861,-4.415 -9.861,-9.859 0,-5.447 4.415,-9.859 9.861,-9.859 5.444,0 9.859,4.412 9.859,9.859z"/>
  <path class="fil1" d="M806.004 553.571c0,15.024 -12.181,27.207 -27.206,27.207 -15.026,0 -27.206,-12.183 -27.206,-27.207 0,-15.026 12.18,-27.206 27.206,-27.206 15.025,0 27.206,12.18 27.206,27.206z"/>
  <path class="fil5" d="M666.749 401.573c-17.383,8.578 -38.803,9.03 -58.048,5.222 -0.819,-0.538 -1.638,-1.159 -2.484,-1.863 8.778,1.411 18.062,1.946 27.119,1.834 11.317,-0.142 22.154,-1.976 32.34,-6.999 1.215,-0.621 2.288,1.215 1.073,1.806z"/>
  <path class="fil5" d="M565.616 635.328c2.596,2.632 2.565,6.869 -0.066,9.465 -2.633,2.594 -6.871,2.565 -9.466,-0.068 -2.595,-2.632 -2.566,-6.869 0.067,-9.466 2.632,-2.594 6.87,-2.565 9.465,0.069z"/>
  <path class="fil5" d="M585.947 604.721c3.769,3.824 3.726,9.978 -0.097,13.748 -3.824,3.768 -9.978,3.725 -13.747,-0.098 -3.769,-3.824 -3.726,-9.979 0.097,-13.747 3.824,-3.769 9.979,-3.726 13.747,0.097z"/>
  <path class="fil5" d="M563.344 568.122c6.542,6.636 6.466,17.317 -0.169,23.859 -6.634,6.542 -17.316,6.465 -23.857,-0.169 -6.542,-6.636 -6.466,-17.318 0.169,-23.858 6.634,-6.543 17.317,-6.465 23.857,0.168z"/>
  <path class="fil0" d="M1684.077 439.953c2.596,2.631 2.565,6.871 -0.067,9.465 -2.633,2.597 -6.871,2.565 -9.465,-0.066 -2.596,-2.634 -2.565,-6.872 0.066,-9.468 2.634,-2.594 6.872,-2.562 9.466,0.069z"/>
  <path class="fil0" d="M1705.526 406.771c4.176,4.236 4.128,11.053 -0.108,15.23 -4.235,4.176 -11.053,4.126 -15.23,-0.108 -4.176,-4.235 -4.128,-11.055 0.108,-15.23 4.236,-4.177 11.055,-4.128 15.23,0.108z"/>
  <path class="fil0" d="M1680.485 366.224c7.248,7.351 7.163,19.185 -0.188,26.432 -7.35,7.248 -19.184,7.162 -26.431,-0.188 -7.248,-7.351 -7.163,-19.185 0.188,-26.431 7.35,-7.249 19.184,-7.164 26.431,0.187z"/>
 </g>
</svg>
