<?xml version="1.0" encoding="UTF-8"?>
<!DOCTYPE svg PUBLIC "-//W3C//DTD SVG 1.1//EN" "http://www.w3.org/Graphics/SVG/1.1/DTD/svg11.dtd">
<!-- Creator: CorelDRAW 2021 (64-Bit Оценочная версия) -->
<svg xmlns="http://www.w3.org/2000/svg" xml:space="preserve" width="6250px" height="2417px" version="1.1" style="shape-rendering:geometricPrecision; text-rendering:geometricPrecision; image-rendering:optimizeQuality; fill-rule:evenodd; clip-rule:evenodd"
viewBox="0 0 6250 2416.67"
 xmlns:xlink="http://www.w3.org/1999/xlink"
 xmlns:xodm="http://www.corel.com/coreldraw/odm/2003">
 <defs>
  <style type="text/css">
   <![CDATA[
    .str0 {stroke:#95BA4E;stroke-width:12.41;stroke-miterlimit:10}
    .str16 {stroke:#95BA4E;stroke-width:12.73;stroke-miterlimit:10}
    .str18 {stroke:#95BA4E;stroke-width:11.83;stroke-miterlimit:10}
    .str22 {stroke:#95BA4E;stroke-width:12.44;stroke-miterlimit:10}
    .str4 {stroke:#95BA4E;stroke-width:12.78;stroke-miterlimit:10}
    .str17 {stroke:#95BA4E;stroke-width:11.6;stroke-miterlimit:10}
    .str23 {stroke:#95BA4E;stroke-width:11.6;stroke-miterlimit:10}
    .str14 {stroke:#95BA4E;stroke-width:11.6;stroke-miterlimit:10}
    .str19 {stroke:#95BA4E;stroke-width:12.22;stroke-miterlimit:10}
    .str3 {stroke:#95BA4E;stroke-width:11.62;stroke-miterlimit:10}
    .str1 {stroke:#95BA4E;stroke-width:12.23;stroke-miterlimit:10}
    .str7 {stroke:#95BA4E;stroke-width:12.84;stroke-miterlimit:10}
    .str20 {stroke:#95BA4E;stroke-width:11.64;stroke-miterlimit:10}
    .str12 {stroke:#95BA4E;stroke-width:11.96;stroke-miterlimit:10}
    .str15 {stroke:#95BA4E;stroke-width:11.97;stroke-miterlimit:10}
    .str2 {stroke:#95BA4E;stroke-width:11.98;stroke-miterlimit:10}
    .str8 {stroke:#95BA4E;stroke-width:12.28;stroke-miterlimit:10}
    .str21 {stroke:#95BA4E;stroke-width:11.98;stroke-miterlimit:10}
    .str13 {stroke:#95BA4E;stroke-width:12;stroke-miterlimit:10}
    .str11 {stroke:#95BA4E;stroke-width:12.01;stroke-miterlimit:10}
    .str24 {stroke:#95BA4E;stroke-width:12.62;stroke-miterlimit:10}
    .str10 {stroke:#95BA4E;stroke-width:12.33;stroke-miterlimit:10}
    .str9 {stroke:#95BA4E;stroke-width:12.04;stroke-miterlimit:10}
    .str6 {stroke:#95BA4E;stroke-width:12.06;stroke-miterlimit:10}
    .str5 {stroke:#95BA4E;stroke-width:12.08;stroke-miterlimit:10}
    .fil2 {fill:none;fill-rule:nonzero}
    .fil0 {fill:#D0EAF1;fill-rule:nonzero}
    .fil1 {fill:#D0D66B;fill-rule:nonzero}
   ]]>
  </style>
 </defs>
 <g id="Слой_x0020_1">
  <metadata id="CorelCorpID_0Corel-Layer"/>
  <polygon class="fil0" points="0,2416.67 6249.97,2416.67 6249.97,0.18 0,0.18 "/>
  <polygon class="fil1" points="0,2416.67 6249.97,2416.67 6249.97,2002.34 0,2002.34 "/>
  <line class="fil2 str0" x1="1759.08" y1="2349.17" x2="1759.08" y2= "2381.05" />
  <line class="fil2 str0" x1="1793.64" y1="2327.92" x2="1793.64" y2= "2381.05" />
  <line class="fil2 str0" x1="1828.19" y1="2349.17" x2="1828.19" y2= "2381.05" />
  <line class="fil2 str0" x1="1862.75" y1="2327.92" x2="1862.75" y2= "2381.05" />
  <line class="fil2 str0" x1="1897.31" y1="2349.17" x2="1897.31" y2= "2381.05" />
  <line class="fil2 str1" x1="5542.11" y1="2279.71" x2="5542.11" y2= "2306.92" />
  <line class="fil2 str1" x1="5572.49" y1="2261.56" x2="5572.49" y2= "2306.92" />
  <line class="fil2 str1" x1="5602.9" y1="2279.71" x2="5602.9" y2= "2306.92" />
  <line class="fil2 str1" x1="5633.32" y1="2261.56" x2="5633.32" y2= "2306.92" />
  <line class="fil2 str1" x1="5663.7" y1="2279.71" x2="5663.7" y2= "2306.92" />
  <line class="fil2 str2" x1="305.05" y1="2328.91" x2="305.05" y2= "2356.92" />
  <line class="fil2 str2" x1="337.67" y1="2310.23" x2="337.67" y2= "2356.92" />
  <line class="fil2 str2" x1="370.29" y1="2328.91" x2="370.29" y2= "2356.92" />
  <line class="fil2 str2" x1="402.91" y1="2310.23" x2="402.91" y2= "2356.92" />
  <line class="fil2 str2" x1="435.53" y1="2328.91" x2="435.53" y2= "2356.92" />
  <line class="fil2 str3" x1="559.91" y1="2222.42" x2="559.91" y2= "2248.79" />
  <line class="fil2 str3" x1="592.53" y1="2204.84" x2="592.53" y2= "2248.79" />
  <line class="fil2 str3" x1="625.15" y1="2222.42" x2="625.15" y2= "2248.79" />
  <line class="fil2 str3" x1="657.77" y1="2204.84" x2="657.77" y2= "2248.79" />
  <line class="fil2 str3" x1="690.4" y1="2222.42" x2="690.4" y2= "2248.79" />
  <line class="fil2 str4" x1="2349.89" y1="2296.21" x2="2349.89" y2= "2329.66" />
  <line class="fil2 str4" x1="2384.1" y1="2273.91" x2="2384.1" y2= "2329.66" />
  <line class="fil2 str4" x1="2418.3" y1="2296.21" x2="2418.3" y2= "2329.66" />
  <line class="fil2 str4" x1="2452.51" y1="2273.91" x2="2452.51" y2= "2329.66" />
  <line class="fil2 str4" x1="2486.72" y1="2296.21" x2="2486.72" y2= "2329.66" />
  <line class="fil2 str5" x1="5899.81" y1="2308.02" x2="5899.81" y2= "2336.62" />
  <line class="fil2 str5" x1="5932.57" y1="2288.95" x2="5932.57" y2= "2336.62" />
  <line class="fil2 str5" x1="5965.33" y1="2308.02" x2="5965.33" y2= "2336.62" />
  <line class="fil2 str5" x1="5998.1" y1="2288.95" x2="5998.1" y2= "2336.62" />
  <line class="fil2 str5" x1="6030.86" y1="2308.02" x2="6030.86" y2= "2336.62" />
  <line class="fil2 str6" x1="133.83" y1="2115.85" x2="133.83" y2= "2146" />
  <line class="fil2 str6" x1="168.48" y1="2095.74" x2="168.48" y2= "2146" />
  <line class="fil2 str6" x1="203.13" y1="2115.85" x2="203.13" y2= "2146" />
  <line class="fil2 str6" x1="237.78" y1="2095.74" x2="237.78" y2= "2146" />
  <line class="fil2 str6" x1="272.43" y1="2115.85" x2="272.43" y2= "2146" />
  <line class="fil2 str7" x1="3642.42" y1="2271.8" x2="3642.42" y2= "2305.42" />
  <line class="fil2 str7" x1="3676.45" y1="2249.38" x2="3676.45" y2= "2305.42" />
  <line class="fil2 str7" x1="3710.49" y1="2271.8" x2="3710.49" y2= "2305.42" />
  <line class="fil2 str7" x1="3744.52" y1="2249.38" x2="3744.52" y2= "2305.42" />
  <line class="fil2 str7" x1="3778.56" y1="2271.8" x2="3778.56" y2= "2305.42" />
  <line class="fil2 str8" x1="6064.6" y1="2196.79" x2="6064.6" y2= "2228.75" />
  <line class="fil2 str8" x1="6099.96" y1="2175.49" x2="6099.96" y2= "2228.75" />
  <line class="fil2 str8" x1="6135.37" y1="2196.79" x2="6135.37" y2= "2228.75" />
  <line class="fil2 str8" x1="6170.73" y1="2175.49" x2="6170.73" y2= "2228.75" />
  <line class="fil2 str8" x1="6206.09" y1="2196.79" x2="6206.09" y2= "2228.75" />
  <line class="fil2 str9" x1="953.19" y1="2285" x2="953.19" y2= "2316.07" />
  <line class="fil2 str9" x1="988.99" y1="2264.28" x2="988.99" y2= "2316.07" />
  <line class="fil2 str9" x1="1024.78" y1="2285" x2="1024.78" y2= "2316.07" />
  <line class="fil2 str9" x1="1060.57" y1="2264.28" x2="1060.57" y2= "2316.07" />
  <line class="fil2 str9" x1="1096.36" y1="2285" x2="1096.36" y2= "2316.07" />
  <line class="fil2 str10" x1="1425.75" y1="2301.78" x2="1425.75" y2= "2330.69" />
  <line class="fil2 str10" x1="1457.52" y1="2282.51" x2="1457.52" y2= "2330.69" />
  <line class="fil2 str10" x1="1489.29" y1="2301.78" x2="1489.29" y2= "2330.69" />
  <line class="fil2 str10" x1="1521.06" y1="2282.51" x2="1521.06" y2= "2330.69" />
  <line class="fil2 str10" x1="1552.82" y1="2301.78" x2="1552.82" y2= "2330.69" />
  <line class="fil2 str11" x1="1991.6" y1="2153.75" x2="1991.6" y2= "2183.48" />
  <line class="fil2 str11" x1="2026.02" y1="2133.92" x2="2026.02" y2= "2183.48" />
  <line class="fil2 str11" x1="2060.45" y1="2153.75" x2="2060.45" y2= "2183.48" />
  <line class="fil2 str11" x1="2094.88" y1="2133.92" x2="2094.88" y2= "2183.48" />
  <line class="fil2 str11" x1="2129.3" y1="2153.75" x2="2129.3" y2= "2183.48" />
  <line class="fil2 str12" x1="2818.95" y1="2285.62" x2="2818.95" y2= "2312.96" />
  <line class="fil2 str12" x1="2850.88" y1="2267.39" x2="2850.88" y2= "2312.96" />
  <line class="fil2 str12" x1="2882.81" y1="2285.62" x2="2882.81" y2= "2312.96" />
  <line class="fil2 str12" x1="2914.74" y1="2267.39" x2="2914.74" y2= "2312.96" />
  <line class="fil2 str12" x1="2946.67" y1="2285.62" x2="2946.67" y2= "2312.96" />
  <line class="fil2 str13" x1="3282.5" y1="2369.42" x2="3282.5" y2= "2397.36" />
  <line class="fil2 str13" x1="3314.91" y1="2350.8" x2="3314.91" y2= "2397.36" />
  <line class="fil2 str13" x1="3347.32" y1="2369.42" x2="3347.32" y2= "2397.36" />
  <line class="fil2 str13" x1="3379.73" y1="2350.8" x2="3379.73" y2= "2397.36" />
  <line class="fil2 str13" x1="3412.14" y1="2369.42" x2="3412.14" y2= "2397.36" />
  <line class="fil2 str14" x1="3824.85" y1="2108.52" x2="3824.85" y2= "2133.23" />
  <line class="fil2 str14" x1="3855.5" y1="2092.04" x2="3855.5" y2= "2133.23" />
  <line class="fil2 str14" x1="3886.15" y1="2108.52" x2="3886.15" y2= "2133.23" />
  <line class="fil2 str14" x1="3916.8" y1="2092.04" x2="3916.8" y2= "2133.23" />
  <line class="fil2 str14" x1="3947.45" y1="2108.52" x2="3947.45" y2= "2133.23" />
  <line class="fil2 str15" x1="4215.1" y1="2369.7" x2="4215.1" y2= "2395.97" />
  <line class="fil2 str15" x1="4245.73" y1="2352.19" x2="4245.73" y2= "2395.97" />
  <line class="fil2 str15" x1="4276.35" y1="2369.7" x2="4276.35" y2= "2395.97" />
  <line class="fil2 str15" x1="4306.98" y1="2352.19" x2="4306.98" y2= "2395.97" />
  <line class="fil2 str15" x1="4337.57" y1="2369.7" x2="4337.57" y2= "2395.97" />
  <line class="fil2 str16" x1="4484.6" y1="2247.05" x2="4484.6" y2= "2277.4" />
  <line class="fil2 str16" x1="4515.91" y1="2226.81" x2="4515.91" y2= "2277.4" />
  <line class="fil2 str16" x1="4547.18" y1="2247.05" x2="4547.18" y2= "2277.4" />
  <line class="fil2 str16" x1="4578.54" y1="2226.81" x2="4578.54" y2= "2277.4" />
  <line class="fil2 str16" x1="4609.81" y1="2247.05" x2="4609.81" y2= "2277.4" />
  <line class="fil2 str17" x1="843.38" y1="2107.33" x2="843.38" y2= "2136.35" />
  <line class="fil2 str17" x1="879.43" y1="2087.98" x2="879.43" y2= "2136.35" />
  <line class="fil2 str17" x1="915.46" y1="2107.33" x2="915.46" y2= "2136.35" />
  <line class="fil2 str17" x1="951.51" y1="2087.98" x2="951.51" y2= "2136.35" />
  <line class="fil2 str17" x1="987.55" y1="2107.33" x2="987.55" y2= "2136.35" />
  <line class="fil2 str18" x1="2586.23" y1="2089.91" x2="2586.23" y2= "2116.84" />
  <line class="fil2 str18" x1="2618.39" y1="2071.95" x2="2618.39" y2= "2116.84" />
  <line class="fil2 str18" x1="2650.56" y1="2089.91" x2="2650.56" y2= "2116.84" />
  <line class="fil2 str18" x1="2682.72" y1="2071.95" x2="2682.72" y2= "2116.84" />
  <line class="fil2 str18" x1="2714.89" y1="2089.91" x2="2714.89" y2= "2116.84" />
  <line class="fil2 str19" x1="5232" y1="2353.23" x2="5232" y2= "2382.69" />
  <line class="fil2 str19" x1="5264.97" y1="2333.57" x2="5264.97" y2= "2382.69" />
  <line class="fil2 str19" x1="5297.99" y1="2353.23" x2="5297.99" y2= "2382.69" />
  <line class="fil2 str19" x1="5330.92" y1="2333.57" x2="5330.92" y2= "2382.69" />
  <line class="fil2 str19" x1="5363.94" y1="2353.23" x2="5363.94" y2= "2382.69" />
  <line class="fil2 str20" x1="5763.39" y1="2112.48" x2="5763.39" y2= "2139.64" />
  <line class="fil2 str20" x1="5796.88" y1="2094.37" x2="5796.88" y2= "2139.64" />
  <line class="fil2 str20" x1="5830.41" y1="2112.48" x2="5830.41" y2= "2139.64" />
  <line class="fil2 str20" x1="5863.9" y1="2094.37" x2="5863.9" y2= "2139.64" />
  <line class="fil2 str20" x1="5897.38" y1="2112.48" x2="5897.38" y2= "2139.64" />
  <line class="fil2 str21" x1="1286.22" y1="2173.42" x2="1286.22" y2= "2202.72" />
  <line class="fil2 str21" x1="1320.29" y1="2153.88" x2="1320.29" y2= "2202.72" />
  <line class="fil2 str21" x1="1354.36" y1="2173.42" x2="1354.36" y2= "2202.72" />
  <line class="fil2 str21" x1="1388.43" y1="2153.88" x2="1388.43" y2= "2202.72" />
  <line class="fil2 str21" x1="1422.49" y1="2173.42" x2="1422.49" y2= "2202.72" />
  <line class="fil2 str22" x1="3145.26" y1="2173.12" x2="3145.26" y2= "2204.21" />
  <line class="fil2 str22" x1="3178.83" y1="2152.39" x2="3178.83" y2= "2204.21" />
  <line class="fil2 str22" x1="3212.39" y1="2173.12" x2="3212.39" y2= "2204.21" />
  <line class="fil2 str22" x1="3245.96" y1="2152.39" x2="3245.96" y2= "2204.21" />
  <line class="fil2 str22" x1="3279.52" y1="2173.12" x2="3279.52" y2= "2204.21" />
  <line class="fil2 str23" x1="4811.8" y1="2135.87" x2="4811.8" y2= "2162.04" />
  <line class="fil2 str23" x1="4844.3" y1="2118.43" x2="4844.3" y2= "2162.04" />
  <line class="fil2 str23" x1="4876.77" y1="2135.87" x2="4876.77" y2= "2162.04" />
  <line class="fil2 str23" x1="4909.27" y1="2118.43" x2="4909.27" y2= "2162.04" />
  <line class="fil2 str23" x1="4941.74" y1="2135.87" x2="4941.74" y2= "2162.04" />
  <line class="fil2 str24" x1="5372.76" y1="2147.39" x2="5372.76" y2= "2178.3" />
  <line class="fil2 str24" x1="5405.18" y1="2126.78" x2="5405.18" y2= "2178.3" />
  <line class="fil2 str24" x1="5437.6" y1="2147.39" x2="5437.6" y2= "2178.3" />
  <line class="fil2 str24" x1="5470.02" y1="2126.78" x2="5470.02" y2= "2178.3" />
  <line class="fil2 str24" x1="5502.49" y1="2147.39" x2="5502.49" y2= "2178.3" />
 </g>
</svg>
