<?xml version="1.0" encoding="UTF-8"?>
<!DOCTYPE svg PUBLIC "-//W3C//DTD SVG 1.1//EN" "http://www.w3.org/Graphics/SVG/1.1/DTD/svg11.dtd">
<!-- Creator: CorelDRAW 2021 (64-Bit Оценочная версия) -->
<svg xmlns="http://www.w3.org/2000/svg" xml:space="preserve" width="100px" height="100px" version="1.1" style="shape-rendering:geometricPrecision; text-rendering:geometricPrecision; image-rendering:optimizeQuality; fill-rule:evenodd; clip-rule:evenodd"
viewBox="0 0 100 100"
 xmlns:xlink="http://www.w3.org/1999/xlink"
 xmlns:xodm="http://www.corel.com/coreldraw/odm/2003">
 <defs>
  <style type="text/css">
   <![CDATA[
    .fil0 {fill:#727271;fill-rule:nonzero}
   ]]>
  </style>
 </defs>
 <g id="Слой_x0020_1">
  <metadata id="CorelCorpID_0Corel-Layer"/>
  <path class="fil0" d="M5.65 37.65l0.09 0c8.37,0 16.76,0 25.14,0 2.03,0 3.66,1.5 3.66,3.31 0,1.88 -1.63,3.36 -3.66,3.36 -7.18,0 -14.4,0 -21.59,0l0 6.62c26.9,0 53.8,0 80.66,0l0 -6.62c-7.18,0 -14.42,0 -21.6,0 -2,0 -3.66,-1.48 -3.66,-3.36 0,-1.81 1.66,-3.31 3.66,-3.31 8.43,0 16.83,0 25.29,0 2.03,0 3.64,1.5 3.64,3.31l0 13.31c0,1.83 -1.61,3.35 -3.64,3.35l-4.66 0 -5.38 34.55c-0.3,1.67 -1.88,2.83 -3.64,2.83l-60.63 0c-1.92,0 -3.54,-1.35 -3.69,-3.07l-5.39 -34.31 -4.6 0c-2.04,0 -3.65,-1.52 -3.65,-3.35l0 -13.31c0,-1.81 1.61,-3.31 3.65,-3.31l0 0zm21.7 25.38l0 18.9c0,1.14 0.98,1.99 2.2,1.99 1.21,0 2.22,-0.85 2.22,-1.99l0 -18.9c0,-1.09 -1.01,-1.98 -2.22,-1.98 -1.22,0 -2.2,0.89 -2.2,1.98l0 0zm13.4 0l0 18.9c0,1.14 1.01,1.99 2.21,1.99 1.19,0 2.18,-0.85 2.18,-1.99l0 -18.9c0,-1.09 -0.99,-1.98 -2.18,-1.98 -1.2,0 -2.21,0.89 -2.21,1.98l0 0zm13.34 0l0 18.9c0,1.14 0.99,1.99 2.24,1.99 1.2,0 2.19,-0.85 2.19,-1.99l0 -18.9c0,-1.09 -0.99,-1.98 -2.19,-1.98 -1.25,0 -2.24,0.89 -2.24,1.98l0 0zm13.43 0l0 18.9c0,1.14 0.99,1.99 2.19,1.99 1.22,0 2.18,-0.85 2.18,-1.99l0 -18.9c0,-1.09 -0.96,-1.98 -2.18,-1.98 -1.2,0 -2.19,0.89 -2.19,1.98l0 0zm14.15 -55.87l0 0 -32.05 33.3 -32.06 -33.3c-1.3,-1.41 -3.64,-1.55 -5.15,-0.34 -1.53,1.21 -1.67,3.31 -0.37,4.66l34.82 36.14c0.11,0.13 0.2,0.27 0.36,0.41 1.52,1.19 3.86,1.04 5.16,-0.36l34.8 -36.19c1.37,-1.35 1.21,-3.45 -0.3,-4.66 -1.52,-1.21 -3.86,-1.07 -5.21,0.34l0 0zm0.35 47.78l-64.77 0 5.2 33.42 54.33 0 5.24 -33.42 0 0z"/>
 </g>
</svg>
