<?xml version="1.0" encoding="UTF-8"?>
<!DOCTYPE svg PUBLIC "-//W3C//DTD SVG 1.1//EN" "http://www.w3.org/Graphics/SVG/1.1/DTD/svg11.dtd">
<!-- Creator: CorelDRAW 2021 (64-Bit Оценочная версия) -->
<svg xmlns="http://www.w3.org/2000/svg" xml:space="preserve" width="100px" height="100px" version="1.1" style="shape-rendering:geometricPrecision; text-rendering:geometricPrecision; image-rendering:optimizeQuality; fill-rule:evenodd; clip-rule:evenodd"
viewBox="0 0 100 100"
 xmlns:xlink="http://www.w3.org/1999/xlink"
 xmlns:xodm="http://www.corel.com/coreldraw/odm/2003">
 <defs>
  <style type="text/css">
   <![CDATA[
    .fil0 {fill:#DF852B;fill-rule:nonzero}
   ]]>
  </style>
 </defs>
 <g id="Слой_x0020_1">
  <metadata id="CorelCorpID_0Corel-Layer"/>
  <path class="fil0" d="M76.08 60.92c0,-1.37 1.13,-2.54 2.52,-2.54 1.39,0 2.5,1.17 2.5,2.54l0 20.56c0,1.39 -1.11,2.52 -2.5,2.52l-41.45 0c-1.38,0 -2.52,-1.13 -2.52,-2.52l0 -20.56c0,-1.37 1.14,-2.54 2.52,-2.54 1.38,0 2.51,1.17 2.51,2.54l0 18.06 10.1 0 0 -20.8c0,-0.82 0.66,-1.51 1.5,-1.51l13.19 0c0.85,0 1.52,0.69 1.52,1.51l0 20.8 10.11 0 0 -18.06zm-26.94 -26.13l0 0c-0.73,-1.22 -1.63,-2.69 -1.75,-3.33 -0.15,-1.15 -0.19,-2.35 -0.09,-3.56l0.29 0.07c3.25,0.75 6.7,-0.51 8.57,-3.43 1.11,-1.83 1.64,-4.15 1.39,-6.43l0 -0.02 -0.04 -0.27 0 0c-0.31,-2.49 -1.22,-5.07 -1.24,-7.61 0.02,-0.25 -0.04,-0.56 -0.18,-0.79 -0.42,-0.73 -1.38,-0.94 -2.07,-0.56 -1.19,0.69 -2.68,1.15 -4.17,1.64 -3.34,1.12 -6.37,2.14 -8.22,5.69 -1.97,3.74 -0.53,8.05 2.82,10.37 -0.24,1.49 -0.28,3.02 -0.13,4.5 -1.01,-0.71 -2.12,-1.33 -3.28,-1.84 -0.03,-1.28 -0.19,-2.47 -0.52,-3.51 -1.39,-4.55 -5.38,-7.89 -10.29,-8.06 -5.68,-0.26 -9.23,2.85 -13.05,6.27 -1.77,1.6 -3.58,3.23 -5.43,4.33 -0.73,0.42 -0.95,1.31 -0.56,2.06 0.13,0.22 0.36,0.42 0.6,0.53 1.81,1.08 3.62,2.71 5.39,4.3l0.07 0.03c3.75,3.4 7.33,6.47 12.98,6.2 4.91,-0.17 8.9,-3.51 10.29,-7.99 0.07,-0.35 0.18,-0.64 0.25,-1 1.44,0.8 4.5,2.52 5.92,4.9l-20.78 20.74c-0.98,1.02 -0.98,2.57 0,3.6 0.97,0.97 2.58,0.97 3.57,0l28.39 -28.42 28.41 28.42c0.94,0.97 2.55,0.97 3.54,0 0.97,-1.03 0.97,-2.58 0,-3.6l-30.13 -30.1 -0.04 -0.06c-0.99,-0.98 -2.56,-0.98 -3.56,0l-6.95 6.93 0 0zm-2.26 -10.29l-0.04 0 -0.04 -0.03 -0.03 0 0 0 -0.04 0 0 -0.02 -0.15 -0.09c-2.37,-1.4 -3.67,-4.17 -2.28,-6.78l0.02 0c1.37,-2.58 3.94,-3.39 6.47,-4.21 0.89,-0.29 1.78,-0.55 2.68,-0.93 0.28,1.92 0.81,3.8 1.08,5.74l0 0.26c0.16,1.62 -0.15,3.23 -0.97,4.49 -1.5,2.38 -4.38,2.78 -6.7,1.57l0 0zm-9.1 6.75l0 0 0.13 0.05c-0.06,0.4 -0.17,0.84 -0.28,1.19 -1,3.28 -3.95,5.76 -7.53,5.92 -4.64,0.2 -7.71,-2.65 -10.85,-5.45l-0.06 -0.03c-1.32,-1.21 -2.6,-2.4 -3.98,-3.4 1.38,-1.04 2.66,-2.18 3.98,-3.38 3.16,-2.85 6.23,-5.69 10.94,-5.51 3.55,0.15 6.5,2.6 7.5,5.92 0.15,0.52 0.28,1.05 0.33,1.65 -4.15,-1 -8.68,-0.44 -12.67,1.87 -0.71,0.43 -0.98,1.35 -0.58,2.08 0.42,0.73 1.35,0.95 2.05,0.53 3.47,-2.01 7.43,-2.38 11.02,-1.44l0 0zm14.98 47.73l10.22 0 0 -19.28 -10.22 0 0 19.28z"/>
 </g>
</svg>
