<?xml version="1.0" encoding="UTF-8"?>
<!DOCTYPE svg PUBLIC "-//W3C//DTD SVG 1.1//EN" "http://www.w3.org/Graphics/SVG/1.1/DTD/svg11.dtd">
<!-- Creator: CorelDRAW 2021 (64-Bit Оценочная версия) -->
<svg xmlns="http://www.w3.org/2000/svg" xml:space="preserve" width="100px" height="100px" version="1.1" style="shape-rendering:geometricPrecision; text-rendering:geometricPrecision; image-rendering:optimizeQuality; fill-rule:evenodd; clip-rule:evenodd"
viewBox="0 0 100 100"
 xmlns:xlink="http://www.w3.org/1999/xlink"
 xmlns:xodm="http://www.corel.com/coreldraw/odm/2003">
 <defs>
  <style type="text/css">
   <![CDATA[
    .fil0 {fill:#57C332;fill-rule:nonzero}
   ]]>
  </style>
 </defs>
 <g id="Слой_x0020_1">
  <metadata id="CorelCorpID_0Corel-Layer"/>
  <path class="fil0" d="M43.73 79.09c-11.07,-3.36 -19.14,-13.24 -19.7,-25.22 -0.52,-14.15 7.15,-22.84 15.62,-32.27 4.03,-4.48 8.06,-8.97 10.79,-13.63 0.85,-1.59 2.84,-2.1 4.43,-1.19 0.51,0.28 0.91,0.68 1.19,1.19l0 0.06c2.78,4.66 6.76,9.14 10.79,13.57 8.47,9.43 16.13,18.18 15.57,32.27 -0.46,11.98 -8.64,21.86 -19.77,25.22 -2.39,0.79 -4.94,1.19 -7.44,1.3l0 0.11c0,6.77 -5.68,12.5 -12.5,12.5 -1.08,0 -1.93,-0.85 -1.93,-1.93 0,-1.14 0.85,-2.04 1.93,-2.04 4.66,0 8.58,-3.87 8.58,-8.53l0 -0.11c-2.56,-0.11 -5.06,-0.51 -7.56,-1.3l0 0zm-4.6 -26.3l0 0c-0.74,-0.85 -0.74,-2.05 0,-2.78 0.74,-0.8 2.05,-0.8 2.79,0l9.37 9.37 0 -29.77c0,-1.13 0.85,-1.98 1.99,-1.98 1.02,0 1.93,0.85 1.93,1.98l0 20.62 9.37 -9.37c0.79,-0.74 1.99,-0.74 2.78,0 0.74,0.8 0.74,1.99 0,2.78l-12.15 12.16 0 18.12c1.93,-0.17 3.86,-0.51 5.62,-1.02 8.46,-2.62 14.77,-10.11 15.11,-19.26 0.51,-11.93 -6.7,-19.65 -13.92,-27.72 -3.06,-3.41 -6.13,-6.81 -8.74,-10.39 -2.67,3.58 -5.74,7.04 -8.81,10.39 -7.21,8.07 -14.42,15.79 -13.97,27.72 0.4,9.15 6.7,16.64 15.17,19.26 1.81,0.51 3.69,0.85 5.62,0.96l0 -8.97 -12.16 -12.1 0 0 0 0z"/>
 </g>
</svg>
